<svg width="600" height="600" viewBox="0 0 600 600" fill="none" xmlns="http://www.w3.org/2000/svg">
    <g opacity="0.05" clip-path="url(#clip0_337_6759)">
    <path d="M125.25 69.6299C130.773 69.6299 135.25 65.1527 135.25 59.6299C135.25 54.107 130.773 49.6299 125.25 49.6299C119.727 49.6299 115.25 54.107 115.25 59.6299C115.25 65.1527 119.727 69.6299 125.25 69.6299Z" fill="#00ADB5"/>
    <path d="M95.25 99.6299C100.773 99.6299 105.25 95.1527 105.25 89.6299C105.25 84.107 100.773 79.6299 95.25 79.6299C89.7272 79.6299 85.25 84.107 85.25 89.6299C85.25 95.1527 89.7272 99.6299 95.25 99.6299Z" fill="#00ADB5"/>
    <path d="M335.25 99.6299C340.773 99.6299 345.25 95.1527 345.25 89.6299C345.25 84.107 340.773 79.6299 335.25 79.6299C329.727 79.6299 325.25 84.107 325.25 89.6299C325.25 95.1527 329.727 99.6299 335.25 99.6299Z" fill="#00ADB5"/>
    <path d="M365.25 69.6299C370.773 69.6299 375.25 65.1527 375.25 59.6299C375.25 54.107 370.773 49.6299 365.25 49.6299C359.727 49.6299 355.25 54.107 355.25 59.6299C355.25 65.1527 359.727 69.6299 365.25 69.6299Z" fill="#00ADB5"/>
    <path d="M395.25 99.6299C400.773 99.6299 405.25 95.1527 405.25 89.6299C405.25 84.107 400.773 79.6299 395.25 79.6299C389.727 79.6299 385.25 84.107 385.25 89.6299C385.25 95.1527 389.727 99.6299 395.25 99.6299Z" fill="#00ADB5"/>
    <path d="M275.25 159.63C280.773 159.63 285.25 155.153 285.25 149.63C285.25 144.107 280.773 139.63 275.25 139.63C269.727 139.63 265.25 144.107 265.25 149.63C265.25 155.153 269.727 159.63 275.25 159.63Z" fill="#00ADB5"/>
    <path d="M215.25 159.63C220.773 159.63 225.25 155.153 225.25 149.63C225.25 144.107 220.773 139.63 215.25 139.63C209.727 139.63 205.25 144.107 205.25 149.63C205.25 155.153 209.727 159.63 215.25 159.63Z" fill="#00ADB5"/>
    <path d="M515.25 159.63C520.773 159.63 525.25 155.153 525.25 149.63C525.25 144.107 520.773 139.63 515.25 139.63C509.727 139.63 505.25 144.107 505.25 149.63C505.25 155.153 509.727 159.63 515.25 159.63Z" fill="#00ADB5"/>
    <path d="M245.25 189.63C250.773 189.63 255.25 185.153 255.25 179.63C255.25 174.107 250.773 169.63 245.25 169.63C239.727 169.63 235.25 174.107 235.25 179.63C235.25 185.153 239.727 189.63 245.25 189.63Z" fill="#00ADB5"/>
    <path d="M275.25 219.63C280.773 219.63 285.25 215.153 285.25 209.63C285.25 204.107 280.773 199.63 275.25 199.63C269.727 199.63 265.25 204.107 265.25 209.63C265.25 215.153 269.727 219.63 275.25 219.63Z" fill="#00ADB5"/>
    <path d="M185.25 189.63C190.773 189.63 195.25 185.153 195.25 179.63C195.25 174.107 190.773 169.63 185.25 169.63C179.727 169.63 175.25 174.107 175.25 179.63C175.25 185.153 179.727 189.63 185.25 189.63Z" fill="#00ADB5"/>
    <path d="M215.25 219.63C220.773 219.63 225.25 215.153 225.25 209.63C225.25 204.107 220.773 199.63 215.25 199.63C209.727 199.63 205.25 204.107 205.25 209.63C205.25 215.153 209.727 219.63 215.25 219.63Z" fill="#00ADB5"/>
    <path d="M545.25 189.63C550.773 189.63 555.25 185.153 555.25 179.63C555.25 174.107 550.773 169.63 545.25 169.63C539.727 169.63 535.25 174.107 535.25 179.63C535.25 185.153 539.727 189.63 545.25 189.63Z" fill="#00ADB5"/>
    <path d="M485.25 189.63C490.773 189.63 495.25 185.153 495.25 179.63C495.25 174.107 490.773 169.63 485.25 169.63C479.727 169.63 475.25 174.107 475.25 179.63C475.25 185.153 479.727 189.63 485.25 189.63Z" fill="#00ADB5"/>
    <path d="M515.25 219.63C520.773 219.63 525.25 215.153 525.25 209.63C525.25 204.107 520.773 199.63 515.25 199.63C509.727 199.63 505.25 204.107 505.25 209.63C505.25 215.153 509.727 219.63 515.25 219.63Z" fill="#00ADB5"/>
    <path d="M595.25 121.07C595.25 119.53 594.93 118.07 594.36 116.74C594.32 115.77 594.16 114.79 593.89 113.84L552.68 23.96C546 9.4 531.32 0 515.29 0H433.6H413.27H315.25H295.25H197.23H176.9H95.21C79.19 0 64.52 9.4 57.83 23.95L17.2 112.19L16.66 113.63C16.27 115 16.2 116.41 16.28 117.81C15.62 119.35 15.25 121.05 15.25 122.83V190C15.25 204.01 18.89 217.18 25.25 228.64V302.15C20.66 307.18 17.25 313.47 15.95 320.45C14.85 326.42 15.2 332.74 16.98 338.74C17.95 342.02 17.18 346 14.9 349.37C4.43 364.85 2.3 386.44 9.62 403.09C10.72 405.61 12.1 407.98 13.72 410.17C16.03 413.28 16.85 417.41 15.92 421.21C15.4 423.26 15.05 425.37 14.86 427.47C14.04 436.43 15.89 445.13 17.36 452.11C18.91 459.46 21.26 470.58 29.5 477.66C33.9 481.45 39.3 483.42 45.26 483.75V520H15.96L10.89 520.21L4.75 527.76L16.79 600H73.45H93.72H365.25H545.25H585.25V228.64C591.61 217.17 595.25 204.01 595.25 190V121.07ZM567.64 219.17C567.31 219.77 566.93 220.34 566.58 220.92C565.25 223.12 563.8 225.22 562.24 227.2C562.21 227.23 562.19 227.27 562.16 227.3C560.62 229.25 558.96 231.08 557.22 232.8C556.85 233.16 556.45 233.49 556.07 233.84C555.48 234.39 554.86 234.88 554.25 235.4C552.65 232 549.25 229.61 545.25 229.61C539.73 229.61 535.25 234.09 535.25 239.61C535.25 241.93 536.17 243.96 537.49 245.66C536.94 245.88 536.38 246.07 535.83 246.27C534.54 246.74 533.25 247.19 531.93 247.57C531.01 247.84 530.08 248.06 529.15 248.29C527.69 248.64 526.21 248.92 524.71 249.16C523.92 249.29 523.13 249.43 522.33 249.52C520 249.82 517.64 250 515.25 250C507.39 250 499.9 248.44 493.01 245.68C494.33 243.98 495.25 241.95 495.25 239.63C495.25 234.11 490.77 229.63 485.25 229.63C481.22 229.63 477.8 232.04 476.21 235.47C470.27 230.36 465.35 224.11 461.77 217.07C463.86 215.24 465.25 212.63 465.25 209.63C465.25 204.42 461.22 200.27 456.12 199.81C455.59 196.61 455.25 193.35 455.25 190.01V159.64C460.77 159.64 465.25 155.16 465.25 149.64C465.25 144.12 460.77 139.64 455.25 139.64V130H457.23H575.25V139.63C569.73 139.63 565.25 144.11 565.25 149.63C565.25 155.15 569.73 159.63 575.25 159.63V190C575.25 193.35 574.91 196.61 574.38 199.8C569.29 200.26 565.25 204.41 565.25 209.62C565.25 212.62 566.63 215.23 568.73 217.06C568.48 217.54 568.28 218.05 568.02 218.53L567.64 219.17ZM245.25 229.63C239.73 229.63 235.25 234.11 235.25 239.63C235.25 244.62 238.97 248.58 243.75 249.33C240.97 249.72 238.15 250 235.25 250C202.16 250 175.25 223.09 175.25 190V179.63V130H295.25V190C295.25 217.84 276.17 241.24 250.42 247.98C253.26 246.22 255.25 243.21 255.25 239.63C255.25 234.1 250.78 229.63 245.25 229.63ZM88.18 249.54C87.38 249.44 86.59 249.3 85.8 249.18C84.3 248.94 82.82 248.66 81.36 248.31C80.43 248.09 79.5 247.86 78.58 247.59C77.26 247.21 75.96 246.75 74.68 246.28C73.78 245.95 72.87 245.67 72 245.3C70.11 244.5 68.27 243.6 66.48 242.62C65.57 242.12 64.7 241.55 63.82 241C62.74 240.33 61.67 239.64 60.63 238.9C59.84 238.34 59.07 237.76 58.31 237.16C56.98 236.11 55.69 235.01 54.45 233.84C54.08 233.49 53.68 233.17 53.32 232.81C51.58 231.09 49.92 229.26 48.37 227.31C48.34 227.28 48.32 227.24 48.29 227.21C46.73 225.23 45.28 223.13 43.95 220.93C43.6 220.35 43.22 219.78 42.89 219.18L42.51 218.54C37.88 210.04 35.25 200.32 35.25 190V130H153.27H155.25V190C155.25 223.09 128.34 250 95.25 250C92.86 250 90.51 249.82 88.18 249.54ZM315.25 130H435.25V190C435.25 223.09 408.34 250 375.25 250C342.16 250 315.25 223.09 315.25 190V130ZM515.29 20C523.52 20 531.07 24.83 534.51 32.31L570.23 110H455.25H453.6L445.42 65L437.24 20H515.29ZM315.25 20H333.4C328.79 20.89 325.25 24.76 325.25 29.63C325.25 35.15 329.73 39.63 335.25 39.63C340.77 39.63 345.25 35.15 345.25 29.63C345.25 24.76 341.7 20.89 337.1 20H393.41C388.8 20.89 385.26 24.76 385.26 29.63C385.26 35.15 389.74 39.63 395.26 39.63C400.78 39.63 405.26 35.15 405.26 29.63C405.26 24.76 401.71 20.89 397.11 20H416.92L422.41 50.2C418.31 51.45 415.27 55.11 415.27 59.62C415.27 65.14 419.75 69.62 425.27 69.62C425.5 69.62 425.69 69.5 425.92 69.49L433.27 110H315.25V20ZM193.6 20H295.25V110H177.24L185.42 65L193.6 20ZM59.69 67.72C61.3 68.83 63.15 69.63 65.25 69.63C70.77 69.63 75.25 65.15 75.25 59.63C75.25 55 72.05 51.28 67.78 50.14L76 32.3C78.84 26.11 84.55 21.92 91.09 20.6C87.66 22.19 85.25 25.61 85.25 29.63C85.25 35.15 89.73 39.63 95.25 39.63C100.77 39.63 105.25 35.15 105.25 29.63C105.25 24.76 101.7 20.89 97.1 20H153.41C148.8 20.89 145.26 24.76 145.26 29.63C145.26 35.15 149.74 39.63 155.26 39.63C160.78 39.63 165.26 35.15 165.26 29.63C165.26 24.76 161.71 20.89 157.11 20H173.28L165.1 65L161.95 82.3C160.17 80.68 157.86 79.63 155.26 79.63C149.74 79.63 145.26 84.11 145.26 89.63C145.26 95.15 149.74 99.63 155.26 99.63C156.56 99.63 157.79 99.34 158.93 98.89L156.9 110H155.25H40.22L59.69 67.72ZM36.92 447.97C35.66 442 34.22 435.24 34.77 429.29C34.87 428.22 35.04 427.12 35.32 426.04C37.69 416.49 35.61 406.09 29.76 398.24C29.06 397.28 28.41 396.18 27.92 395.06C23.34 384.62 24.79 370.44 31.46 360.58C37.13 352.17 38.83 342.14 36.14 333.08C35.27 330.13 35.09 326.94 35.61 324.1C36.31 320.32 38.26 316.89 40.85 314.52L41.51 313.99C42.49 313.21 43.31 312.67 44.02 312.33L53.08 304.93C53.8 304.19 54.68 303.69 55.61 303.28C55.83 303.18 56.05 303.1 56.27 303.02C58.12 302.37 60.13 302.2 61.82 302.24C62.84 302.27 63.83 302.35 64.47 302.43C68.09 302.94 71.39 304.16 74.18 305.89L76.38 307.71C77.43 308.58 78.28 309.41 79.01 310.23C79.73 311.11 80.46 311.99 80.98 312.98C82.52 315.95 83 319.98 82.25 323.51C80.33 332.49 82.63 342.05 88.42 349.08C89.6 350.52 90.5 352.43 90.88 354.33C91.13 355.57 91.25 356.88 91.25 358.27C91.24 362.45 90.11 367.34 87.82 373.11C85.89 378 83.68 382.17 81.27 385.49C76.37 392.24 74.6 401.07 76.1 409.9C76.6 412.84 77.46 415.79 78.7 418.66C79.88 421.37 80.56 424.47 80.74 427.59C80.92 430.72 80.58 433.88 79.72 436.73C79.24 438.33 78.63 439.84 77.94 441.28C76.56 444.15 74.73 446.88 72.46 449.45C72.36 449.56 72.26 449.65 72.16 449.76C71.14 450.89 70.03 452 68.84 453.07C64.89 456.61 60.76 459.14 57.72 460.72C57.68 460.74 57.63 460.76 57.59 460.78C56.05 461.56 54.4 462.23 52.74 462.77C48.79 464.06 44.82 464.45 42.52 462.5C39.42 459.81 37.92 452.69 36.92 447.97ZM76.78 580H33.72L27.06 540H45.25H83.44L76.78 580ZM65.25 520V479.3C65.81 479.04 66.36 478.76 66.91 478.48C72.51 475.59 77.5 472.12 81.86 468.25L81.88 468.27C81.97 468.19 82.03 468.11 82.12 468.03C84.04 466.31 85.84 464.52 87.49 462.64C87.74 462.35 87.95 462.04 88.2 461.75C89.46 460.25 90.65 458.71 91.73 457.13C92.22 456.42 92.66 455.7 93.11 454.98C93.92 453.68 94.66 452.34 95.35 450.99C95.71 450.28 96.09 449.57 96.42 448.84C97.36 446.78 98.19 444.68 98.85 442.52C99.62 439.97 100.16 437.32 100.46 434.62C100.76 431.92 100.84 429.17 100.68 426.44C100.37 420.98 99.15 415.57 97.05 410.71C94.92 405.79 95.08 400.5 97.45 397.24C98.43 395.89 99.3 394.3 100.21 392.79C102.47 389.08 104.59 385.07 106.4 380.49C110.92 369.09 112.26 359.26 110.48 350.4C109.44 345.21 107.14 340.35 103.83 336.35C101.98 334.1 101.16 330.63 101.79 327.7C102.35 325.08 102.51 322.41 102.48 319.74C102.47 319.05 102.44 318.38 102.39 317.69C102.24 315.34 101.89 313.03 101.3 310.78C101.23 310.53 101.25 310.26 101.18 310.01H325.22V520.01H107.06H95.2L65.25 520ZM385.25 580V310H525.25V580H385.25ZM565.25 580H545.25V290H365.25V580H97.06L103.73 540H345.26V290H86.36C80.88 286.23 74.38 283.63 67.29 282.62C64.68 282.25 62.18 282.19 59.74 282.28C59.09 282.3 58.46 282.37 57.82 282.42C55.94 282.58 54.13 282.87 52.4 283.3C51.89 283.43 51.37 283.52 50.87 283.66C48.88 284.26 46.97 284.98 45.25 285.92V252.47C50.99 257.1 57.35 260.83 64.12 263.69C64.15 263.7 64.17 263.71 64.2 263.72C66.41 264.65 68.67 265.48 70.97 266.2C71.36 266.32 71.75 266.44 72.14 266.56C74.09 267.15 76.07 267.65 78.08 268.09C78.68 268.22 79.28 268.36 79.88 268.48C81.76 268.84 83.67 269.13 85.6 269.36C86.26 269.44 86.91 269.55 87.57 269.61C90.11 269.85 92.67 270 95.25 270C98.63 270 101.94 269.72 105.21 269.31C106.15 269.19 107.08 269.03 108.01 268.88C110.48 268.48 112.9 267.97 115.29 267.35C116.12 267.14 116.95 266.95 117.77 266.71C120.84 265.81 123.84 264.76 126.75 263.51C127.2 263.32 127.61 263.08 128.05 262.88C130.52 261.76 132.92 260.52 135.26 259.16C136.07 258.69 136.85 258.21 137.64 257.71C139.76 256.38 141.8 254.96 143.78 253.44C144.33 253.02 144.91 252.63 145.45 252.19C147.88 250.23 150.19 248.13 152.37 245.9C152.86 245.4 153.31 244.86 153.79 244.34C155.48 242.52 157.08 240.63 158.6 238.67C159.17 237.93 159.73 237.19 160.27 236.43C161.84 234.24 163.3 231.98 164.64 229.64C164.83 229.31 165.07 229.01 165.26 228.68C165.45 229.01 165.69 229.31 165.88 229.64C167.22 231.98 168.69 234.24 170.25 236.43C170.79 237.19 171.35 237.93 171.92 238.67C173.44 240.64 175.04 242.53 176.73 244.34C177.21 244.86 177.65 245.4 178.15 245.9C180.33 248.13 182.64 250.23 185.07 252.19C185.61 252.63 186.19 253.02 186.74 253.44C188.72 254.96 190.76 256.38 192.88 257.71C193.67 258.2 194.45 258.69 195.26 259.16C197.59 260.51 199.99 261.76 202.47 262.88C202.91 263.08 203.33 263.32 203.77 263.51C206.67 264.76 209.68 265.81 212.75 266.71C213.57 266.95 214.4 267.13 215.23 267.35C217.62 267.97 220.04 268.48 222.51 268.88C223.44 269.03 224.37 269.19 225.31 269.31C228.57 269.72 231.88 270 235.25 270C238.62 270 241.94 269.72 245.21 269.31C246.15 269.19 247.08 269.03 248.01 268.88C250.48 268.48 252.9 267.97 255.29 267.35C256.12 267.14 256.95 266.95 257.77 266.71C260.84 265.81 263.84 264.76 266.75 263.51C267.2 263.32 267.61 263.08 268.05 262.88C270.52 261.76 272.92 260.52 275.26 259.16C276.07 258.69 276.85 258.21 277.64 257.71C279.76 256.38 281.8 254.96 283.78 253.44C284.33 253.02 284.91 252.63 285.45 252.19C287.88 250.23 290.19 248.13 292.37 245.9C292.86 245.4 293.31 244.86 293.79 244.34C295.48 242.52 297.08 240.63 298.6 238.67C299.17 237.93 299.73 237.19 300.27 236.43C301.84 234.24 303.3 231.98 304.64 229.64C304.83 229.31 305.07 229.01 305.26 228.68C305.45 229.01 305.69 229.31 305.88 229.64C307.22 231.98 308.69 234.24 310.25 236.43C310.79 237.19 311.35 237.93 311.92 238.67C313.44 240.64 315.04 242.53 316.73 244.34C317.21 244.86 317.65 245.4 318.15 245.9C320.33 248.13 322.64 250.23 325.07 252.19C325.61 252.63 326.19 253.02 326.74 253.44C328.72 254.96 330.76 256.38 332.88 257.71C333.67 258.2 334.45 258.69 335.26 259.16C337.59 260.51 339.99 261.76 342.47 262.88C342.91 263.08 343.33 263.32 343.77 263.51C346.67 264.76 349.68 265.81 352.75 266.71C353.57 266.95 354.4 267.13 355.23 267.35C357.62 267.97 360.04 268.48 362.51 268.88C363.44 269.03 364.37 269.19 365.31 269.31C368.57 269.72 371.88 270 375.25 270C378.62 270 381.94 269.72 385.21 269.31C386.15 269.19 387.08 269.03 388.01 268.88C390.48 268.48 392.9 267.97 395.29 267.35C396.12 267.14 396.95 266.95 397.77 266.71C400.84 265.81 403.84 264.76 406.75 263.51C407.2 263.32 407.61 263.08 408.05 262.88C410.52 261.76 412.92 260.52 415.26 259.16C416.07 258.69 416.85 258.21 417.64 257.71C419.76 256.38 421.8 254.96 423.78 253.44C424.33 253.02 424.91 252.63 425.45 252.19C427.88 250.23 430.19 248.13 432.37 245.9C432.86 245.4 433.31 244.86 433.79 244.34C435.48 242.52 437.08 240.63 438.6 238.67C439.17 237.93 439.73 237.19 440.27 236.43C441.84 234.24 443.3 231.98 444.64 229.64C444.83 229.31 445.07 229.01 445.26 228.68C445.45 229.01 445.69 229.31 445.88 229.64C447.22 231.98 448.69 234.24 450.25 236.43C450.79 237.19 451.35 237.93 451.92 238.67C453.44 240.64 455.04 242.53 456.73 244.34C457.21 244.86 457.65 245.4 458.15 245.9C460.33 248.13 462.64 250.23 465.07 252.19C465.61 252.63 466.19 253.02 466.74 253.44C468.72 254.96 470.76 256.38 472.88 257.71C473.67 258.2 474.45 258.69 475.26 259.16C477.59 260.51 479.99 261.76 482.47 262.88C482.91 263.08 483.33 263.32 483.77 263.51C486.67 264.76 489.68 265.81 492.75 266.71C493.57 266.95 494.4 267.13 495.23 267.35C497.62 267.97 500.04 268.48 502.51 268.88C503.44 269.03 504.37 269.19 505.31 269.31C508.57 269.72 511.88 270 515.25 270C517.84 270 520.39 269.85 522.93 269.61C523.59 269.55 524.24 269.44 524.9 269.36C526.82 269.13 528.73 268.85 530.62 268.48C531.23 268.36 531.82 268.22 532.42 268.09C534.43 267.65 536.41 267.14 538.36 266.56C538.75 266.44 539.14 266.33 539.53 266.2C541.83 265.47 544.09 264.65 546.3 263.72C546.33 263.71 546.35 263.7 546.38 263.69C553.15 260.83 559.51 257.1 565.25 252.47V580Z" fill="#00ADB5"/>
    <path d="M495.25 430C489.72 430 485.25 434.47 485.25 440V470C485.25 475.53 489.72 480 495.25 480C500.78 480 505.25 475.53 505.25 470V440C505.25 434.47 500.78 430 495.25 430Z" fill="#00ADB5"/>
    <path d="M185.25 390C187.81 390 190.37 389.02 192.32 387.07L232.32 347.07C236.23 343.16 236.23 336.84 232.32 332.93C228.41 329.02 222.09 329.02 218.18 332.93L178.18 372.93C174.27 376.84 174.27 383.16 178.18 387.07C180.14 389.02 182.7 390 185.25 390Z" fill="#00ADB5"/>
    <path d="M185.25 440C187.81 440 190.37 439.02 192.32 437.07L212.32 417.07C216.23 413.16 216.23 406.84 212.32 402.93C208.41 399.02 202.09 399.02 198.18 402.93L178.18 422.93C174.27 426.84 174.27 433.16 178.18 437.07C180.14 439.02 182.7 440 185.25 440Z" fill="#00ADB5"/>
    <path d="M218.15 382.9C216.34 384.79 215.25 387.4 215.25 390C215.25 392.6 216.34 395.2 218.15 397C220.04 398.89 222.54 400 225.25 400C227.85 400 230.45 398.9 232.35 397.1C234.15 395.2 235.25 392.6 235.25 390C235.25 387.4 234.15 384.79 232.35 382.9C228.65 379.2 221.86 379.2 218.15 382.9Z" fill="#00ADB5"/>
    <path d="M238.18 377.07C240.14 379.02 242.7 380 245.25 380C247.8 380 250.37 379.02 252.32 377.07L282.32 347.07C286.23 343.16 286.23 336.84 282.32 332.93C278.41 329.02 272.09 329.02 268.18 332.93L238.18 362.93C234.28 366.84 234.28 373.16 238.18 377.07Z" fill="#00ADB5"/>
    <path d="M185.25 490C187.81 490 190.37 489.02 192.32 487.07L282.32 397.07C286.23 393.16 286.23 386.84 282.32 382.93C278.41 379.02 272.09 379.02 268.18 382.93L178.18 472.93C174.27 476.84 174.27 483.16 178.18 487.07C180.14 489.02 182.7 490 185.25 490Z" fill="#00ADB5"/>
    <path d="M288.15 377.1C290.04 378.9 292.65 380 295.25 380C297.85 380 300.45 378.9 302.35 377.1C304.15 375.2 305.25 372.6 305.25 370C305.25 367.4 304.15 364.79 302.35 362.9C298.65 359.2 291.85 359.2 288.15 362.9C286.34 364.79 285.25 367.4 285.25 370C285.25 372.6 286.35 375.2 288.15 377.1Z" fill="#00ADB5"/>
    </g>
    <defs>
    <clipPath id="clip0_337_6759">
    <rect width="600" height="600" fill="white"/>
    </clipPath>
    </defs>
</svg>
    