<svg width="15" height="15" viewBox="0 0 15 15" fill="none" xmlns="http://www.w3.org/2000/svg">
    <path d="M7.24219 0.00873555C10.0436 -0.0208831 13.4125 2.08565 13.1291 6.05527C13.0287 7.47046 12.4477 8.78524 11.3605 9.75109C9.43922 11.4603 6.42095 11.3548 4.63416 9.51703C3.88923 8.75056 3.5009 7.7522 3.54094 6.70615C3.57947 5.66083 4.04335 4.69209 4.84495 3.9798C5.53851 3.36358 6.43455 3.03922 7.38725 3.07462C8.3339 3.10785 9.2103 3.49145 9.85475 4.15462C10.4478 4.76433 10.6548 5.63194 10.4085 6.47643C10.1585 7.33537 9.48833 7.98987 8.6142 8.22826C8.21227 8.33807 7.76576 8.39875 7.65168 8.01587C7.53684 7.63228 7.93877 7.46901 8.4699 7.11287C9.09924 6.69098 9.44602 5.90862 8.74792 5.13853C8.39208 4.74555 7.87531 4.53822 7.33285 4.51871C6.79115 4.5021 6.27136 4.68414 5.8732 5.03812C5.36852 5.48746 5.07538 6.09933 5.05045 6.75961C5.02476 7.41917 5.27106 8.0491 5.74099 8.53312C6.96038 9.78793 9.01991 9.86017 10.3322 8.69277C11.1225 7.98987 11.5803 7.03485 11.6189 6.00325C11.6589 4.97094 11.2751 3.98702 10.54 3.23066C9.63187 2.29659 8.39812 1.75696 7.0654 1.71C5.73268 1.65943 4.46039 2.11599 3.48352 2.98504C2.28452 4.05131 1.59096 5.50118 1.53052 7.06591C1.47084 8.63064 2.05258 10.1246 3.16772 11.271C5.982 14.1664 9.66587 14.8484 13.4752 12.6508C14.0516 12.3185 14.5336 11.8302 14.86 12.0794C15.0179 12.1993 15.098 12.4269 14.792 12.6985C11.1542 15.9334 5.44181 15.7333 2.06165 12.2549C0.671505 10.826 -0.143692 8.95933 0.0210094 7.01245C0.537024 0.942083 4.97565 -0.111184 7.24219 0.00873555Z" fill="#FF449F"/>
</svg>