<svg width="600" height="600" viewBox="0 0 600 600" fill="none" xmlns="http://www.w3.org/2000/svg">
    <g opacity="0.05">
    <path d="M75 217.734C75 180.896 75 162.477 84.816 151.734C88.301 147.919 92.5368 144.866 97.2573 142.766C110.553 136.851 128.027 142.676 162.975 154.325C189.657 163.219 202.997 167.666 216.477 167.206C221.428 167.037 226.35 166.378 231.171 165.238C244.298 162.135 255.997 154.335 279.4 138.734L313.958 115.694C343.935 95.7107 358.923 85.7189 376.128 83.4149C393.333 81.1109 410.42 86.8072 444.597 98.1997L473.717 107.906C498.467 116.156 510.842 120.281 517.922 130.102C525 139.923 525 152.968 525 179.057V382.267C525 419.105 525 437.525 515.185 448.267C511.7 452.082 507.462 455.135 502.742 457.235C489.447 463.15 471.973 457.325 437.025 445.675C410.343 436.782 397.003 432.335 383.523 432.795C378.573 432.965 373.65 433.622 368.83 434.762C355.702 437.865 344.003 445.665 320.6 461.267L286.042 484.305C256.065 504.29 241.078 514.282 223.873 516.585C206.669 518.89 189.58 513.192 155.402 501.8L126.283 492.095C101.532 483.845 89.1567 479.72 82.0785 469.897C75 460.077 75 447.032 75 420.942V217.734Z" stroke="#00ADB5" stroke-width="50"/>
    <path d="M225 165.967V512.5" stroke="#00ADB5" stroke-width="50"/>
    <path d="M375 75V425" stroke="#00ADB5" stroke-width="50"/>
    </g>
</svg>
    