<svg width="32" height="35" viewBox="0 0 32 35" fill="none" xmlns="http://www.w3.org/2000/svg">
    <path d="M14.9388 8.74976C14.6939 9.10392 14.3265 9.34001 13.8979 9.34001C13.4693 9.34001 13.102 9.10392 12.8571 8.74976H12.6122V10.5206C12.6122 11.5241 11.8775 12.2914 11.0204 12.2914C10.1632 12.2914 9.42851 11.5241 9.42851 10.5206V9.34001C9.42851 10.3435 8.69382 11.1108 7.83665 11.1108C6.97949 11.1108 6.2448 10.3435 6.2448 9.34001V8.74976H3.42857V28.2289C3.42857 29.2324 4.16327 29.9998 5.02043 29.9998H27.551C28.4694 29.9998 29.1429 29.2324 29.1429 28.2289V8.74976H14.9388Z" fill="white"/>
    <path d="M3.69231 23.7498H28.3077V14.3748H3.69231V23.7498Z" fill="white"/>
    <path d="M29.1317 4.99976H15.1485V7.81226C15.1485 8.18726 15.0319 8.49978 14.8571 8.74976H29.1317C29.4813 8.74976 29.7143 8.49978 29.7143 8.12478V5.62473C29.7144 5.31228 29.4813 4.99976 29.1317 4.99976Z" fill="white"/>
    <path d="M7.42858 4.99976H3.02039C2.65301 4.99976 2.28572 5.31229 2.28572 5.62474V8.12477C2.28572 8.49978 2.57957 8.74976 3.02039 8.74976H7.42858V4.99976Z" fill="white"/>
    <path d="M18.6667 20.4166H13.3334C12.7467 20.4166 12.2667 19.8916 12.2667 19.2499C12.2667 18.6083 12.7467 18.0833 13.3334 18.0833H18.6667C19.2534 18.0833 19.7334 18.6083 19.7334 19.2499C19.7333 19.8916 19.2533 20.4166 18.6667 20.4166Z" fill="white"/>
    <path d="M9.06667 9.91711C8.74667 9.91711 8.53336 9.6838 8.53336 9.3338V7.5838C8.53336 7.2338 8.74667 7.00049 9.06667 7.00049C9.38667 7.00049 9.59998 7.2338 9.59998 7.5838V9.3338C9.59998 9.68373 9.38667 9.91711 9.06667 9.91711Z" fill="#FF449F"/>
    <path d="M28.8001 24.5H3.20008C2.88008 24.5 2.66676 24.2667 2.66676 23.9167V14.5833C2.66676 14.2333 2.88008 14 3.20008 14H28.8001C29.1201 14 29.3334 14.2333 29.3334 14.5833V23.9166C29.3334 24.2667 29.1201 24.5 28.8001 24.5ZM3.73339 23.3333H28.2667V15.1667H3.73339V23.3333Z" fill="#00ADB5"/>
    <path d="M12.3077 9.37476C11.9384 9.37476 11.6923 9.06228 11.6923 8.59353V7.03098C11.6923 6.56223 11.9384 6.24976 12.3077 6.24976C12.6769 6.24976 12.9231 6.56223 12.9231 7.03098V8.59353C12.9231 9.06228 12.6769 9.37476 12.3077 9.37476Z" fill="#FF449F"/>
    <path d="M27.2001 30.3329H4.80008C3.62676 30.3329 2.66676 29.2829 2.66676 27.9996V8.74957C2.66676 8.39957 2.88008 8.16626 3.20008 8.16626H5.86676C6.18676 8.16626 6.40008 8.39957 6.40008 8.74957V9.33288C6.40008 9.97457 6.88008 10.4996 7.46676 10.4996C8.05345 10.4996 8.53345 9.97457 8.53345 9.33288C8.53345 8.98288 8.74676 8.74957 9.06676 8.74957C9.38676 8.74957 9.60008 8.98288 9.60008 9.33288V10.4996C9.60008 11.1413 10.0801 11.6663 10.6668 11.6663C11.2535 11.6663 11.7334 11.1413 11.7334 10.4996V8.74957C11.7334 8.39957 11.9468 8.16626 12.2668 8.16626H12.5335C12.6935 8.16626 12.8535 8.22457 12.9601 8.39957C13.2801 8.86626 13.9201 8.86626 14.2401 8.39957C14.3468 8.22457 14.5068 8.16626 14.6668 8.16626H28.8001C29.1201 8.16626 29.3334 8.39957 29.3334 8.74957V27.9996C29.3334 29.2829 28.3734 30.3329 27.2001 30.3329ZM3.73339 9.33288V27.9996C3.73339 28.6413 4.21339 29.1663 4.80008 29.1663H27.2001C27.7868 29.1663 28.2668 28.6413 28.2668 27.9996V9.33288H14.9334C14.4001 9.91619 13.4934 10.0912 12.8534 9.74119V10.4996C12.8534 11.7829 11.8934 12.8329 10.7201 12.8329C9.81339 12.8329 9.01339 12.1912 8.69339 11.2579C8.32008 11.5496 7.89339 11.6662 7.4667 11.6662C6.29339 11.6662 5.33339 10.6162 5.33339 9.33288H3.73339Z" fill="#00ADB5"/>
    <path d="M29.3334 9.33313H14.6667C14.4534 9.33313 14.2934 9.21644 14.1867 8.98312C14.0801 8.80812 14.1334 8.57481 14.2401 8.39981C14.2934 8.28312 14.4001 8.10812 14.4001 7.87481V5.24981C14.4001 4.89981 14.6134 4.6665 14.9334 4.6665H29.3334C29.9201 4.6665 30.4001 5.1915 30.4001 5.83319V8.1665C30.4001 8.80813 29.9201 9.33313 29.3334 9.33313ZM15.4667 8.1665H29.3334V5.83313H15.4667V7.87481C15.4667 7.9915 15.4667 8.04981 15.4667 8.1665Z" fill="#00ADB5"/>
    <path d="M5.86676 9.33319H2.66675C2.08007 9.33319 1.60007 8.80819 1.60007 8.1665V5.83319C1.60007 5.1915 2.08007 4.6665 2.66675 4.6665H5.86676C6.18676 4.6665 6.40007 4.89981 6.40007 5.24981V8.74988C6.40007 9.09988 6.18676 9.33319 5.86676 9.33319ZM2.66675 5.83319V8.1665H5.33344V5.83319H2.66675Z" fill="#00ADB5"/>
    <path d="M20.3077 4.68726H4.92308L5.51503 10.3815C5.51503 12.1642 6.55573 13.5274 7.91671 13.5274C9.27769 13.5274 10.3184 12.1642 10.3184 10.3815V12.4788C10.3184 14.2616 11.3591 15.6248 12.7201 15.6248C14.0811 15.6248 15.1218 14.2616 15.1218 12.4788V7.75994C15.1218 9.22808 16.0024 10.3815 17.1231 10.3815C18.2439 10.3815 19.1245 9.22796 19.1245 7.75994L20.3077 4.68726Z" fill="#FF449F"/>
    <path d="M13.0203 16.2497C11.6438 16.2497 10.4292 15.1693 9.94338 13.5979C9.45755 14.089 8.80974 14.2854 8.16203 14.2854C6.38068 14.2854 4.92319 12.5175 4.92319 10.3568V4.64943C4.92319 4.64943 6.05673 4.64943 6.54256 4.64943H18.6883L20.3078 4.64941V7.9015C20.3078 9.76755 19.0123 11.3391 17.4738 11.3391C17.0689 11.3391 16.6641 11.2409 16.2592 11.0444V12.3212C16.2592 14.4819 14.8017 16.2497 13.0203 16.2497ZM11.4009 10.3568V12.3212C11.4009 13.4016 12.1296 14.2855 13.0203 14.2855C13.9111 14.2855 14.6398 13.4016 14.6398 12.3212V7.9015C14.6398 7.31221 14.9637 6.91939 15.4495 6.91939C15.9353 6.91939 16.2592 7.31221 16.2592 7.9015C16.2592 8.68726 16.826 9.37473 17.4738 9.37473C18.1216 9.37473 18.6883 8.68726 18.6883 7.9015V4.64943H6.54256V10.3568C6.54256 11.4372 7.27131 12.3212 8.16203 12.3212C9.05275 12.3212 9.7815 11.4372 9.7815 10.3568C9.7815 9.76754 10.1054 9.37473 10.5912 9.37473C11.077 9.37473 11.4009 9.86584 11.4009 10.3568Z" fill="#EBB313"/>
    <path d="M18.6256 22.8748H13.2923C12.3856 22.8748 11.6923 22.1164 11.6923 21.1248C11.6923 20.1331 12.3856 19.3748 13.2923 19.3748H18.6256C19.5323 19.3748 20.2256 20.1331 20.2256 21.1248C20.2256 22.1164 19.5322 22.8748 18.6256 22.8748ZM13.2922 20.5414C12.9722 20.5414 12.7589 20.7748 12.7589 21.1248C12.7589 21.4748 12.9722 21.7081 13.2922 21.7081H18.6256C18.9456 21.7081 19.1589 21.4748 19.1589 21.1248C19.1589 20.7748 18.9456 20.5414 18.6256 20.5414H13.2922Z" fill="#00ADB5"/>
    <path d="M12.3846 21.8748C5.65385 21.8748 0 15.0134 0 6.92908C0 6.52147 0.215364 6.24976 0.53844 6.24976H2.15382C2.4769 6.24976 2.69227 6.52147 2.69227 6.92908C2.69227 7.33669 2.4769 7.6084 2.15382 7.6084H1.07694C1.40002 14.6737 6.46154 20.516 12.3846 20.516C12.7077 20.516 12.9231 20.7877 12.9231 21.1954C12.9231 21.603 12.7077 21.8748 12.3846 21.8748Z" fill="#00ADB5"/>
    <path d="M19.6154 21.8748C19.2923 21.8748 19.0769 21.603 19.0769 21.1954C19.0769 20.7878 19.2923 20.5161 19.6154 20.5161C25.5385 20.5161 30.6 14.6736 30.9231 7.60841H29.8462C29.5231 7.60841 29.3077 7.3367 29.3077 6.92908C29.3077 6.52147 29.5231 6.24976 29.8462 6.24976H31.4616C31.7846 6.24976 32 6.52147 32 6.92908C32.0001 15.0133 26.3462 21.8748 19.6154 21.8748Z" fill="#00ADB5"/>
</svg>
    