<svg width="443" height="562" viewBox="0 0 443 562" fill="none" xmlns="http://www.w3.org/2000/svg">
    <path fill-rule="evenodd" clip-rule="evenodd" d="M192.912 19.5C228.575 133.613 423.463 166.744 423.463 319.237C423.463 456.056 347.787 543.206 192.219 542.325C54.1062 541.538 -63.6626 327.469 80.4125 188.25C95.4687 284.737 125.131 278.944 155.412 282C117.631 166.163 125.412 112.65 192.912 19.5Z" fill="#FF6B00"/>
    <path fill-rule="evenodd" clip-rule="evenodd" d="M210.8 13.9124C208.7 7.14366 202.944 2.13735 195.931 0.993599C188.938 -0.150151 181.888 2.75613 177.725 8.49363C141.744 58.1436 122.169 97.4623 116.131 139.575C111.106 174.581 115.494 211.744 128.75 258.862C127.231 258.037 125.731 257.044 124.269 255.806C113.112 246.45 105.35 226.462 98.9375 185.362C97.85 178.444 93.0125 172.706 86.375 170.475C79.7375 168.244 72.425 169.894 67.3812 174.769C-26.9688 265.931 -11.6313 386.494 48.7624 468.562C89.2812 523.65 150.144 560.719 210.856 561.075C295.569 561.544 353.019 536.944 389.713 494.719C425.975 452.944 442.213 392.906 442.213 319.237C442.213 236.531 390.8 185.325 333.125 140.212C306.95 119.719 279.631 100.462 256.719 79.256C235.944 60.056 218.769 39.3562 210.8 13.9124ZM189.725 57.2249C216.294 100.762 264.294 133.969 310.006 169.744C358.7 207.825 404.713 249.431 404.713 319.237C404.713 382.387 392.487 434.325 361.4 470.119C330.725 505.444 281.919 523.969 211.063 523.575C161.3 523.294 112.194 491.494 78.9499 446.325C34.5124 385.912 18.5749 300.375 69.8374 228.919C78.2374 258.994 89.0563 275.212 100.138 284.512C116.431 298.2 134.675 298.762 153.538 300.656C159.838 301.294 166.044 298.706 170.019 293.756C173.994 288.825 175.212 282.206 173.244 276.187C155.487 221.737 147.931 182.025 153.256 144.9C157.4 115.894 169.456 88.6874 189.725 57.2249Z" fill="#FF6B00"/>
</svg>
    