<svg width="30" height="30" viewBox="0 0 30 30" fill="none" xmlns="http://www.w3.org/2000/svg">
    <g clip-path="url(#clip0_396_10088)">
    <path d="M0 22.5001C0 23.3841 0.35119 24.232 0.976311 24.8571C1.60143 25.4822 2.44928 25.8334 3.33333 25.8334H26.6667C27.5507 25.8334 28.3986 25.4822 29.0237 24.8571C29.6488 24.232 30 23.3841 30 22.5001V19.1667H0V22.5001Z" fill="#FFCD05"/>
    <path d="M0 11.6667H30V19.1667H0V11.6667Z" fill="#ED1F24"/>
    <path d="M26.6667 4.16675H3.33333C2.44928 4.16675 1.60143 4.51794 0.976311 5.14306C0.35119 5.76818 0 6.61603 0 7.50008L0 11.6667H30V7.50008C30 6.61603 29.6488 5.76818 29.0237 5.14306C28.3986 4.51794 27.5507 4.16675 26.6667 4.16675Z" fill="#141414"/>
    </g>
    <defs>
    <clipPath id="clip0_396_10088">
    <rect width="30" height="30" fill="white"/>
    </clipPath>
    </defs>
</svg>
    