<svg width="285" height="83" viewBox="0 0 285 83" fill="none" xmlns="http://www.w3.org/2000/svg">
<path d="M269 0H0V83H269V0Z" fill="#00ADB5"/>
<path d="M119.043 35.432C119.043 37.128 118.76 38.7013 118.195 40.152C117.64 41.592 116.851 42.84 115.827 43.896C114.803 44.952 113.571 45.7787 112.131 46.376C110.691 46.9627 109.091 47.256 107.331 47.256C105.582 47.256 103.987 46.9627 102.547 46.376C101.107 45.7787 99.8698 44.952 98.8351 43.896C97.8111 42.84 97.0165 41.592 96.4511 40.152C95.8858 38.7013 95.6031 37.128 95.6031 35.432C95.6031 33.736 95.8858 32.168 96.4511 30.728C97.0165 29.2773 97.8111 28.024 98.8351 26.968C99.8698 25.912 101.107 25.0907 102.547 24.504C103.987 23.9067 105.582 23.608 107.331 23.608C108.504 23.608 109.608 23.7467 110.643 24.024C111.678 24.2907 112.627 24.6747 113.491 25.176C114.355 25.6667 115.128 26.2693 115.811 26.984C116.504 27.688 117.091 28.4773 117.571 29.352C118.051 30.2267 118.414 31.176 118.659 32.2C118.915 33.224 119.043 34.3013 119.043 35.432ZM114.643 35.432C114.643 34.1627 114.472 33.0267 114.131 32.024C113.79 31.0107 113.304 30.152 112.675 29.448C112.046 28.744 111.278 28.2053 110.371 27.832C109.475 27.4587 108.462 27.272 107.331 27.272C106.2 27.272 105.182 27.4587 104.275 27.832C103.379 28.2053 102.611 28.744 101.971 29.448C101.342 30.152 100.856 31.0107 100.515 32.024C100.174 33.0267 100.003 34.1627 100.003 35.432C100.003 36.7013 100.174 37.8427 100.515 38.856C100.856 39.8587 101.342 40.712 101.971 41.416C102.611 42.1093 103.379 42.6427 104.275 43.016C105.182 43.3893 106.2 43.576 107.331 43.576C108.462 43.576 109.475 43.3893 110.371 43.016C111.278 42.6427 112.046 42.1093 112.675 41.416C113.304 40.712 113.79 39.8587 114.131 38.856C114.472 37.8427 114.643 36.7013 114.643 35.432ZM132.487 43.64C133.287 43.64 133.954 43.5547 134.487 43.384C135.031 43.2027 135.468 42.9573 135.799 42.648C136.13 42.3387 136.364 41.976 136.503 41.56C136.642 41.144 136.711 40.696 136.711 40.216C136.711 39.6933 136.642 39.2187 136.503 38.792C136.364 38.3653 136.13 38.008 135.799 37.72C135.468 37.4213 135.036 37.192 134.503 37.032C133.97 36.872 133.303 36.792 132.503 36.792H128.727V43.64H132.487ZM132.503 33.432C134.007 33.432 135.292 33.5973 136.359 33.928C137.436 34.2587 138.311 34.712 138.983 35.288C139.666 35.8533 140.167 36.5253 140.487 37.304C140.807 38.072 140.967 38.8987 140.967 39.784C140.967 40.872 140.775 41.8587 140.391 42.744C140.018 43.6293 139.468 44.392 138.743 45.032C138.018 45.6613 137.127 46.1467 136.071 46.488C135.026 46.8293 133.831 47 132.487 47H124.423V23.864H140.119V27.192H128.727V33.432H132.503ZM168.243 35.432C168.243 37.128 167.96 38.7013 167.395 40.152C166.84 41.592 166.051 42.84 165.027 43.896C164.003 44.952 162.771 45.7787 161.331 46.376C159.891 46.9627 158.291 47.256 156.531 47.256C154.782 47.256 153.187 46.9627 151.747 46.376C150.307 45.7787 149.07 44.952 148.035 43.896C147.011 42.84 146.216 41.592 145.651 40.152C145.086 38.7013 144.803 37.128 144.803 35.432C144.803 33.736 145.086 32.168 145.651 30.728C146.216 29.2773 147.011 28.024 148.035 26.968C149.07 25.912 150.307 25.0907 151.747 24.504C153.187 23.9067 154.782 23.608 156.531 23.608C157.704 23.608 158.808 23.7467 159.843 24.024C160.878 24.2907 161.827 24.6747 162.691 25.176C163.555 25.6667 164.328 26.2693 165.011 26.984C165.704 27.688 166.291 28.4773 166.771 29.352C167.251 30.2267 167.614 31.176 167.859 32.2C168.115 33.224 168.243 34.3013 168.243 35.432ZM163.843 35.432C163.843 34.1627 163.672 33.0267 163.331 32.024C162.99 31.0107 162.504 30.152 161.875 29.448C161.246 28.744 160.478 28.2053 159.571 27.832C158.675 27.4587 157.662 27.272 156.531 27.272C155.4 27.272 154.382 27.4587 153.475 27.832C152.579 28.2053 151.811 28.744 151.171 29.448C150.542 30.152 150.056 31.0107 149.715 32.024C149.374 33.0267 149.203 34.1627 149.203 35.432C149.203 36.7013 149.374 37.8427 149.715 38.856C150.056 39.8587 150.542 40.712 151.171 41.416C151.811 42.1093 152.579 42.6427 153.475 43.016C154.382 43.3893 155.4 43.576 156.531 43.576C157.662 43.576 158.675 43.3893 159.571 43.016C160.478 42.6427 161.246 42.1093 161.875 41.416C162.504 40.712 162.99 39.8587 163.331 38.856C163.672 37.8427 163.843 36.7013 163.843 35.432ZM193.127 23.864V47H188.807V32.504C188.807 31.96 188.818 31.3893 188.839 30.792C188.871 30.1947 188.935 29.56 189.031 28.888C188.818 29.4853 188.583 30.04 188.327 30.552C188.082 31.0533 187.842 31.496 187.607 31.88L178.759 45.672C178.663 45.832 178.546 45.992 178.407 46.152C178.279 46.312 178.135 46.456 177.975 46.584C177.815 46.7013 177.639 46.8027 177.447 46.888C177.255 46.9627 177.058 47 176.855 47H173.623V23.864H177.943V38.36C177.943 38.904 177.927 39.48 177.895 40.088C177.874 40.6853 177.815 41.32 177.719 41.992C177.932 41.3947 178.162 40.84 178.407 40.328C178.663 39.816 178.914 39.368 179.159 38.984L187.991 25.192C188.087 25.032 188.199 24.872 188.327 24.712C188.466 24.552 188.615 24.4133 188.775 24.296C188.935 24.168 189.106 24.0667 189.287 23.992C189.479 23.9067 189.682 23.864 189.895 23.864H193.127ZM183.575 20.52C183.97 20.52 184.3 20.4827 184.567 20.408C184.834 20.3333 185.047 20.2053 185.207 20.024C185.367 19.832 185.479 19.576 185.543 19.256C185.607 18.936 185.639 18.5307 185.639 18.04H187.975C188.252 18.04 188.455 18.1573 188.583 18.392C188.722 18.6267 188.791 18.8827 188.791 19.16C188.791 19.704 188.668 20.184 188.423 20.6C188.178 21.016 187.826 21.3627 187.367 21.64C186.908 21.9173 186.359 22.1307 185.719 22.28C185.079 22.4187 184.364 22.488 183.575 22.488C182.786 22.488 182.071 22.4187 181.431 22.28C180.791 22.1307 180.242 21.9173 179.783 21.64C179.324 21.3627 178.972 21.016 178.727 20.6C178.482 20.184 178.359 19.704 178.359 19.16C178.359 18.8827 178.423 18.6267 178.551 18.392C178.69 18.1573 178.898 18.04 179.175 18.04H181.511C181.511 18.5307 181.543 18.936 181.607 19.256C181.671 19.576 181.783 19.832 181.943 20.024C182.103 20.2053 182.311 20.3333 182.567 20.408C182.834 20.4827 183.17 20.52 183.575 20.52ZM219.511 47H215.607C215.202 47 214.86 46.8933 214.583 46.68C214.316 46.4667 214.066 46.152 213.831 45.736L208.903 37.96C208.775 37.736 208.636 37.5547 208.487 37.416C208.348 37.2667 208.194 37.1493 208.023 37.064C207.863 36.968 207.676 36.904 207.463 36.872C207.26 36.84 207.026 36.824 206.759 36.824H204.183V47H199.879V23.864H204.183V33.56H206.359C206.796 33.56 207.175 33.4853 207.495 33.336C207.815 33.1867 208.114 32.9093 208.391 32.504L213.463 25.016C213.676 24.6747 213.927 24.3973 214.215 24.184C214.503 23.9707 214.85 23.864 215.255 23.864H218.935L212.647 33.144C212.38 33.5493 212.071 33.8853 211.719 34.152C211.367 34.4187 210.978 34.6267 210.551 34.776C211.191 34.9573 211.73 35.2453 212.167 35.64C212.615 36.024 213.042 36.5573 213.447 37.24L219.511 47ZM243.264 23.864V47H238.944V32.504C238.944 31.96 238.955 31.3893 238.976 30.792C239.008 30.1947 239.072 29.56 239.168 28.888C238.955 29.4853 238.72 30.04 238.464 30.552C238.219 31.0533 237.979 31.496 237.744 31.88L228.896 45.672C228.8 45.832 228.683 45.992 228.544 46.152C228.416 46.312 228.272 46.456 228.112 46.584C227.952 46.7013 227.776 46.8027 227.584 46.888C227.392 46.9627 227.195 47 226.992 47H223.76V23.864H228.08V38.36C228.08 38.904 228.064 39.48 228.032 40.088C228.011 40.6853 227.952 41.32 227.856 41.992C228.07 41.3947 228.299 40.84 228.544 40.328C228.8 39.816 229.051 39.368 229.296 38.984L238.128 25.192C238.224 25.032 238.336 24.872 238.464 24.712C238.603 24.552 238.752 24.4133 238.912 24.296C239.072 24.168 239.243 24.0667 239.424 23.992C239.616 23.9067 239.819 23.864 240.032 23.864H243.264ZM265.905 41.544C266.139 41.544 266.347 41.6347 266.529 41.816L268.225 43.656C267.286 44.8187 266.129 45.7093 264.753 46.328C263.387 46.9467 261.745 47.256 259.825 47.256C258.107 47.256 256.561 46.9627 255.185 46.376C253.819 45.7893 252.651 44.9733 251.681 43.928C250.71 42.8827 249.963 41.6347 249.441 40.184C248.929 38.7333 248.673 37.1493 248.673 35.432C248.673 33.6933 248.95 32.104 249.505 30.664C250.059 29.2133 250.838 27.9653 251.841 26.92C252.854 25.8747 254.059 25.064 255.457 24.488C256.854 23.9013 258.401 23.608 260.097 23.608C261.782 23.608 263.275 23.8853 264.577 24.44C265.889 24.9947 267.003 25.72 267.921 26.616L266.481 28.616C266.395 28.744 266.283 28.856 266.145 28.952C266.017 29.048 265.835 29.096 265.601 29.096C265.441 29.096 265.275 29.0533 265.105 28.968C264.934 28.872 264.747 28.76 264.545 28.632C264.342 28.4933 264.107 28.344 263.841 28.184C263.574 28.024 263.265 27.88 262.913 27.752C262.561 27.6133 262.15 27.5013 261.681 27.416C261.222 27.32 260.689 27.272 260.081 27.272C259.046 27.272 258.097 27.4587 257.233 27.832C256.379 28.1947 255.643 28.728 255.025 29.432C254.406 30.1253 253.926 30.9787 253.585 31.992C253.243 32.9947 253.073 34.1413 253.073 35.432C253.073 36.7333 253.254 37.8907 253.617 38.904C253.99 39.9173 254.491 40.7707 255.121 41.464C255.75 42.1573 256.491 42.6907 257.345 43.064C258.198 43.4267 259.115 43.608 260.097 43.608C260.683 43.608 261.211 43.576 261.681 43.512C262.161 43.448 262.598 43.3467 262.993 43.208C263.398 43.0693 263.777 42.8933 264.129 42.68C264.491 42.456 264.849 42.184 265.201 41.864C265.307 41.768 265.419 41.6933 265.537 41.64C265.654 41.576 265.777 41.544 265.905 41.544Z" fill="white"/>
<path d="M148.089 60.169C148.052 60.2203 148.014 60.26 147.977 60.288C147.94 60.316 147.888 60.33 147.823 60.33C147.753 60.33 147.676 60.302 147.592 60.246C147.508 60.1853 147.403 60.12 147.277 60.05C147.156 59.98 147.004 59.917 146.822 59.861C146.645 59.8003 146.425 59.77 146.164 59.77C145.814 59.77 145.506 59.833 145.24 59.959C144.974 60.0803 144.75 60.2577 144.568 60.491C144.391 60.7243 144.255 61.0067 144.162 61.338C144.073 61.6693 144.029 62.0403 144.029 62.451C144.029 62.8803 144.078 63.263 144.176 63.599C144.274 63.9303 144.412 64.2103 144.589 64.439C144.771 64.663 144.988 64.8357 145.24 64.957C145.497 65.0737 145.784 65.132 146.101 65.132C146.404 65.132 146.654 65.097 146.85 65.027C147.046 64.9523 147.207 64.8707 147.333 64.782C147.464 64.6933 147.571 64.614 147.655 64.544C147.744 64.4693 147.83 64.432 147.914 64.432C148.017 64.432 148.096 64.4717 148.152 64.551L148.502 65.006C148.348 65.1973 148.173 65.3607 147.977 65.496C147.781 65.6313 147.569 65.7457 147.34 65.839C147.116 65.9277 146.88 65.993 146.633 66.035C146.386 66.077 146.134 66.098 145.877 66.098C145.434 66.098 145.021 66.0163 144.638 65.853C144.26 65.6897 143.931 65.454 143.651 65.146C143.371 64.8333 143.152 64.4507 142.993 63.998C142.834 63.5453 142.755 63.0297 142.755 62.451C142.755 61.9237 142.827 61.436 142.972 60.988C143.121 60.54 143.336 60.155 143.616 59.833C143.901 59.5063 144.248 59.252 144.659 59.07C145.074 58.888 145.55 58.797 146.087 58.797C146.586 58.797 147.025 58.8787 147.403 59.042C147.786 59.2007 148.124 59.427 148.418 59.721L148.089 60.169ZM153.683 62.808C153.109 62.8267 152.619 62.8733 152.213 62.948C151.811 63.018 151.482 63.1113 151.226 63.228C150.974 63.3447 150.789 63.4823 150.673 63.641C150.561 63.7997 150.505 63.977 150.505 64.173C150.505 64.3597 150.535 64.5207 150.596 64.656C150.656 64.7913 150.738 64.9033 150.841 64.992C150.948 65.076 151.072 65.139 151.212 65.181C151.356 65.2183 151.51 65.237 151.674 65.237C151.893 65.237 152.094 65.216 152.276 65.174C152.458 65.1273 152.628 65.062 152.787 64.978C152.95 64.894 153.104 64.7937 153.249 64.677C153.398 64.5603 153.543 64.4273 153.683 64.278V62.808ZM149.658 59.91C150.05 59.532 150.472 59.2497 150.925 59.063C151.377 58.8763 151.879 58.783 152.43 58.783C152.826 58.783 153.179 58.8483 153.487 58.979C153.795 59.1097 154.054 59.2917 154.264 59.525C154.474 59.7583 154.632 60.0407 154.74 60.372C154.847 60.7033 154.901 61.0673 154.901 61.464V66H154.348C154.226 66 154.133 65.9813 154.068 65.944C154.002 65.902 153.951 65.8227 153.914 65.706L153.774 65.034C153.587 65.2067 153.405 65.3607 153.228 65.496C153.05 65.6267 152.864 65.7387 152.668 65.832C152.472 65.9207 152.262 65.9883 152.038 66.035C151.818 66.0863 151.573 66.112 151.303 66.112C151.027 66.112 150.768 66.0747 150.526 66C150.283 65.9207 150.071 65.804 149.889 65.65C149.711 65.496 149.569 65.3023 149.462 65.069C149.359 64.831 149.308 64.551 149.308 64.229C149.308 63.949 149.385 63.6807 149.539 63.424C149.693 63.1627 149.942 62.9317 150.288 62.731C150.633 62.5303 151.083 62.367 151.639 62.241C152.194 62.1103 152.875 62.0357 153.683 62.017V61.464C153.683 60.9133 153.564 60.498 153.326 60.218C153.088 59.9333 152.74 59.791 152.283 59.791C151.975 59.791 151.716 59.8307 151.506 59.91C151.3 59.9847 151.121 60.071 150.967 60.169C150.817 60.2623 150.687 60.3487 150.575 60.428C150.467 60.5027 150.36 60.54 150.253 60.54C150.169 60.54 150.096 60.519 150.036 60.477C149.975 60.4303 149.924 60.3743 149.882 60.309L149.658 59.91ZM163.015 66H161.769V59.889H159.529C159.473 60.7897 159.389 61.569 159.277 62.227C159.165 62.8803 159.029 63.438 158.871 63.9C158.717 64.3573 158.542 64.7307 158.346 65.02C158.154 65.3047 157.951 65.5263 157.737 65.685C157.527 65.8437 157.307 65.951 157.079 66.007C156.855 66.063 156.631 66.091 156.407 66.091C156.01 66.091 155.812 66.028 155.812 65.902V65.111H156.176C156.334 65.111 156.495 65.083 156.659 65.027C156.822 64.971 156.981 64.8637 157.135 64.705C157.293 64.5463 157.445 64.3247 157.59 64.04C157.734 63.7507 157.865 63.3773 157.982 62.92C158.103 62.458 158.206 61.9003 158.29 61.247C158.378 60.589 158.446 59.8097 158.493 58.909H163.015V66ZM167.977 58.797C168.495 58.797 168.962 58.8833 169.377 59.056C169.792 59.2287 170.147 59.4737 170.441 59.791C170.735 60.1083 170.959 60.4933 171.113 60.946C171.272 61.394 171.351 61.8957 171.351 62.451C171.351 63.011 171.272 63.515 171.113 63.963C170.959 64.411 170.735 64.7937 170.441 65.111C170.147 65.4283 169.792 65.6733 169.377 65.846C168.962 66.014 168.495 66.098 167.977 66.098C167.454 66.098 166.983 66.014 166.563 65.846C166.148 65.6733 165.793 65.4283 165.499 65.111C165.205 64.7937 164.979 64.411 164.82 63.963C164.666 63.515 164.589 63.011 164.589 62.451C164.589 61.8957 164.666 61.394 164.82 60.946C164.979 60.4933 165.205 60.1083 165.499 59.791C165.793 59.4737 166.148 59.2287 166.563 59.056C166.983 58.8833 167.454 58.797 167.977 58.797ZM167.977 65.125C168.677 65.125 169.2 64.8917 169.545 64.425C169.89 63.9537 170.063 63.298 170.063 62.458C170.063 61.6133 169.89 60.9553 169.545 60.484C169.2 60.0127 168.677 59.777 167.977 59.777C167.622 59.777 167.312 59.8377 167.046 59.959C166.785 60.0803 166.565 60.2553 166.388 60.484C166.215 60.7127 166.085 60.995 165.996 61.331C165.912 61.6623 165.87 62.038 165.87 62.458C165.87 63.298 166.043 63.9537 166.388 64.425C166.738 64.8917 167.268 65.125 167.977 65.125ZM178.839 58.909V66H177.586V62.682H174.184V66H172.931V58.909H174.184V61.737H177.586V58.909H178.839ZM187.391 58.797C187.909 58.797 188.376 58.8833 188.791 59.056C189.206 59.2287 189.561 59.4737 189.855 59.791C190.149 60.1083 190.373 60.4933 190.527 60.946C190.686 61.394 190.765 61.8957 190.765 62.451C190.765 63.011 190.686 63.515 190.527 63.963C190.373 64.411 190.149 64.7937 189.855 65.111C189.561 65.4283 189.206 65.6733 188.791 65.846C188.376 66.014 187.909 66.098 187.391 66.098C186.868 66.098 186.397 66.014 185.977 65.846C185.562 65.6733 185.207 65.4283 184.913 65.111C184.619 64.7937 184.393 64.411 184.234 63.963C184.08 63.515 184.003 63.011 184.003 62.451C184.003 61.8957 184.08 61.394 184.234 60.946C184.393 60.4933 184.619 60.1083 184.913 59.791C185.207 59.4737 185.562 59.2287 185.977 59.056C186.397 58.8833 186.868 58.797 187.391 58.797ZM187.391 65.125C188.091 65.125 188.614 64.8917 188.959 64.425C189.304 63.9537 189.477 63.298 189.477 62.458C189.477 61.6133 189.304 60.9553 188.959 60.484C188.614 60.0127 188.091 59.777 187.391 59.777C187.036 59.777 186.726 59.8377 186.46 59.959C186.199 60.0803 185.979 60.2553 185.802 60.484C185.629 60.7127 185.499 60.995 185.41 61.331C185.326 61.6623 185.284 62.038 185.284 62.458C185.284 63.298 185.457 63.9537 185.802 64.425C186.152 64.8917 186.682 65.125 187.391 65.125ZM195.544 65.174C196.244 65.174 196.772 64.9523 197.126 64.509C197.486 64.061 197.665 63.4357 197.665 62.633C197.665 61.835 197.493 61.212 197.147 60.764C196.807 60.316 196.293 60.092 195.607 60.092C195.276 60.092 194.977 60.1457 194.711 60.253C194.445 60.3557 194.219 60.5073 194.032 60.708C193.85 60.9087 193.708 61.156 193.605 61.45C193.507 61.744 193.458 62.08 193.458 62.458C193.458 62.8827 193.503 63.263 193.591 63.599C193.68 63.935 193.811 64.2197 193.983 64.453C194.161 64.6863 194.378 64.866 194.634 64.992C194.896 65.1133 195.199 65.174 195.544 65.174ZM196.027 57.243C195.551 57.285 195.143 57.39 194.802 57.558C194.466 57.726 194.186 57.9547 193.962 58.244C193.738 58.5287 193.57 58.8717 193.458 59.273C193.346 59.6743 193.281 60.127 193.262 60.631C193.374 60.407 193.519 60.2063 193.696 60.029C193.874 59.847 194.077 59.693 194.305 59.567C194.534 59.4363 194.781 59.3383 195.047 59.273C195.318 59.203 195.605 59.168 195.908 59.168C196.38 59.168 196.802 59.252 197.175 59.42C197.553 59.5833 197.873 59.8167 198.134 60.12C198.4 60.4233 198.603 60.7897 198.743 61.219C198.883 61.6437 198.953 62.115 198.953 62.633C198.953 63.1603 198.872 63.6387 198.708 64.068C198.55 64.4927 198.321 64.8567 198.022 65.16C197.724 65.4587 197.364 65.6897 196.944 65.853C196.529 66.0163 196.062 66.098 195.544 66.098C195.068 66.098 194.623 66.0187 194.207 65.86C193.792 65.7013 193.433 65.44 193.129 65.076C192.826 64.712 192.586 64.2337 192.408 63.641C192.236 63.0437 192.149 62.3087 192.149 61.436C192.149 60.6893 192.217 60.0033 192.352 59.378C192.488 58.7527 192.705 58.209 193.003 57.747C193.307 57.285 193.696 56.914 194.172 56.634C194.653 56.3493 195.236 56.1767 195.922 56.116L198.456 55.899L198.526 56.543C198.54 56.6877 198.519 56.809 198.463 56.907C198.407 57.005 198.307 57.0587 198.162 57.068L196.027 57.243ZM203.524 58.797C204.042 58.797 204.509 58.8833 204.924 59.056C205.339 59.2287 205.694 59.4737 205.988 59.791C206.282 60.1083 206.506 60.4933 206.66 60.946C206.819 61.394 206.898 61.8957 206.898 62.451C206.898 63.011 206.819 63.515 206.66 63.963C206.506 64.411 206.282 64.7937 205.988 65.111C205.694 65.4283 205.339 65.6733 204.924 65.846C204.509 66.014 204.042 66.098 203.524 66.098C203.001 66.098 202.53 66.014 202.11 65.846C201.695 65.6733 201.34 65.4283 201.046 65.111C200.752 64.7937 200.526 64.411 200.367 63.963C200.213 63.515 200.136 63.011 200.136 62.451C200.136 61.8957 200.213 61.394 200.367 60.946C200.526 60.4933 200.752 60.1083 201.046 59.791C201.34 59.4737 201.695 59.2287 202.11 59.056C202.53 58.8833 203.001 58.797 203.524 58.797ZM203.524 65.125C204.224 65.125 204.747 64.8917 205.092 64.425C205.437 63.9537 205.61 63.298 205.61 62.458C205.61 61.6133 205.437 60.9553 205.092 60.484C204.747 60.0127 204.224 59.777 203.524 59.777C203.169 59.777 202.859 59.8377 202.593 59.959C202.332 60.0803 202.112 60.2553 201.935 60.484C201.762 60.7127 201.632 60.995 201.543 61.331C201.459 61.6623 201.417 62.038 201.417 62.458C201.417 63.298 201.59 63.9537 201.935 64.425C202.285 64.8917 202.815 65.125 203.524 65.125ZM213.224 61.681C213.224 61.3917 213.182 61.128 213.098 60.89C213.019 60.6473 212.9 60.4397 212.741 60.267C212.587 60.0897 212.398 59.9543 212.174 59.861C211.95 59.763 211.696 59.714 211.411 59.714C210.814 59.714 210.34 59.889 209.99 60.239C209.645 60.5843 209.43 61.065 209.346 61.681H213.224ZM214.232 65.006C214.078 65.1927 213.894 65.356 213.679 65.496C213.465 65.6313 213.234 65.7433 212.986 65.832C212.744 65.9207 212.492 65.986 212.23 66.028C211.969 66.0747 211.71 66.098 211.453 66.098C210.963 66.098 210.511 66.0163 210.095 65.853C209.685 65.685 209.328 65.4423 209.024 65.125C208.726 64.803 208.492 64.4063 208.324 63.935C208.156 63.4637 208.072 62.9223 208.072 62.311C208.072 61.8163 208.147 61.3543 208.296 60.925C208.45 60.4957 208.67 60.1247 208.954 59.812C209.239 59.4947 209.587 59.2473 209.997 59.07C210.408 58.888 210.87 58.797 211.383 58.797C211.808 58.797 212.2 58.8693 212.559 59.014C212.923 59.154 213.236 59.3593 213.497 59.63C213.763 59.896 213.971 60.2273 214.12 60.624C214.27 61.016 214.344 61.464 214.344 61.968C214.344 62.164 214.323 62.2947 214.281 62.36C214.239 62.4253 214.16 62.458 214.043 62.458H209.304C209.318 62.906 209.379 63.2957 209.486 63.627C209.598 63.9583 209.752 64.236 209.948 64.46C210.144 64.6793 210.378 64.845 210.648 64.957C210.919 65.0643 211.222 65.118 211.558 65.118C211.871 65.118 212.139 65.083 212.363 65.013C212.592 64.9383 212.788 64.859 212.951 64.775C213.115 64.691 213.25 64.614 213.357 64.544C213.469 64.4693 213.565 64.432 213.644 64.432C213.747 64.432 213.826 64.4717 213.882 64.551L214.232 65.006ZM218.598 65.125C219.064 65.125 219.433 65.0177 219.704 64.803C219.974 64.5837 220.11 64.285 220.11 63.907C220.11 63.739 220.084 63.5873 220.033 63.452C219.981 63.312 219.897 63.1907 219.781 63.088C219.664 62.9853 219.508 62.906 219.312 62.85C219.12 62.794 218.885 62.766 218.605 62.766H217.072V65.125H218.598ZM217.072 59.749V61.975H218.437C218.642 61.975 218.831 61.947 219.004 61.891C219.181 61.8303 219.333 61.7487 219.459 61.646C219.585 61.5387 219.683 61.4127 219.753 61.268C219.823 61.1187 219.858 60.9553 219.858 60.778C219.858 60.6473 219.834 60.5213 219.788 60.4C219.741 60.274 219.662 60.1643 219.55 60.071C219.438 59.973 219.291 59.896 219.109 59.84C218.927 59.7793 218.703 59.749 218.437 59.749H217.072ZM218.472 58.909C218.91 58.909 219.286 58.9533 219.599 59.042C219.911 59.1307 220.168 59.252 220.369 59.406C220.569 59.5553 220.716 59.7327 220.81 59.938C220.903 60.1433 220.95 60.3627 220.95 60.596C220.95 60.75 220.929 60.911 220.887 61.079C220.845 61.247 220.77 61.408 220.663 61.562C220.56 61.716 220.418 61.856 220.236 61.982C220.058 62.1033 219.834 62.199 219.564 62.269C220.105 62.3623 220.523 62.5513 220.817 62.836C221.111 63.116 221.258 63.487 221.258 63.949C221.258 64.2943 221.188 64.5953 221.048 64.852C220.912 65.104 220.723 65.3163 220.481 65.489C220.243 65.6617 219.963 65.79 219.641 65.874C219.319 65.958 218.973 66 218.605 66H215.875V58.909H218.472Z" fill="white"/>
<path d="M64.9842 25.5585V17.9683H63.054V16.0903H74.0928V17.9683H72.3049V29.7132L79.0859 34.5725V39.6787L74.0833 36.7403L74.0928 55.0691L74.0833 70.4404H49.4988H24.9142V55.0596L24.9142 36.7403L19.8115 39.6787V34.5725L49.4988 12.8933L64.9842 25.5585Z" fill="white"/>
<path fill-rule="evenodd" clip-rule="evenodd" d="M73.8995 66.2638L19.8713 27.0312L30.0912 12.9723L84.1194 52.2049L73.8995 66.2638Z" fill="#00ADB5"/>
<path fill-rule="evenodd" clip-rule="evenodd" d="M58.2815 51.7836L27.4028 28.9205L37.2403 21.7377L62.9466 42.3066C63.7241 46.0771 63.7241 48.7991 62.9466 50.4724C62.1691 52.1457 60.6141 52.5828 58.2815 51.7836Z" fill="url(#paint0_linear_1560_15597)"/>
<path fill-rule="evenodd" clip-rule="evenodd" d="M58.2814 51.7835C59.0712 51.851 59.5812 51.8774 59.8114 51.8628C62.8128 51.6725 62.5878 49.4125 59.1365 45.0827L66.4779 36.4903C69.6311 38.993 70.9622 41.0476 70.4712 42.6542C69.658 45.3145 63.8187 53.1754 61.792 52.9856C61.3827 52.9473 60.2125 52.5466 58.2814 51.7835Z" fill="url(#paint1_linear_1560_15597)"/>
<defs>
<linearGradient id="paint0_linear_1560_15597" x1="-2788.17" y1="-2754.21" x2="240.423" y2="-553.812" gradientUnits="userSpaceOnUse">
<stop stop-color="#EBB313"/>
<stop offset="1" stop-color="#FF449F"/>
</linearGradient>
<linearGradient id="paint1_linear_1560_15597" x1="-97.6718" y1="-1109.03" x2="521.709" y2="-675.339" gradientUnits="userSpaceOnUse">
<stop stop-color="#EBB313"/>
<stop offset="1" stop-color="#F57F55"/>
</linearGradient>
</defs>
</svg>
