<svg width="291" height="81" viewBox="0 0 291 81" fill="none" xmlns="http://www.w3.org/2000/svg">
    <path d="M43.8701 38.925C43.8701 41.575 43.4285 44.0333 42.5451 46.3C41.6785 48.55 40.4451 50.5 38.8451 52.15C37.2451 53.8 35.3201 55.0917 33.0701 56.025C30.8201 56.9417 28.3201 57.4 25.5701 57.4C22.8368 57.4 20.3451 56.9417 18.0951 56.025C15.8451 55.0917 13.9118 53.8 12.2951 52.15C10.6951 50.5 9.45345 48.55 8.57012 46.3C7.68678 44.0333 7.24512 41.575 7.24512 38.925C7.24512 36.275 7.68678 33.825 8.57012 31.575C9.45345 29.3083 10.6951 27.35 12.2951 25.7C13.9118 24.05 15.8451 22.7667 18.0951 21.85C20.3451 20.9167 22.8368 20.45 25.5701 20.45C27.4035 20.45 29.1285 20.6667 30.7451 21.1C32.3618 21.5167 33.8451 22.1167 35.1951 22.9C36.5451 23.6667 37.7535 24.6083 38.8201 25.725C39.9035 26.825 40.8201 28.0583 41.5701 29.425C42.3201 30.7917 42.8868 32.275 43.2701 33.875C43.6701 35.475 43.8701 37.1583 43.8701 38.925ZM36.9951 38.925C36.9951 36.9417 36.7285 35.1667 36.1951 33.6C35.6618 32.0167 34.9035 30.675 33.9201 29.575C32.9368 28.475 31.7368 27.6333 30.3201 27.05C28.9201 26.4667 27.3368 26.175 25.5701 26.175C23.8035 26.175 22.2118 26.4667 20.7951 27.05C19.3951 27.6333 18.1951 28.475 17.1951 29.575C16.2118 30.675 15.4535 32.0167 14.9201 33.6C14.3868 35.1667 14.1201 36.9417 14.1201 38.925C14.1201 40.9083 14.3868 42.6917 14.9201 44.275C15.4535 45.8417 16.2118 47.175 17.1951 48.275C18.1951 49.3583 19.3951 50.1917 20.7951 50.775C22.2118 51.3583 23.8035 51.65 25.5701 51.65C27.3368 51.65 28.9201 51.3583 30.3201 50.775C31.7368 50.1917 32.9368 49.3583 33.9201 48.275C34.9035 47.175 35.6618 45.8417 36.1951 44.275C36.7285 42.6917 36.9951 40.9083 36.9951 38.925ZM132.884 38.925C132.884 41.575 132.442 44.0333 131.559 46.3C130.692 48.55 129.459 50.5 127.859 52.15C126.259 53.8 124.334 55.0917 122.084 56.025C119.834 56.9417 117.334 57.4 114.584 57.4C111.85 57.4 109.359 56.9417 107.109 56.025C104.859 55.0917 102.925 53.8 101.309 52.15C99.7088 50.5 98.4671 48.55 97.5838 46.3C96.7005 44.0333 96.2588 41.575 96.2588 38.925C96.2588 36.275 96.7005 33.825 97.5838 31.575C98.4671 29.3083 99.7088 27.35 101.309 25.7C102.925 24.05 104.859 22.7667 107.109 21.85C109.359 20.9167 111.85 20.45 114.584 20.45C116.417 20.45 118.142 20.6667 119.759 21.1C121.375 21.5167 122.859 22.1167 124.209 22.9C125.559 23.6667 126.767 24.6083 127.834 25.725C128.917 26.825 129.834 28.0583 130.584 29.425C131.334 30.7917 131.9 32.275 132.284 33.875C132.684 35.475 132.884 37.1583 132.884 38.925ZM126.009 38.925C126.009 36.9417 125.742 35.1667 125.209 33.6C124.675 32.0167 123.917 30.675 122.934 29.575C121.95 28.475 120.75 27.6333 119.334 27.05C117.934 26.4667 116.35 26.175 114.584 26.175C112.817 26.175 111.225 26.4667 109.809 27.05C108.409 27.6333 107.209 28.475 106.209 29.575C105.225 30.675 104.467 32.0167 103.934 33.6C103.4 35.1667 103.134 36.9417 103.134 38.925C103.134 40.9083 103.4 42.6917 103.934 44.275C104.467 45.8417 105.225 47.175 106.209 48.275C107.209 49.3583 108.409 50.1917 109.809 50.775C111.225 51.3583 112.817 51.65 114.584 51.65C116.35 51.65 117.934 51.3583 119.334 50.775C120.75 50.1917 121.95 49.3583 122.934 48.275C123.917 47.175 124.675 45.8417 125.209 44.275C125.742 42.6917 126.009 40.9083 126.009 38.925ZM207.99 57H201.89C201.257 57 200.723 56.8333 200.29 56.5C199.873 56.1667 199.482 55.675 199.115 55.025L191.415 42.875C191.215 42.525 190.998 42.2417 190.765 42.025C190.548 41.7917 190.307 41.6083 190.04 41.475C189.79 41.325 189.498 41.225 189.165 41.175C188.848 41.125 188.482 41.1 188.065 41.1H184.04V57H177.315V20.85H184.04V36H187.44C188.123 36 188.715 35.8833 189.215 35.65C189.715 35.4167 190.182 34.9833 190.615 34.35L198.54 22.65C198.873 22.1167 199.265 21.6833 199.715 21.35C200.165 21.0167 200.707 20.85 201.34 20.85H207.09L197.265 35.35C196.848 35.9833 196.365 36.5083 195.815 36.925C195.265 37.3417 194.657 37.6667 193.99 37.9C194.99 38.1833 195.832 38.6333 196.515 39.25C197.215 39.85 197.882 40.6833 198.515 41.75L207.99 57ZM242.604 20.85V57H235.854V34.35C235.854 33.5 235.871 32.6083 235.904 31.675C235.954 30.7417 236.054 29.75 236.204 28.7C235.871 29.6333 235.504 30.5 235.104 31.3C234.721 32.0833 234.346 32.775 233.979 33.375L220.154 54.925C220.004 55.175 219.821 55.425 219.604 55.675C219.404 55.925 219.179 56.15 218.929 56.35C218.679 56.5333 218.404 56.6917 218.104 56.825C217.804 56.9417 217.496 57 217.179 57H212.129V20.85H218.879V43.5C218.879 44.35 218.854 45.25 218.804 46.2C218.771 47.1333 218.679 48.125 218.529 49.175C218.863 48.2417 219.221 47.375 219.604 46.575C220.004 45.775 220.396 45.075 220.779 44.475L234.579 22.925C234.729 22.675 234.904 22.425 235.104 22.175C235.321 21.925 235.554 21.7083 235.804 21.525C236.054 21.325 236.321 21.1667 236.604 21.05C236.904 20.9167 237.221 20.85 237.554 20.85H242.604Z" fill="white"/>
    <path d="M169.265 20.85V57H162.515V34.35C162.515 33.5 162.531 32.6083 162.565 31.675C162.615 30.7417 162.715 29.75 162.865 28.7C162.531 29.6333 162.165 30.5 161.765 31.3C161.381 32.0833 161.006 32.775 160.64 33.375L146.815 54.925C146.665 55.175 146.481 55.425 146.265 55.675C146.065 55.925 145.84 56.15 145.59 56.35C145.34 56.5333 145.065 56.6917 144.765 56.825C144.465 56.9417 144.156 57 143.84 57H138.79V20.85H145.54V43.5C145.54 44.35 145.515 45.25 145.465 46.2C145.431 47.1333 145.34 48.125 145.19 49.175C145.523 48.2417 145.881 47.375 146.265 46.575C146.665 45.775 147.056 45.075 147.44 44.475L161.24 22.925C161.39 22.675 161.565 22.425 161.765 22.175C161.981 21.925 162.215 21.7083 162.465 21.525C162.715 21.325 162.981 21.1667 163.265 21.05C163.565 20.9167 163.881 20.85 164.215 20.85H169.265Z" fill="#EBB313"/>
    <path d="M102.605 68.872V77H101.317V71.616C101.317 71.4667 101.325 71.3013 101.341 71.12C101.363 70.9333 101.389 70.76 101.421 70.6L98.6053 75.536C98.5626 75.616 98.5066 75.68 98.4373 75.728C98.368 75.776 98.288 75.8 98.1973 75.8H98.0373C97.9466 75.8 97.864 75.776 97.7893 75.728C97.72 75.68 97.664 75.616 97.6213 75.536L94.7573 70.584C94.784 70.744 94.808 70.92 94.8293 71.112C94.8506 71.2987 94.8613 71.4667 94.8613 71.616V77H93.5733V68.872H94.7173C94.8186 68.872 94.9173 68.896 95.0133 68.944C95.1093 68.9867 95.192 69.0693 95.2613 69.192L97.7893 73.416C97.912 73.6613 98.0213 73.92 98.1173 74.192C98.208 73.9093 98.3146 73.6507 98.4373 73.416L100.917 69.192C100.987 69.064 101.069 68.9787 101.165 68.936C101.261 68.8933 101.36 68.872 101.461 68.872H102.605ZM109.247 73.352C108.591 73.3733 108.031 73.4267 107.567 73.512C107.108 73.592 106.732 73.6987 106.439 73.832C106.151 73.9653 105.94 74.1227 105.807 74.304C105.679 74.4853 105.615 74.688 105.615 74.912C105.615 75.1253 105.649 75.3093 105.719 75.464C105.788 75.6187 105.881 75.7467 105.999 75.848C106.121 75.944 106.263 76.016 106.423 76.064C106.588 76.1067 106.764 76.128 106.951 76.128C107.201 76.128 107.431 76.104 107.639 76.056C107.847 76.0027 108.041 75.928 108.223 75.832C108.409 75.736 108.585 75.6213 108.751 75.488C108.921 75.3547 109.087 75.2027 109.247 75.032V73.352ZM104.647 70.04C105.095 69.608 105.577 69.2853 106.095 69.072C106.612 68.8587 107.185 68.752 107.815 68.752C108.268 68.752 108.671 68.8267 109.023 68.976C109.375 69.1253 109.671 69.3333 109.911 69.6C110.151 69.8667 110.332 70.1893 110.455 70.568C110.577 70.9467 110.639 71.3627 110.639 71.816V77H110.007C109.868 77 109.761 76.9787 109.687 76.936C109.612 76.888 109.553 76.7973 109.511 76.664L109.351 75.896C109.137 76.0933 108.929 76.2693 108.727 76.424C108.524 76.5733 108.311 76.7013 108.087 76.808C107.863 76.9093 107.623 76.9867 107.367 77.04C107.116 77.0987 106.836 77.128 106.527 77.128C106.212 77.128 105.916 77.0853 105.639 77C105.361 76.9093 105.119 76.776 104.911 76.6C104.708 76.424 104.545 76.2027 104.423 75.936C104.305 75.664 104.247 75.344 104.247 74.976C104.247 74.656 104.335 74.3493 104.511 74.056C104.687 73.7573 104.972 73.4933 105.367 73.264C105.761 73.0347 106.276 72.848 106.911 72.704C107.545 72.5547 108.324 72.4693 109.247 72.448V71.816C109.247 71.1867 109.111 70.712 108.839 70.392C108.567 70.0667 108.169 69.904 107.647 69.904C107.295 69.904 106.999 69.9493 106.759 70.04C106.524 70.1253 106.319 70.224 106.143 70.336C105.972 70.4427 105.823 70.5413 105.695 70.632C105.572 70.7173 105.449 70.76 105.327 70.76C105.231 70.76 105.148 70.736 105.079 70.688C105.009 70.6347 104.951 70.5707 104.903 70.496L104.647 70.04ZM118.064 69.984H114.24V77H112.808V68.896H118.064V69.984ZM123.715 73.352C123.059 73.3733 122.499 73.4267 122.035 73.512C121.577 73.592 121.201 73.6987 120.907 73.832C120.619 73.9653 120.409 74.1227 120.275 74.304C120.147 74.4853 120.083 74.688 120.083 74.912C120.083 75.1253 120.118 75.3093 120.187 75.464C120.257 75.6187 120.35 75.7467 120.467 75.848C120.59 75.944 120.731 76.016 120.891 76.064C121.057 76.1067 121.233 76.128 121.419 76.128C121.67 76.128 121.899 76.104 122.107 76.056C122.315 76.0027 122.51 75.928 122.691 75.832C122.878 75.736 123.054 75.6213 123.219 75.488C123.39 75.3547 123.555 75.2027 123.715 75.032V73.352ZM119.115 70.04C119.563 69.608 120.046 69.2853 120.563 69.072C121.081 68.8587 121.654 68.752 122.283 68.752C122.737 68.752 123.139 68.8267 123.491 68.976C123.843 69.1253 124.139 69.3333 124.379 69.6C124.619 69.8667 124.801 70.1893 124.923 70.568C125.046 70.9467 125.107 71.3627 125.107 71.816V77H124.475C124.337 77 124.23 76.9787 124.155 76.936C124.081 76.888 124.022 76.7973 123.979 76.664L123.819 75.896C123.606 76.0933 123.398 76.2693 123.195 76.424C122.993 76.5733 122.779 76.7013 122.555 76.808C122.331 76.9093 122.091 76.9867 121.835 77.04C121.585 77.0987 121.305 77.128 120.995 77.128C120.681 77.128 120.385 77.0853 120.107 77C119.83 76.9093 119.587 76.776 119.379 76.6C119.177 76.424 119.014 76.2027 118.891 75.936C118.774 75.664 118.715 75.344 118.715 74.976C118.715 74.656 118.803 74.3493 118.979 74.056C119.155 73.7573 119.441 73.4933 119.835 73.264C120.23 73.0347 120.745 72.848 121.379 72.704C122.014 72.5547 122.793 72.4693 123.715 72.448V71.816C123.715 71.1867 123.579 70.712 123.307 70.392C123.035 70.0667 122.638 69.904 122.115 69.904C121.763 69.904 121.467 69.9493 121.227 70.04C120.993 70.1253 120.787 70.224 120.611 70.336C120.441 70.4427 120.291 70.5413 120.163 70.632C120.041 70.7173 119.918 70.76 119.795 70.76C119.699 70.76 119.617 70.736 119.547 70.688C119.478 70.6347 119.419 70.5707 119.371 70.496L119.115 70.04ZM126.764 69.728C127.068 69.44 127.436 69.208 127.868 69.032C128.306 68.856 128.831 68.768 129.444 68.768C129.935 68.768 130.367 68.8293 130.74 68.952C131.114 69.0693 131.426 69.2267 131.676 69.424C131.932 69.6213 132.124 69.848 132.252 70.104C132.386 70.3547 132.452 70.616 132.452 70.888C132.452 71.048 132.426 71.216 132.372 71.392C132.324 71.568 132.242 71.736 132.124 71.896C132.007 72.056 131.855 72.2053 131.668 72.344C131.482 72.4827 131.25 72.5947 130.972 72.68C131.49 72.8347 131.895 73.0827 132.188 73.424C132.487 73.7653 132.636 74.184 132.636 74.68C132.636 75.0533 132.551 75.392 132.38 75.696C132.21 75.9947 131.98 76.2507 131.692 76.464C131.404 76.672 131.068 76.832 130.684 76.944C130.306 77.056 129.908 77.112 129.492 77.112C129.231 77.112 128.964 77.088 128.692 77.04C128.426 76.992 128.164 76.9173 127.908 76.816C127.652 76.7093 127.41 76.5787 127.18 76.424C126.956 76.2693 126.756 76.0827 126.58 75.864L126.98 75.344C127.044 75.2533 127.135 75.208 127.252 75.208C127.348 75.208 127.45 75.2507 127.556 75.336C127.668 75.416 127.804 75.5067 127.964 75.608C128.124 75.7093 128.319 75.8027 128.548 75.888C128.783 75.968 129.068 76.008 129.404 76.008C129.698 76.008 129.959 75.9733 130.188 75.904C130.423 75.8293 130.62 75.728 130.78 75.6C130.94 75.472 131.063 75.32 131.148 75.144C131.234 74.968 131.276 74.776 131.276 74.568C131.276 74.168 131.108 73.8453 130.772 73.6C130.442 73.3547 129.938 73.232 129.26 73.232H128.34V72.288H129.26C129.554 72.288 129.818 72.2587 130.052 72.2C130.287 72.136 130.487 72.0507 130.652 71.944C130.818 71.8373 130.943 71.7093 131.028 71.56C131.114 71.4053 131.156 71.24 131.156 71.064C131.156 70.904 131.119 70.752 131.044 70.608C130.975 70.464 130.866 70.3387 130.716 70.232C130.572 70.1253 130.391 70.04 130.172 69.976C129.954 69.912 129.698 69.88 129.404 69.88C129.084 69.88 128.812 69.912 128.588 69.976C128.37 70.04 128.183 70.1093 128.028 70.184C127.879 70.2587 127.756 70.328 127.66 70.392C127.564 70.456 127.482 70.488 127.412 70.488C127.343 70.488 127.284 70.4747 127.236 70.448C127.194 70.4213 127.146 70.3653 127.092 70.28L126.764 69.728ZM141.416 68.896V77H139.992V71.496C139.992 71.3893 139.997 71.2747 140.008 71.152C140.019 71.0293 140.032 70.9067 140.048 70.784C140 70.8907 139.952 70.9893 139.904 71.08C139.856 71.1707 139.805 71.2533 139.752 71.328L135.84 76.648C135.781 76.7333 135.707 76.816 135.616 76.896C135.531 76.9707 135.435 77.008 135.328 77.008H134.464V68.904H135.896V74.408C135.896 74.5093 135.891 74.6213 135.88 74.744C135.869 74.8613 135.856 74.9813 135.84 75.104C135.888 75.0027 135.936 74.9093 135.984 74.824C136.032 74.7333 136.08 74.6507 136.128 74.576L140.04 69.256C140.099 69.1707 140.173 69.0907 140.264 69.016C140.355 68.936 140.453 68.896 140.56 68.896H141.416ZM150.419 68.896V77H148.987V73.208H145.099V77H143.667V68.896H145.099V72.128H148.987V68.896H150.419ZM160.192 68.768C160.784 68.768 161.318 68.8667 161.792 69.064C162.267 69.2613 162.672 69.5413 163.008 69.904C163.344 70.2667 163.6 70.7067 163.776 71.224C163.958 71.736 164.048 72.3093 164.048 72.944C164.048 73.584 163.958 74.16 163.776 74.672C163.6 75.184 163.344 75.6213 163.008 75.984C162.672 76.3467 162.267 76.6267 161.792 76.824C161.318 77.016 160.784 77.112 160.192 77.112C159.595 77.112 159.056 77.016 158.576 76.824C158.102 76.6267 157.696 76.3467 157.36 75.984C157.024 75.6213 156.766 75.184 156.584 74.672C156.408 74.16 156.32 73.584 156.32 72.944C156.32 72.3093 156.408 71.736 156.584 71.224C156.766 70.7067 157.024 70.2667 157.36 69.904C157.696 69.5413 158.102 69.2613 158.576 69.064C159.056 68.8667 159.595 68.768 160.192 68.768ZM160.192 76C160.992 76 161.59 75.7333 161.984 75.2C162.379 74.6613 162.576 73.912 162.576 72.952C162.576 71.9867 162.379 71.2347 161.984 70.696C161.59 70.1573 160.992 69.888 160.192 69.888C159.787 69.888 159.432 69.9573 159.128 70.096C158.83 70.2347 158.579 70.4347 158.376 70.696C158.179 70.9573 158.03 71.28 157.928 71.664C157.832 72.0427 157.784 72.472 157.784 72.952C157.784 73.912 157.982 74.6613 158.376 75.2C158.776 75.7333 159.382 76 160.192 76ZM169.511 76.056C170.311 76.056 170.913 75.8027 171.319 75.296C171.729 74.784 171.935 74.0693 171.935 73.152C171.935 72.24 171.737 71.528 171.343 71.016C170.953 70.504 170.367 70.248 169.583 70.248C169.204 70.248 168.863 70.3093 168.559 70.432C168.255 70.5493 167.996 70.7227 167.783 70.952C167.575 71.1813 167.412 71.464 167.295 71.8C167.183 72.136 167.127 72.52 167.127 72.952C167.127 73.4373 167.177 73.872 167.279 74.256C167.38 74.64 167.529 74.9653 167.727 75.232C167.929 75.4987 168.177 75.704 168.471 75.848C168.769 75.9867 169.116 76.056 169.511 76.056ZM170.063 66.992C169.519 67.04 169.052 67.16 168.663 67.352C168.279 67.544 167.959 67.8053 167.703 68.136C167.447 68.4613 167.255 68.8533 167.127 69.312C166.999 69.7707 166.924 70.288 166.903 70.864C167.031 70.608 167.196 70.3787 167.399 70.176C167.601 69.968 167.833 69.792 168.095 69.648C168.356 69.4987 168.639 69.3867 168.943 69.312C169.252 69.232 169.58 69.192 169.927 69.192C170.465 69.192 170.948 69.288 171.375 69.48C171.807 69.6667 172.172 69.9333 172.471 70.28C172.775 70.6267 173.007 71.0453 173.167 71.536C173.327 72.0213 173.407 72.56 173.407 73.152C173.407 73.7547 173.313 74.3013 173.127 74.792C172.945 75.2773 172.684 75.6933 172.343 76.04C172.001 76.3813 171.591 76.6453 171.111 76.832C170.636 77.0187 170.103 77.112 169.511 77.112C168.967 77.112 168.457 77.0213 167.983 76.84C167.508 76.6587 167.097 76.36 166.751 75.944C166.404 75.528 166.129 74.9813 165.927 74.304C165.729 73.6213 165.631 72.7813 165.631 71.784C165.631 70.9307 165.708 70.1467 165.863 69.432C166.017 68.7173 166.265 68.096 166.607 67.568C166.953 67.04 167.399 66.616 167.943 66.296C168.492 65.9707 169.159 65.7733 169.943 65.704L172.839 65.456L172.919 66.192C172.935 66.3573 172.911 66.496 172.847 66.608C172.783 66.72 172.668 66.7813 172.503 66.792L170.063 66.992ZM178.63 68.768C179.222 68.768 179.755 68.8667 180.23 69.064C180.705 69.2613 181.11 69.5413 181.446 69.904C181.782 70.2667 182.038 70.7067 182.214 71.224C182.395 71.736 182.486 72.3093 182.486 72.944C182.486 73.584 182.395 74.16 182.214 74.672C182.038 75.184 181.782 75.6213 181.446 75.984C181.11 76.3467 180.705 76.6267 180.23 76.824C179.755 77.016 179.222 77.112 178.63 77.112C178.033 77.112 177.494 77.016 177.014 76.824C176.539 76.6267 176.134 76.3467 175.798 75.984C175.462 75.6213 175.203 75.184 175.022 74.672C174.846 74.16 174.758 73.584 174.758 72.944C174.758 72.3093 174.846 71.736 175.022 71.224C175.203 70.7067 175.462 70.2667 175.798 69.904C176.134 69.5413 176.539 69.2613 177.014 69.064C177.494 68.8667 178.033 68.768 178.63 68.768ZM178.63 76C179.43 76 180.027 75.7333 180.422 75.2C180.817 74.6613 181.014 73.912 181.014 72.952C181.014 71.9867 180.817 71.2347 180.422 70.696C180.027 70.1573 179.43 69.888 178.63 69.888C178.225 69.888 177.87 69.9573 177.566 70.096C177.267 70.2347 177.017 70.4347 176.814 70.696C176.617 70.9573 176.467 71.28 176.366 71.664C176.27 72.0427 176.222 72.472 176.222 72.952C176.222 73.912 176.419 74.6613 176.814 75.2C177.214 75.7333 177.819 76 178.63 76ZM189.716 72.064C189.716 71.7333 189.668 71.432 189.572 71.16C189.481 70.8827 189.345 70.6453 189.164 70.448C188.988 70.2453 188.772 70.0907 188.516 69.984C188.26 69.872 187.969 69.816 187.644 69.816C186.961 69.816 186.42 70.016 186.02 70.416C185.625 70.8107 185.38 71.36 185.284 72.064H189.716ZM190.868 75.864C190.692 76.0773 190.481 76.264 190.236 76.424C189.991 76.5787 189.727 76.7067 189.444 76.808C189.167 76.9093 188.879 76.984 188.58 77.032C188.281 77.0853 187.985 77.112 187.692 77.112C187.132 77.112 186.615 77.0187 186.14 76.832C185.671 76.64 185.263 76.3627 184.916 76C184.575 75.632 184.308 75.1787 184.116 74.64C183.924 74.1013 183.828 73.4827 183.828 72.784C183.828 72.2187 183.913 71.6907 184.084 71.2C184.26 70.7093 184.511 70.2853 184.836 69.928C185.161 69.5653 185.559 69.2827 186.028 69.08C186.497 68.872 187.025 68.768 187.612 68.768C188.097 68.768 188.545 68.8507 188.956 69.016C189.372 69.176 189.729 69.4107 190.028 69.72C190.332 70.024 190.569 70.4027 190.74 70.856C190.911 71.304 190.996 71.816 190.996 72.392C190.996 72.616 190.972 72.7653 190.924 72.84C190.876 72.9147 190.785 72.952 190.652 72.952H185.236C185.252 73.464 185.321 73.9093 185.444 74.288C185.572 74.6667 185.748 74.984 185.972 75.24C186.196 75.4907 186.463 75.68 186.772 75.808C187.081 75.9307 187.428 75.992 187.812 75.992C188.169 75.992 188.476 75.952 188.732 75.872C188.993 75.7867 189.217 75.696 189.404 75.6C189.591 75.504 189.745 75.416 189.868 75.336C189.996 75.2507 190.105 75.208 190.196 75.208C190.313 75.208 190.404 75.2533 190.468 75.344L190.868 75.864ZM195.857 76C196.391 76 196.812 75.8773 197.121 75.632C197.431 75.3813 197.585 75.04 197.585 74.608C197.585 74.416 197.556 74.2427 197.497 74.088C197.439 73.928 197.343 73.7893 197.209 73.672C197.076 73.5547 196.897 73.464 196.673 73.4C196.455 73.336 196.185 73.304 195.865 73.304H194.113V76H195.857ZM194.113 69.856V72.4H195.673C195.908 72.4 196.124 72.368 196.321 72.304C196.524 72.2347 196.697 72.1413 196.841 72.024C196.985 71.9013 197.097 71.7573 197.177 71.592C197.257 71.4213 197.297 71.2347 197.297 71.032C197.297 70.8827 197.271 70.7387 197.217 70.6C197.164 70.456 197.073 70.3307 196.945 70.224C196.817 70.112 196.649 70.024 196.441 69.96C196.233 69.8907 195.977 69.856 195.673 69.856H194.113ZM195.713 68.896C196.215 68.896 196.644 68.9467 197.001 69.048C197.359 69.1493 197.652 69.288 197.881 69.464C198.111 69.6347 198.279 69.8373 198.385 70.072C198.492 70.3067 198.545 70.5573 198.545 70.824C198.545 71 198.521 71.184 198.473 71.376C198.425 71.568 198.34 71.752 198.217 71.928C198.1 72.104 197.937 72.264 197.729 72.408C197.527 72.5467 197.271 72.656 196.961 72.736C197.58 72.8427 198.057 73.0587 198.393 73.384C198.729 73.704 198.897 74.128 198.897 74.656C198.897 75.0507 198.817 75.3947 198.657 75.688C198.503 75.976 198.287 76.2187 198.009 76.416C197.737 76.6133 197.417 76.76 197.049 76.856C196.681 76.952 196.287 77 195.865 77H192.745V68.896H195.713Z" fill="white"/>
    <path d="M163.891 9.18183V5.09094C163.214 6.01993 162.174 6.72624 160.945 7.09094C159.083 7.86762 157.028 8.27223 154.945 8.27274C153.262 8.28053 151.596 7.99318 150.055 7.42935C148.514 6.86552 147.132 6.03779 146 5V9.90909C148.385 11.8704 151.595 12.9793 154.945 13C158.655 13 163.345 11.4545 164 9.18183" fill="#EBB313"/>
    <path d="M70.2094 58.9732C78.8005 59.064 89.1315 52.604 88.2627 40.4305C87.9545 36.0906 86.1728 32.0586 82.8388 29.0967C76.9469 23.8551 67.6909 24.1785 62.2114 29.8144C59.927 32.1649 58.7361 35.2266 58.8589 38.4345C58.977 41.6401 60.3996 44.6109 62.8578 46.7953C64.9848 48.685 67.7326 49.6797 70.6542 49.5712C73.5573 49.4692 76.2449 48.2929 78.2212 46.2592C80.04 44.3894 80.6748 41.7287 79.9195 39.139C79.1526 36.5049 77.0975 34.4977 74.4169 33.7667C73.1843 33.4299 71.815 33.2438 71.4651 34.418C71.113 35.5944 72.3456 36.095 73.9743 37.1872C75.9043 38.481 76.9678 40.8802 74.827 43.2418C73.7357 44.447 72.1509 45.0828 70.4874 45.1426C68.8262 45.1936 67.2322 44.6353 66.0112 43.5498C64.4635 42.1718 63.5645 40.2954 63.488 38.2705C63.4093 36.2479 64.1646 34.3161 65.6057 32.8318C69.3452 28.9837 75.6611 28.7621 79.6855 32.3422C82.109 34.4977 83.513 37.4265 83.6312 40.59C83.754 43.7558 82.577 46.7731 80.3227 49.0926C77.5377 51.9571 73.7542 53.612 69.6672 53.756C65.5802 53.9111 61.6785 52.511 58.6828 49.8459C55.0059 46.576 52.879 42.1297 52.6936 37.3312C52.5106 32.5327 54.2946 27.9513 57.7143 24.4355C66.3448 15.5563 77.642 13.465 89.3238 20.2041C91.0916 21.2232 92.5698 22.7208 93.5707 21.9565C94.0549 21.5887 94.3005 20.8909 93.3622 20.0579C82.2063 10.1375 64.6882 10.7511 54.3224 21.4182C50.0593 25.8002 47.5593 31.5247 48.0644 37.4951C49.6469 56.1109 63.2587 59.341 70.2094 58.9732Z" fill="#FF449F"/>
    <path d="M266.313 20.0233C273.783 19.9443 282.767 25.5617 282.011 36.1474C281.743 39.9212 280.194 43.4273 277.295 46.0029C272.171 50.5608 264.123 50.2795 259.358 45.3787C257.371 43.3348 256.336 40.6725 256.443 37.8831C256.545 35.0956 257.782 32.5122 259.92 30.6128C261.769 28.9696 264.159 28.1046 266.699 28.199C269.224 28.2876 271.561 29.3105 273.279 31.079C274.861 32.7049 275.413 35.0185 274.756 37.2705C274.089 39.561 272.302 41.3063 269.971 41.942C268.899 42.2348 267.709 42.3967 267.404 41.3757C267.098 40.3527 268.17 39.9174 269.586 38.9676C271.265 37.8426 272.189 35.7563 270.328 33.7028C269.379 32.6548 268.001 32.1019 266.554 32.0499C265.11 32.0056 263.724 32.491 262.662 33.435C261.316 34.6332 260.534 36.2649 260.468 38.0256C260.399 39.7844 261.056 41.4643 262.309 42.755C265.561 46.1012 271.053 46.2938 274.553 43.1807C276.66 41.3063 277.881 38.7596 277.984 36.0087C278.09 33.2558 277.067 30.6321 275.107 28.6151C272.685 26.1242 269.395 24.6852 265.841 24.56C262.287 24.4251 258.894 25.6426 256.289 27.9601C253.092 30.8035 251.243 34.6698 251.081 38.8424C250.922 43.015 252.474 46.9989 255.447 50.0561C262.952 57.7771 272.776 59.5957 282.934 53.7355C284.471 52.8494 285.756 51.5471 286.627 52.2117C287.048 52.5315 287.261 53.1383 286.445 53.8627C276.745 62.4892 261.511 61.9555 252.498 52.6799C248.791 48.8694 246.617 43.8916 247.056 38.6999C248.432 22.5122 260.268 19.7035 266.313 20.0233Z" fill="#EBB313"/>
</svg>