<svg width="1110px" height="503px" style="position: absolute; top: 0px; left: 0px; width: 1110px; height: 503px;" viewBox="-116.4246395806029 87.2346002621232 744.8492791612058 337.5307994757536" class="css-np3qrs">
<style>#editor_fb4igi13j_1 ._sw1{stroke-width:0.6710353866317169}#editor_fb4igi13j_1 ._sw2{stroke-width:1.3420707732634338}#editor_fb4igi13j_1 ._sd{stroke-dasharray:6.710 3.355}</style><defs><pattern id="o_fb4igi13j_4" x="0" y="0" width="21.47313237221494" height="21.47313237221494" patternUnits="userSpaceOnUse" class="css-1e1xezv">
<rect x="0" y="0" width="21.47313237221494" height="21.47313237221494">
</rect><circle cx="0" cy="0" r="1.0065530799475755">
</circle><circle cx="21.47313237221494" cy="0" r="1.0065530799475755">
</circle><circle cx="21.47313237221494" cy="21.47313237221494" r="1.0065530799475755">
</circle><circle cx="0" cy="21.47313237221494" r="1.0065530799475755">
</circle></pattern></defs><rect fill="url(#o_fb4igi13j_4)" stroke-width="0.6710353866317169" x="0" y="0" width="512" height="512" class="css-f3jo1l">
</rect><svg xmlns="http://www.w3.org/2000/svg" width="512" height="512" viewBox="0 0 512 512" style="overflow: visible;" data-bbox="104.77216345655131 220.23624864314334 349.7551799425098 86.19416938037998">
<rect data-uid="o_fb4igi13j_6" data-fl-background="" x="0" y="0" width="512" height="512" fill="#00adb5">
</rect><g transform="matrix(0.49613863229751587, 0, 0, 0.49613863229751587, 78.39089965820312, 172.66151428222656)" fill="#ffffff" stroke="none" stroke-width="1" data-uid="o_fb4igi13j_7">
<svg version="1.1" id="Calque_1" xmlns="http://www.w3.org/2000/svg" x="0px" y="0px" viewBox="0 0 360 360" enable-background="new 0 0 360 360" width="360" height="360" data-uid="o_fb4igi13j_8">
<g data-uid="o_fb4igi13j_9">
<path class="st0" d="M305.7 238.22l-52.65-60.78l35.23-45.39v63.8c0 2.77 2.24 5.01 5.02 5.01c2.77 0 5.01-2.25 5.01-5.01v-78.44
		c0-2.14-1.36-4.05-3.39-4.74c-2.03-0.69-4.27-0.02-5.59 1.67l-42.98 55.37l-62.51-72.17c-1.9-2.2-5.68-2.2-7.58 0l-62.51 72.17
		l-42.98-55.37c-1.31-1.69-3.56-2.36-5.59-1.67c-2.03 0.7-3.39 2.6-3.39 4.74v78.44c0 2.77 2.24 5.01 5.01 5.01
		c2.77 0 5.02-2.25 5.02-5.01v-63.8l35.23 45.39l-52.65 60.78c-1.29 1.48-1.59 3.58-0.77 5.37c0.82 1.79 2.6 2.93 4.56 2.93h104.93
		c1.91 0 3.66-1.09 4.5-2.81c0.84-1.72 0.63-3.77-0.54-5.28l-47.07-60.64l60.03-69.3l60.03 69.3l-47.07 60.64
		c-1.17 1.51-1.39 3.56-0.54 5.28c0.84 1.72 2.59 2.81 4.5 2.81h104.94c1.96 0 3.75-1.15 4.56-2.93
		C307.29 241.8 306.98 239.7 305.7 238.22z M152.9 236.49H69.18l44.15-50.97L152.9 236.49z M207.21 236.49l39.57-50.97l44.15 50.97
		H207.21z" fill="#ffffff" stroke="none" stroke-width="1" data-uid="o_fb4igi13j_10">
</path><path class="st0" fill="#ffffff" data-type="rect" data-x="183.8" data-y="161.61" data-width="14.84" data-height="14.84" d="M183.8 161.61H198.64000000000001 V176.45000000000002 H183.8 Z" stroke="none" stroke-width="1" data-uid="o_fb4igi13j_11">
</path><path class="st0" fill="#ffffff" data-type="rect" data-x="161.47" data-y="161.61" data-width="14.84" data-height="14.84" d="M161.47 161.61H176.31 V176.45000000000002 H161.47 Z" stroke="none" stroke-width="1" data-uid="o_fb4igi13j_12">
</path><path class="st0" fill="#ffffff" data-type="rect" data-x="183.8" data-y="182.64" data-width="14.84" data-height="14.84" d="M183.8 182.64H198.64000000000001 V197.48 H183.8 Z" stroke="none" stroke-width="1" data-uid="o_fb4igi13j_13">
</path><path class="st0" fill="#ffffff" data-type="rect" data-x="161.47" data-y="182.64" data-width="14.84" data-height="14.84" d="M161.47 182.64H176.31 V197.48 H161.47 Z" stroke="none" stroke-width="1" data-uid="o_fb4igi13j_14">
</path><path class="st0" d="M293.3 259.6H66.81c-2.77 0-5.01 2.24-5.01 5.01c0 2.77 2.24 5.01 5.01 5.01H293.3c2.77 0 5.01-2.24 5.01-5.01
		C298.32 261.84 296.07 259.6 293.3 259.6z" fill="#ffffff" stroke="none" stroke-width="1" data-uid="o_fb4igi13j_15">
</path></g></svg></g><path text="Обойкис" fill="#ffffff" space="preserve" text-anchor="middle" offset="0.5" font-scale="contain" font-size="48" font-family="Manrope" transform="matrix(0.922182023525238, 0, 0, 0.922182023525238, 355.2747497558594, 272.2994384765625)" data-fl-textpath="" font-style="normal" font-weight="700" letter-spacing="2" data-uid="o_fb4igi13j_16" d="M-91.112 0.72L-91.112 0.72Q-96.302 0.72 -99.992-1.55Q-103.692-3.82 -105.672-7.87Q-107.652-11.93 -107.652-17.28L-107.652-17.28Q-107.652-22.63 -105.672-26.69Q-103.692-30.74 -99.992-33.01Q-96.302-35.28 -91.112-35.28L-91.112-35.28Q-85.932-35.28 -82.222-33.01Q-78.512-30.74 -76.532-26.69Q-74.552-22.63 -74.552-17.28L-74.552-17.28Q-74.552-11.93 -76.532-7.87Q-78.512-3.82 -82.222-1.55Q-85.932 0.72 -91.112 0.72ZM-91.112-4.73L-91.112-4.73Q-87.632-4.7 -85.322-6.26Q-83.002-7.82 -81.842-10.66Q-80.672-13.49 -80.672-17.28L-80.672-17.28Q-80.672-21.07 -81.842-23.87Q-83.002-26.66 -85.322-28.22Q-87.632-29.78 -91.112-29.83L-91.112-29.83Q-94.592-29.86 -96.902-28.3Q-99.202-26.74 -100.372-23.9Q-101.532-21.07 -101.532-17.28L-101.532-17.28Q-101.532-13.49 -100.382-10.69Q-99.232-7.9 -96.912-6.34Q-94.592-4.78 -91.112-4.73ZM-56.976 0.77L-56.976 0.77Q-60.676 0.72 -63.266-0.89Q-65.856-2.5 -67.326-5.42Q-68.786-8.35 -69.096-12.34L-69.096-12.34Q-69.246-14.38 -69.126-16.9Q-69.006-19.42 -68.596-21.82Q-68.186-24.22 -67.466-25.9L-67.466-25.9Q-66.726-27.58 -65.526-29Q-64.326-30.43 -62.936-31.39L-62.936-31.39Q-61.346-32.5 -59.486-33.1Q-57.626-33.7 -55.586-34.02Q-53.546-34.34 -51.386-34.61Q-49.226-34.87 -47.116-35.28L-47.116-35.28L-46.586-30.17Q-47.936-29.83 -49.696-29.65Q-51.456-29.47 -53.346-29.26Q-55.226-29.04 -56.936-28.63Q-58.636-28.22 -59.886-27.43L-59.886-27.43Q-61.616-26.38 -62.526-24.41Q-63.436-22.44 -63.606-20.26L-63.606-20.26Q-62.116-22.46 -59.896-23.36Q-57.676-24.26 -55.396-24.26L-55.396-24.26Q-51.936-24.26 -49.456-22.63Q-46.976-21 -45.636-18.2Q-44.306-15.41 -44.306-11.98L-44.306-11.98Q-44.306-8.14 -45.916-5.26Q-47.526-2.38 -50.376-0.79Q-53.236 0.79 -56.976 0.77ZM-56.696-4.66L-56.696-4.66Q-53.576-4.66 -51.976-6.59Q-50.376-8.52 -50.376-11.74L-50.376-11.74Q-50.376-15.02 -52.026-16.92Q-53.666-18.82 -56.696-18.82L-56.696-18.82Q-59.766-18.82 -61.376-16.92Q-62.976-15.02 -62.976-11.74L-62.976-11.74Q-62.976-8.38 -61.346-6.52Q-59.716-4.66 -56.696-4.66ZM-25.578 0.72L-25.578 0.72Q-29.468 0.72 -32.368-1.03Q-35.278-2.78 -36.868-5.87Q-38.468-8.95 -38.468-12.96L-38.468-12.96Q-38.468-17.04 -36.838-20.11Q-35.208-23.18 -32.298-24.91Q-29.398-26.64 -25.578-26.64L-25.578-26.64Q-21.668-26.64 -18.768-24.89Q-15.858-23.14 -14.248-20.05Q-12.648-16.97 -12.648-12.96L-12.648-12.96Q-12.648-8.93 -14.268-5.84Q-15.888-2.76 -18.788-1.02Q-21.688 0.72 -25.578 0.72ZM-25.578-4.7L-25.578-4.7Q-22.128-4.7 -20.448-7.01Q-18.768-9.31 -18.768-12.96L-18.768-12.96Q-18.768-16.73 -20.468-18.97Q-22.168-21.22 -25.578-21.22L-25.578-21.22Q-27.908-21.22 -29.408-20.17Q-30.908-19.13 -31.628-17.27Q-32.348-15.41 -32.348-12.96L-32.348-12.96Q-32.348-9.19 -30.628-6.95Q-28.918-4.7 -25.578-4.7ZM 6.616-28.85L 6.616-28.85Q 4.616-28.85  2.966-29.83Q 1.306-30.82  0.326-32.46Q-0.664-34.1 -0.664-36.12L-0.664-36.12L 3.856-36.12Q 3.856-34.97  4.656-34.16Q 5.456-33.36  6.616-33.36L 6.616-33.36Q 7.766-33.36  8.566-34.16Q 9.376-34.97  9.376-36.12L 9.376-36.12L 13.886-36.12Q 13.886-34.1  12.896-32.46Q 11.916-30.82  10.256-29.83Q 8.606-28.85  6.616-28.85ZM 12.516-25.92L 17.096-25.92L 17.096 0L 11.556 0L 11.556-16.92L-0.784 0L-5.414 0L-5.414-25.92L 0.136-25.92L 0.136-9.43L 12.516-25.92ZM 31.68 0L 25.77 0L 25.82-25.92L 31.68-25.92L 31.68-13.44L 41.16-25.92L 48.38-25.92L 38.32-12.96L 49.24 0L 41.59 0L 31.68-12.48L 31.68 0ZM 71.524-25.92L 76.104-25.92L 76.104 0L 70.564 0L 70.564-16.92L 58.224 0L 53.594 0L 53.594-25.92L 59.144-25.92L 59.144-9.43L 71.524-25.92ZM 96.088 0.72L 96.088 0.72Q 92.078 0.72  89.248-1.07Q 86.408-2.86  84.908-5.95Q 83.408-9.05  83.388-12.96L 83.388-12.96Q 83.408-16.94  84.958-20.03Q 86.508-23.11  89.368-24.88Q 92.218-26.64  96.158-26.64L 96.158-26.64Q 100.568-26.64  103.628-24.42Q 106.688-22.2  107.628-18.36L 107.628-18.36L 101.868-16.8Q 101.198-18.89  99.638-20.05Q 98.078-21.22  96.088-21.22L 96.088-21.22Q 93.828-21.22  92.368-20.15Q 90.898-19.08  90.208-17.21Q 89.508-15.34  89.508-12.96L 89.508-12.96Q 89.508-9.26  91.168-6.98Q 92.818-4.7  96.088-4.7L 96.088-4.7Q 98.388-4.7  99.718-5.76Q 101.048-6.82  101.728-8.81L 101.728-8.81L 107.628-7.49Q 106.428-3.53  103.428-1.4Q 100.428 0.72  96.088 0.72Z">
</path><path text="Магазин обоев" fill="#ffffff" space="preserve" text-anchor="middle" offset="0.5" font-scale="contain" font-size="48" font-family="Manrope" transform="matrix(0.36240991950035095, 0, 0, 0.36240991950035095, 354.9164733886719, 296.96221923828125)" font-style="normal" font-weight="400" letter-spacing="4" data-fl-textpath="" data-uid="o_fb4igi13j_17" d="M-188.836 0L-192.216 0L-192.216-34.56L-188.976-34.56L-175.396-5.5L-161.876-34.56L-158.596-34.56L-158.596-0.02L-161.956-0.02L-161.956-26.69L-174.266 0L-176.546 0L-188.836-26.69L-188.836 0ZM-140.452 0.72L-140.452 0.72Q-143.382 0.72 -145.362-0.34Q-147.342-1.39 -148.332-3.14Q-149.312-4.9 -149.312-6.96L-149.312-6.96Q-149.312-9.07 -148.462-10.57Q-147.612-12.07 -146.132-13.03Q-144.652-13.99 -142.712-14.5L-142.712-14.5Q-140.742-14.98 -138.352-15.35Q-135.972-15.72 -133.672-16Q-131.382-16.27 -129.652-16.54L-129.652-16.54L-130.902-15.77Q-130.832-19.61 -132.392-21.46Q-133.952-23.3 -137.812-23.3L-137.812-23.3Q-140.482-23.3 -142.312-22.1Q-144.152-20.9 -144.892-18.31L-144.892-18.31L-148.332-19.32Q-147.442-22.8 -144.752-24.72Q-142.062-26.64 -137.772-26.64L-137.772-26.64Q-134.212-26.64 -131.732-25.31Q-129.252-23.98 -128.212-21.46L-128.212-21.46Q-127.732-20.33 -127.592-18.94Q-127.452-17.54 -127.452-16.1L-127.452-16.1L-127.452 0L-130.592 0L-130.592-6.5L-129.682-6.12Q-131.002-2.78 -133.782-1.03Q-136.572 0.72 -140.452 0.72ZM-140.052-2.33L-140.052-2.33Q-137.572-2.33 -135.732-3.22Q-133.882-4.1 -132.752-5.65Q-131.622-7.2 -131.292-9.14L-131.292-9.14Q-131.002-10.39 -130.972-11.89Q-130.952-13.39 -130.952-14.14L-130.952-14.14L-129.612-13.44Q-131.412-13.2 -133.512-12.96Q-135.612-12.72 -137.632-12.41Q-139.662-12.1 -141.292-11.66L-141.292-11.66Q-142.402-11.35 -143.432-10.79Q-144.462-10.22 -145.122-9.29Q-145.782-8.35 -145.782-6.96L-145.782-6.96Q-145.782-5.83 -145.222-4.78Q-144.652-3.72 -143.392-3.02Q-142.132-2.33 -140.052-2.33ZM-113.678 0L-117.208 0L-117.208-25.92L-99.448-25.92L-99.448-22.54L-113.678-22.54L-113.678 0ZM-84.428 0.72L-84.428 0.72Q-87.358 0.72 -89.338-0.34Q-91.318-1.39 -92.308-3.14Q-93.288-4.9 -93.288-6.96L-93.288-6.96Q-93.288-9.07 -92.438-10.57Q-91.588-12.07 -90.108-13.03Q-88.628-13.99 -86.688-14.5L-86.688-14.5Q-84.718-14.98 -82.328-15.35Q-79.948-15.72 -77.648-16Q-75.358-16.27 -73.628-16.54L-73.628-16.54L-74.878-15.77Q-74.808-19.61 -76.368-21.46Q-77.928-23.3 -81.788-23.3L-81.788-23.3Q-84.458-23.3 -86.288-22.1Q-88.128-20.9 -88.868-18.31L-88.868-18.31L-92.308-19.32Q-91.418-22.8 -88.728-24.72Q-86.038-26.64 -81.748-26.64L-81.748-26.64Q-78.188-26.64 -75.708-25.31Q-73.228-23.98 -72.188-21.46L-72.188-21.46Q-71.708-20.33 -71.568-18.94Q-71.428-17.54 -71.428-16.1L-71.428-16.1L-71.428 0L-74.568 0L-74.568-6.5L-73.658-6.12Q-74.978-2.78 -77.758-1.03Q-80.548 0.72 -84.428 0.72ZM-84.028-2.33L-84.028-2.33Q-81.548-2.33 -79.708-3.22Q-77.858-4.1 -76.728-5.65Q-75.598-7.2 -75.268-9.14L-75.268-9.14Q-74.978-10.39 -74.948-11.89Q-74.928-13.39 -74.928-14.14L-74.928-14.14L-73.588-13.44Q-75.388-13.2 -77.488-12.96Q-79.588-12.72 -81.608-12.41Q-83.638-12.1 -85.268-11.66L-85.268-11.66Q-86.378-11.35 -87.408-10.79Q-88.438-10.22 -89.098-9.29Q-89.758-8.35 -89.758-6.96L-89.758-6.96Q-89.758-5.83 -89.198-4.78Q-88.628-3.72 -87.368-3.02Q-86.108-2.33 -84.028-2.33ZM-51.844 0.72L-51.844 0.72Q-55.764 0.72 -58.674-1Q-61.594-2.71 -63.274-5.76L-63.274-5.76L-60.444-7.56Q-59.024-5.16 -56.914-3.91Q-54.804-2.66 -52.064-2.66L-52.064-2.66Q-49.204-2.66 -47.484-3.98Q-45.754-5.3 -45.754-7.61L-45.754-7.61Q-45.754-9.19 -46.484-10.13Q-47.214-11.06 -48.694-11.47Q-50.164-11.88 -52.374-11.88L-52.374-11.88L-55.444-11.88L-55.444-14.9L-52.424-14.9Q-49.734-14.9 -48.094-15.88Q-46.444-16.85 -46.444-18.94L-46.444-18.94Q-46.444-21.14 -48.094-22.21Q-49.734-23.28 -52.014-23.28L-52.014-23.28Q-54.324-23.28 -56.374-22.33Q-58.424-21.38 -59.814-19.9L-59.814-19.9L-62.074-22.27Q-60.124-24.41 -57.524-25.52Q-54.924-26.64 -51.754-26.64L-51.754-26.64Q-49.254-26.64 -47.224-25.76Q-45.204-24.89 -44.014-23.21Q-42.824-21.53 -42.824-19.18L-42.824-19.18Q-42.824-16.97 -43.894-15.36Q-44.964-13.75 -46.904-12.7L-46.904-12.7L-47.094-14.02Q-45.414-13.7 -44.314-12.67Q-43.204-11.64 -42.684-10.2Q-42.154-8.76 -42.154-7.27L-42.154-7.27Q-42.154-4.8 -43.434-3.01Q-44.724-1.22 -46.914-0.25Q-49.114 0.72 -51.844 0.72ZM-15.232-25.92L-12.282-25.92L-12.282 0L-15.712 0L-15.712-20.18L-29.922 0L-32.892 0L-32.892-25.92L-29.462-25.92L-29.462-5.9L-15.232-25.92ZM 1.94 0L-1.58 0L-1.58-25.92L 1.94-25.92L 1.94-14.66L 16.56-14.66L 16.56-25.92L 20.09-25.92L 20.09 0L 16.56 0L 16.56-11.28L 1.94-11.28L 1.94 0ZM 55.228 0.72L 55.228 0.72Q 51.368 0.72  48.628-1.03Q 45.898-2.78  44.428-5.88Q 42.968-8.98  42.968-12.98L 42.968-12.98Q 42.968-17.06  44.458-20.14Q 45.948-23.21  48.688-24.92Q 51.438-26.64  55.228-26.64L 55.228-26.64Q 59.118-26.64  61.868-24.9Q 64.618-23.16  66.068-20.08Q 67.518-16.99  67.518-12.98L 67.518-12.98Q 67.518-8.9  66.058-5.82Q 64.588-2.74  61.828-1.01Q 59.068 0.72  55.228 0.72ZM 55.228-2.66L 55.228-2.66Q 59.548-2.66  61.668-5.53Q 63.778-8.4  63.778-12.98L 63.778-12.98Q 63.778-17.69  61.648-20.47Q 59.528-23.26  55.228-23.26L 55.228-23.26Q 52.328-23.26  50.448-21.95Q 48.558-20.64  47.638-18.32Q 46.708-16.01  46.708-12.98L 46.708-12.98Q 46.708-8.3  48.868-5.48Q 51.028-2.66  55.228-2.66ZM 87.19 0.74L 87.19 0.74Q 83.57 0.72  80.98-0.84Q 78.38-2.4  76.96-5.5Q 75.53-8.59  75.41-13.22L 75.41-13.22Q 75.34-15.26  75.5-17.68Q 75.67-20.09  76.03-22.27Q 76.39-24.46  76.9-25.82L 76.9-25.82Q 77.52-27.6  78.68-29.15Q 79.85-30.7  81.38-31.68L 81.38-31.68Q 82.87-32.69  84.76-33.25Q 86.64-33.82  88.69-34.13Q 90.74-34.44  92.77-34.68Q 94.8-34.92  96.53-35.28L 96.53-35.28L 96.91-32.09Q 95.59-31.82  93.79-31.61Q 91.99-31.39  90.02-31.09Q 88.06-30.79  86.26-30.29Q 84.46-29.78  83.18-28.97L 83.18-28.97Q 81.24-27.79  80.2-25.42Q 79.15-23.04  78.91-19.97L 78.91-19.97Q 80.4-22.3  82.86-23.47Q 85.32-24.65  88.2-24.65L 88.2-24.65Q 91.7-24.65  94.24-23.04Q 96.77-21.43  98.14-18.58Q 99.5-15.72  99.5-12.02L 99.5-12.02Q 99.5-8.16  98-5.28Q 96.5-2.4  93.74-0.83Q 90.98 0.74  87.19 0.74ZM 87.46-2.64L 87.46-2.64Q 91.54-2.64  93.66-5.18Q 95.78-7.73  95.78-11.95L 95.78-11.95Q 95.78-16.27  93.59-18.77Q 91.39-21.26  87.41-21.26L 87.41-21.26Q 83.42-21.26  81.29-18.77Q 79.15-16.27  79.15-11.95L 79.15-11.95Q 79.15-7.63  81.29-5.14Q 83.42-2.64  87.46-2.64ZM 119.604 0.72L 119.604 0.72Q 115.744 0.72  113.004-1.03Q 110.274-2.78  108.804-5.88Q 107.344-8.98  107.344-12.98L 107.344-12.98Q 107.344-17.06  108.834-20.14Q 110.324-23.21  113.064-24.92Q 115.814-26.64  119.604-26.64L 119.604-26.64Q 123.494-26.64  126.244-24.9Q 128.994-23.16  130.444-20.08Q 131.894-16.99  131.894-12.98L 131.894-12.98Q 131.894-8.9  130.434-5.82Q 128.964-2.74  126.204-1.01Q 123.444 0.72  119.604 0.72ZM 119.604-2.66L 119.604-2.66Q 123.924-2.66  126.044-5.53Q 128.154-8.4  128.154-12.98L 128.154-12.98Q 128.154-17.69  126.024-20.47Q 123.904-23.26  119.604-23.26L 119.604-23.26Q 116.704-23.26  114.824-21.95Q 112.934-20.64  112.014-18.32Q 111.084-16.01  111.084-12.98L 111.084-12.98Q 111.084-8.3  113.244-5.48Q 115.404-2.66  119.604-2.66ZM 152.146 0.72L 152.146 0.72Q 148.356 0.72  145.576-0.96Q 142.806-2.64  141.276-5.69Q 139.736-8.74  139.736-12.84L 139.736-12.84Q 139.736-17.09  141.246-20.18Q 142.756-23.28  145.506-24.96Q 148.256-26.64  151.996-26.64L 151.996-26.64Q 155.836-26.64  158.556-24.88Q 161.266-23.11  162.656-19.82Q 164.046-16.54  163.926-11.98L 163.926-11.98L 160.326-11.98L 160.326-13.22Q 160.236-18.26  158.156-20.83Q 156.076-23.4  152.096-23.4L 152.096-23.4Q 147.916-23.4  145.696-20.69Q 143.476-17.98  143.476-12.96L 143.476-12.96Q 143.476-8.06  145.696-5.36Q 147.916-2.66  151.996-2.66L 151.996-2.66Q 154.786-2.66  156.856-3.95Q 158.936-5.23  160.136-7.66L 160.136-7.66L 163.426-6.38Q 161.886-3  158.896-1.14Q 155.916 0.72  152.146 0.72ZM 162.036-11.98L 142.236-11.98L 142.236-14.93L 162.036-14.93L 162.036-11.98ZM 185.282 0L 173.212 0L 173.212-25.92L 183.892-25.92Q 184.702-25.92  185.872-25.82Q 187.032-25.73  188.042-25.46L 188.042-25.46Q 190.222-24.89  191.552-23.11Q 192.892-21.34  192.892-18.84L 192.892-18.84Q 192.892-17.45  192.472-16.36Q 192.052-15.26  191.282-14.47L 191.282-14.47Q 190.922-14.06  190.492-13.76Q 190.052-13.46  189.652-13.27L 189.652-13.27Q 190.412-13.13  191.302-12.6L 191.302-12.6Q 192.692-11.78  193.412-10.4Q 194.132-9.02  194.132-7.06L 194.132-7.06Q 194.132-4.39  192.862-2.71Q 191.592-1.03  189.452-0.41L 189.452-0.41Q 188.492-0.14  187.382-0.07Q 186.262 0  185.282 0L 185.282 0ZM 176.762-11.45L 176.762-3L 185.112-3Q 185.612-3  186.382-3.08Q 187.152-3.17  187.752-3.31L 187.752-3.31Q 189.172-3.67  189.832-4.76Q 190.492-5.86  190.492-7.15L 190.492-7.15Q 190.492-8.86  189.492-9.95Q 188.492-11.04  186.842-11.28L 186.842-11.28Q 186.292-11.4  185.692-11.42Q 185.092-11.45  184.612-11.45L 184.612-11.45L 176.762-11.45ZM 176.762-22.9L 176.762-14.47L 184.012-14.47Q 184.632-14.47  185.412-14.56Q 186.192-14.64  186.772-14.86L 186.772-14.86Q 188.012-15.29  188.602-16.34Q 189.192-17.4  189.192-18.65L 189.192-18.65Q 189.192-20.02  188.552-21.05Q 187.922-22.08  186.652-22.49L 186.652-22.49Q 185.782-22.8  184.792-22.85Q 183.792-22.9  183.532-22.9L 183.532-22.9L 176.762-22.9Z">
</path></svg><path d="M-116.4246395806029 87.2346002621232h744.8492791612058v337.5307994757536h-744.8492791612058z M0 0v512h512v-512z" class="css-1m35ybi">
</path><g class="css-0" style="">
<path class="_sw1 css-jzojre" d="M24.043254852294922 24.043254852294922L 24.043254852294922 24.043254852294922L24.043254852294922 24.043254852294922L24.043254852294922 24.043254852294922 Z" fill="transparent" stroke="red">
</path><path class="_sw1 css-jzojre" d="M104.5240951716014 219.98818568474235L 230.91473797714207 219.98818568474235L230.91473797714207 306.6784943568291L104.5240951716014 306.6784943568291 Z" fill="transparent" stroke="red">
</path><path class="_sw1 css-jzojre" d="M256.0000101653218 238.99022477182757L 454.52735506412455 238.99022477182757L454.52735506412455 273.0097477167592L256.0000101653218 273.0097477167592 Z" fill="transparent" stroke="red">
</path><path class="_sw1 css-jzojre" d="M285.25548706328664 284.1763977207038L 425.2718427824748 284.1763977207038L425.2718427824748 297.2304031870045L285.25548706328664 297.2304031870045 Z" fill="transparent" stroke="red">
</path></g></svg>