<svg width="24" height="20" viewBox="0 0 24 20" fill="none" xmlns="http://www.w3.org/2000/svg">
    <path d="M0.0987206 0.104584C-0.0276266 0.230748 -0.0276265 0.2704 0.0698413 0.843545C0.149259 1.31576 0.188969 1.40948 0.365855 1.51402C0.474152 1.58251 0.55718 1.58611 1.7665 1.58611H3.05524L3.13105 2.00786C3.17437 2.24216 3.60034 4.46986 4.07685 6.95709C4.55336 9.44433 4.97572 11.6432 5.01182 11.8414C5.297 13.3446 5.59663 14.8514 5.62912 14.9307C5.65078 14.9847 5.72297 15.064 5.78795 15.1037C5.90347 15.1758 5.95762 15.1758 13.2785 15.1758C20.5995 15.1758 20.6536 15.1758 20.7691 15.1037C20.9207 15.01 20.9496 14.9235 21.0182 14.408C21.094 13.8493 21.094 13.8529 20.9713 13.7303L20.8666 13.6258H14.0835H7.30051L7.20304 13.0923C7.14889 12.8003 7.10557 12.5516 7.10557 12.5335C7.10557 12.5191 10.2679 12.5083 14.1377 12.5083C21.0326 12.5083 21.1698 12.5083 21.2817 12.4362C21.3431 12.4002 21.4117 12.3353 21.4333 12.2992C21.455 12.2632 21.5019 11.964 21.5452 11.6396C21.6138 11.1061 22.1084 8.44943 22.9712 4.01927C23.1408 3.14694 23.2744 2.39356 23.2708 2.34309C23.2636 2.28902 23.213 2.22414 23.1372 2.17367C23.0217 2.09437 22.982 2.09077 22.3611 2.09077C21.7979 2.09077 21.686 2.10158 21.5561 2.15926L12.5 2.28418V3.78418H21.2817C21.0254 5.14315 19.7692 10.5798 19.7583 10.6231L19.7403 10.706H13.2424C9.66862 10.706 6.74458 10.6952 6.74458 10.6843C6.74458 10.6483 5.24647 2.90903 4.97572 1.55367C4.76635 0.486681 4.70859 0.259585 4.64 0.187491C4.4595 -0.00355721 4.52448 4.76837e-05 2.28633 4.76837e-05H0.203408L0.0987206 0.104584Z" fill="#FF6B00"/>
    <path d="M8.16328 15.807C7.84561 15.8935 7.53516 16.0737 7.32217 16.2936C6.64712 16.9929 6.65434 18.078 7.34022 18.7628C7.57848 18.9971 7.83478 19.1449 8.1705 19.2315C8.75531 19.3828 9.39066 19.2026 9.83107 18.7628C10.517 18.078 10.5242 16.9929 9.84912 16.2936C9.42315 15.8503 8.73726 15.6556 8.16328 15.807Z" fill="#FF6B00"/>
    <path d="M17.9099 15.807C17.5922 15.8935 17.2817 16.0737 17.0688 16.2936C16.3937 16.9929 16.4009 18.078 17.0868 18.7628C17.5272 19.2026 18.1626 19.3828 18.7474 19.2315C19.0831 19.1449 19.3394 18.9971 19.5776 18.7628C20.2635 18.078 20.2708 16.9929 19.5957 16.2936C19.1697 15.8503 18.4838 15.6556 17.9099 15.807Z" fill="#FF6B00"/>
</svg>
    