<svg width="600" height="600" viewBox="0 0 600 600" fill="none" xmlns="http://www.w3.org/2000/svg">
    <path d="M255.456 288.521L251.184 324.375L273.424 320.005L255.885 288.438L255.456 288.521Z" fill="#FF449F"/>
    <path d="M600 299.995L525.823 239.49L559.809 150.003L465.308 134.687L450 40.1953L360.513 74.182L300 0.00463867L239.487 74.1832L150.008 40.1953L134.692 134.688L40.2 150.005L74.1785 239.491L0 299.995L74.1785 360.501L40.2 449.995L134.692 465.312L150.008 559.803L239.487 525.817L300 599.995L360.514 525.818L450 559.805L465.307 465.313L559.808 449.996L525.821 360.503L600 299.995ZM181.369 377.074C166.358 380.032 150.605 376.95 141.682 371.208C141.005 370.753 140.517 369.812 141.07 368.829L149.406 354.396C149.835 353.562 150.686 353.395 151.495 353.825C158.873 357.675 168.464 360.79 178.659 358.782C188.705 356.808 193.455 351.025 192.125 344.225C191.002 338.558 186.905 335.692 175.14 336.386L169.903 336.675C149.829 337.823 137.122 330.776 133.777 313.782C130.298 296.079 141.294 281.703 162.113 277.615C174.852 275.103 187.5 276.599 196.793 281.234C197.76 281.638 198.007 282.166 197.495 283.298L191.382 297.888C190.961 298.706 190.275 298.987 189.498 298.698C181.179 295.336 173.595 294.179 165.673 295.74C157.172 297.409 153.653 302.664 154.85 308.751C155.932 314.27 160.583 317.038 171.952 316.418L177.18 316.13C197.528 314.923 209.796 321.92 213.224 339.335C216.645 356.75 206.292 372.175 181.369 377.074ZM311.93 349.787L293.523 353.414C292.532 353.604 291.879 353.298 291.4 352.348L282.568 336.593L248.862 343.219L246.789 361.12C246.707 362.177 246.226 362.707 245.236 362.905L226.69 366.547C225.698 366.746 225.302 366.233 225.417 365.325L240.172 265.355C240.288 264.438 240.742 263.769 241.733 263.578L259.577 260.067C260.569 259.869 261.246 260.324 261.701 261.124L312.64 348.173C313.086 348.969 312.921 349.596 311.93 349.787ZM391.105 334.214L328.377 346.556C327.526 346.721 326.849 346.259 326.675 345.417L308.293 251.965C308.128 251.105 308.591 250.428 309.442 250.263L327.427 246.728C328.277 246.553 328.947 247.009 329.112 247.867L343.957 323.343C344.073 323.904 344.412 324.135 344.973 324.028L387.452 315.675C388.311 315.502 388.989 315.948 389.154 316.799L392.243 332.521C392.411 333.371 391.964 334.049 391.105 334.214ZM468.026 319.096L406.281 331.232C405.43 331.405 404.753 330.942 404.587 330.091L386.215 236.64C386.041 235.78 386.496 235.112 387.347 234.939L449.091 222.803C449.933 222.629 450.611 223.084 450.784 223.943L453.758 239.086C453.923 239.937 453.469 240.614 452.626 240.779L411.13 248.943C410.568 249.057 410.338 249.388 410.445 249.967L414.203 269.082C414.319 269.645 414.666 269.876 415.227 269.76L449.776 262.97C450.619 262.803 451.304 263.259 451.47 264.102L454.418 279.112C454.591 279.963 454.129 280.641 453.286 280.806L418.73 287.596C418.167 287.712 417.936 288.05 418.052 288.612L421.977 308.587C422.085 309.149 422.432 309.371 422.993 309.257L464.489 301.103C465.332 300.929 466.008 301.392 466.181 302.243L469.155 317.394C469.323 318.245 468.868 318.922 468.026 319.096Z" fill="#FF449F"/>
</svg>
    