<svg width="644" height="655" viewBox="0 0 644 655" fill="none" xmlns="http://www.w3.org/2000/svg">
    <g opacity="0.2" clip-path="url(#clip0_135_8364)">
    <path d="M426.453 208.718C457.487 174.213 473.005 156.961 490.076 160.69C507.149 164.42 514.469 186.661 529.111 231.144L532.899 242.652C537.06 255.293 539.139 261.613 543.431 266.421C547.722 271.229 553.737 273.979 565.77 279.481L576.722 284.489C619.064 303.851 640.234 313.531 642.115 331.037C643.996 348.544 625.343 362.282 588.037 389.759L578.384 396.867C567.784 404.676 562.483 408.58 559.308 414.148C556.133 419.716 555.439 426.319 554.056 439.523L552.798 451.548C547.931 498.018 545.499 521.254 529.59 528.343C513.681 535.434 494.832 521.683 457.132 494.18L447.38 487.066C436.666 479.251 431.31 475.344 425.057 473.976C418.804 472.61 412.36 473.941 399.474 476.601L387.741 479.023C342.394 488.381 319.719 493.061 308.006 479.937C296.291 466.81 303.296 444.575 317.304 400.103L320.928 388.596C324.908 375.959 326.899 369.639 326.209 363.227C325.52 356.814 322.23 351.032 315.648 339.471L309.656 328.944C286.496 288.259 274.915 267.916 283.585 252.715C292.255 237.513 315.432 237.521 361.788 237.536L373.781 237.54C386.953 237.544 393.54 237.547 399.368 234.949C405.195 232.352 409.604 227.449 418.425 217.645L426.453 208.718Z" fill="#00ADB5"/>
    </g>
    <defs>
    <clipPath id="clip0_135_8364">
    <rect width="570.519" height="587.774" fill="white" transform="translate(211.813 0.404785) rotate(21.1226)"/>
    </clipPath>
    </defs>
</svg>
    