<svg width="32" height="32" viewBox="0 0 32 32" fill="none" xmlns="http://www.w3.org/2000/svg">
    <circle cx="16" cy="16" r="16" fill="white"/>
    <path d="M6.65901 15.8613C6.65901 15.8613 14.659 12.5781 17.4335 11.422C18.4972 10.9596 22.1041 9.4798 22.1041 9.4798C22.1041 9.4798 23.7688 8.83244 23.6301 10.4047C23.5838 11.0521 23.2139 13.3179 22.844 15.7688C22.289 19.2371 21.6879 23.0289 21.6879 23.0289C21.6879 23.0289 21.5954 24.0925 20.8093 24.2775C20.0232 24.4625 18.7283 23.6301 18.4972 23.4451C18.3121 23.3064 15.0289 21.2255 13.8266 20.2081C13.5029 19.9307 13.133 19.3758 13.8728 18.7284C15.5376 17.2024 17.526 15.3064 18.7283 14.1041C19.2833 13.5492 19.8381 12.2544 17.526 13.8266C14.2428 16.0925 11.0058 18.2197 11.0058 18.2197C11.0058 18.2197 10.2659 18.6821 8.87866 18.2659C7.49133 17.8498 5.87283 17.2948 5.87283 17.2948C5.87283 17.2948 4.76307 16.6012 6.65901 15.8613Z" fill="#34AADF"/>
</svg>
    