<svg width="32" height="32" viewBox="0 0 32 32" fill="none" xmlns="http://www.w3.org/2000/svg">
    <circle cx="16" cy="16" r="16" fill="#34AADF"/>
    <path d="M6.65901 15.8612C6.65901 15.8612 14.659 12.578 17.4335 11.422C18.4972 10.9596 22.1041 9.47974 22.1041 9.47974C22.1041 9.47974 23.7688 8.83238 23.6301 10.4046C23.5838 11.052 23.2139 13.3179 22.844 15.7688C22.289 19.237 21.6879 23.0289 21.6879 23.0289C21.6879 23.0289 21.5954 24.0925 20.8093 24.2774C20.0232 24.4624 18.7283 23.6301 18.4972 23.4451C18.3121 23.3064 15.0289 21.2254 13.8266 20.2081C13.5029 19.9306 13.133 19.3757 13.8728 18.7283C15.5376 17.2023 17.526 15.3064 18.7283 14.1041C19.2833 13.5491 19.8381 12.2543 17.526 13.8266C14.2428 16.0925 11.0058 18.2196 11.0058 18.2196C11.0058 18.2196 10.2659 18.682 8.87866 18.2659C7.49133 17.8497 5.87283 17.2948 5.87283 17.2948C5.87283 17.2948 4.76307 16.6011 6.65901 15.8612Z" fill="white"/>
</svg>
    