<svg width="40" height="40" viewBox="0 0 40 40" fill="none" xmlns="http://www.w3.org/2000/svg">
<path fill-rule="evenodd" clip-rule="evenodd" d="M12.5 18.75C12.5 18.06 13.06 17.5 13.75 17.5C14.44 17.5 15 18.06 15 18.75V33.75C15 34.4412 14.44 35 13.75 35C13.06 35 12.5 34.4412 12.5 33.75V18.75ZM18.75 18.75C18.75 18.06 19.31 17.5 20 17.5C20.69 17.5 21.25 18.06 21.25 18.75V33.75C21.25 34.4412 20.69 35 20 35C19.31 35 18.75 34.4412 18.75 33.75V18.75ZM25 18.75C25 18.06 25.56 17.5 26.25 17.5C26.94 17.5 27.5 18.06 27.5 18.75V33.75C27.5 34.4412 26.94 35 26.25 35C25.56 35 25 34.4412 25 33.75V18.75ZM6.25 35C6.25 37.7613 8.48875 40 11.25 40H28.75C31.5113 40 33.75 37.7613 33.75 35V15H6.25V35ZM23.75 5H16.25V3.75C16.25 3.05875 16.81 2.5 17.5 2.5H22.5C23.19 2.5 23.75 3.05875 23.75 3.75V5ZM33.75 5H26.25V2.5C26.25 1.12 25.13 0 23.75 0H16.25C14.87 0 13.75 1.12 13.75 2.5V5H6.25C4.87 5 3.75 6.12 3.75 7.5V10C3.75 11.38 4.86874 12.4987 6.24874 12.5H33.7525C35.1313 12.4987 36.25 11.38 36.25 10V7.5C36.25 6.12 35.13 5 33.75 5Z" fill="#FF449F"/>
</svg>
