<svg width="32" height="33" viewBox="0 0 32 33" fill="none" xmlns="http://www.w3.org/2000/svg">
<g clip-path="url(#clip0_1644_7935)">
<path d="M31.8476 16.1191C31.8476 7.32464 24.7183 0.195312 15.9238 0.195312C7.12932 0.195312 0 7.32464 0 16.1191C0 24.9136 7.12932 32.0429 15.9238 32.0429C24.7183 32.0429 31.8476 24.9136 31.8476 16.1191Z" fill="white"/>
<path d="M11.8714 23.4524C11.8714 23.166 11.8714 22.8795 11.8714 22.593C11.8734 22.5813 11.873 22.5693 11.8702 22.5578C11.8673 22.5462 11.8621 22.5354 11.8549 22.5259C11.8477 22.5165 11.8385 22.5085 11.8281 22.5027C11.8177 22.4969 11.8061 22.4932 11.7942 22.4919C11.0776 22.2902 10.4163 21.9309 9.85936 21.4407C9.45358 21.075 9.11573 20.6415 8.86119 20.1601C8.5024 19.4646 8.26364 18.7145 8.15477 17.941C8.01988 16.9706 7.973 15.9902 8.01477 15.0116C8.02395 14.5553 8.04746 14.1042 8.09983 13.648C8.18325 12.7809 8.40401 11.9323 8.75392 11.1333C9.18598 10.1509 9.96984 9.36182 10.9543 8.91812C11.6249 8.61405 12.3305 8.39208 13.0553 8.25709C13.7661 8.12365 14.4858 8.0418 15.2086 8.01209C15.8602 7.98925 16.5125 7.99877 17.1631 8.04061C18.0943 8.07954 19.017 8.23238 19.9103 8.49558C20.5727 8.68474 21.2028 8.9709 21.7798 9.34458C22.342 9.72699 22.7967 10.2449 23.1011 10.8495C23.4589 11.5556 23.7022 12.3133 23.8219 13.0945C23.8996 13.5583 23.9508 14.0261 23.975 14.4957C24.009 15.0777 24.005 15.6623 23.9828 16.2417C23.9606 16.8211 23.9108 17.3836 23.8389 17.9514C23.748 18.8035 23.4836 19.6285 23.0618 20.3766C22.5128 21.3229 21.6334 22.0375 20.5893 22.3857C19.8754 22.6334 19.1383 22.8097 18.3889 22.9119C17.8407 22.9871 17.2913 23.0415 16.7392 23.0636C16.3167 23.083 15.8941 23.0778 15.4716 23.0713C15.2322 23.0713 14.9941 23.048 14.756 23.0273C14.7326 23.0229 14.7085 23.0255 14.6866 23.0347C14.6647 23.0439 14.6461 23.0594 14.633 23.0791C14.1516 23.6521 13.6519 24.2094 13.1482 24.7642C13.0565 24.8654 12.9502 24.9527 12.8329 25.0234C12.7559 25.0735 12.6681 25.1049 12.5766 25.1151C12.4851 25.1254 12.3924 25.1141 12.3061 25.0823C12.2197 25.0505 12.1422 24.9991 12.0796 24.9321C12.0171 24.8651 11.9713 24.7845 11.946 24.6968C11.8961 24.5409 11.8714 24.3781 11.8727 24.2146C11.8714 23.958 11.8714 23.7052 11.8714 23.4524ZM12.4535 24.5399L12.515 24.4829L13.6074 23.2813C14.0278 22.819 14.4477 22.3563 14.8672 21.8931C14.8878 21.8649 14.9156 21.8425 14.9478 21.8284C14.98 21.8143 15.0154 21.8089 15.0503 21.8127C15.1929 21.827 15.3355 21.8322 15.4794 21.8335C15.9766 21.8335 16.4737 21.8335 16.9708 21.7985C17.4221 21.7635 17.8721 21.709 18.3196 21.6391C18.8013 21.556 19.2781 21.4474 19.7481 21.3137C20.7947 21.035 21.6045 20.4388 22.1134 19.4731C22.4138 18.8794 22.6022 18.2363 22.6694 17.5755C22.7489 16.9526 22.7965 16.3262 22.812 15.6986C22.8351 14.9101 22.7808 14.1213 22.6497 13.3434C22.5588 12.7797 22.3953 12.2299 22.1631 11.7076C21.8674 11.0594 21.4488 10.5228 20.8039 10.178C19.8149 9.64917 18.7447 9.41329 17.6419 9.29273C17.3292 9.25903 17.0166 9.24089 16.7026 9.22921C16.0597 9.19637 15.4155 9.19984 14.773 9.23959C14.3109 9.27355 13.8514 9.33502 13.3968 9.42367C12.7282 9.54441 12.0815 9.76282 11.4776 10.0717C11.1275 10.247 10.81 10.4797 10.5383 10.76C10.098 11.2476 9.77513 11.8277 9.59377 12.4568C9.37868 13.1894 9.26126 13.9467 9.2445 14.7096C9.2024 15.4724 9.21203 16.2371 9.27327 16.9986C9.31138 17.4519 9.38797 17.901 9.50222 18.3415C9.67219 19.0279 10.0019 19.6654 10.465 20.2029C10.9651 20.7512 11.6113 21.1484 12.3292 21.3487C12.4195 21.3759 12.4601 21.407 12.4601 21.5081C12.4522 21.8814 12.4601 22.2547 12.4601 22.6281L12.4535 24.5399Z" fill="#754A91"/>
<path d="M11.5382 12.962C11.529 12.6782 11.6847 12.4721 11.8731 12.2867C12.1215 12.0509 12.3952 11.8427 12.6894 11.6658C12.8235 11.5838 12.983 11.5526 13.1385 11.5779C13.294 11.6031 13.4351 11.6831 13.5358 11.8032C13.8917 12.1738 14.2102 12.578 14.4869 13.01C14.6239 13.2043 14.7273 13.4198 14.793 13.6477C14.8192 13.7366 14.821 13.8309 14.7979 13.9207C14.7749 14.0106 14.7281 14.0926 14.6622 14.1584C14.5112 14.3052 14.3504 14.4416 14.1807 14.5667C14.0953 14.6342 14.0317 14.7251 13.998 14.8281C13.9642 14.9312 13.9618 15.0417 13.9911 15.1461C14.0958 15.6362 14.3333 16.0887 14.6779 16.4553C15.0966 16.9618 15.6362 17.3569 16.2477 17.605C16.398 17.6815 16.5702 17.7049 16.7357 17.6711C16.8263 17.6466 16.9069 17.5944 16.9659 17.522C17.0575 17.4067 17.1569 17.2952 17.2394 17.1721C17.3463 17.0185 17.5095 16.9123 17.6942 16.8762C17.879 16.8402 18.0706 16.877 18.2284 16.9789C18.6718 17.2338 19.0905 17.5289 19.479 17.8604C19.5706 17.9381 19.6661 18.0133 19.7577 18.0924C19.866 18.1743 19.9443 18.2891 19.9804 18.4193C20.0166 18.5494 20.0086 18.6878 19.9578 18.813C19.877 19.0237 19.7592 19.2186 19.6098 19.3886C19.4242 19.6442 19.1878 19.8594 18.9151 20.0211C18.7848 20.097 18.6384 20.1415 18.4875 20.1512C18.3367 20.1609 18.1856 20.1354 18.0465 20.0768C16.9881 19.6546 15.9991 19.0784 15.1122 18.3672C14.2447 17.6596 13.4866 16.8299 12.8621 15.9044C12.3366 15.1383 11.9185 14.305 11.6193 13.4273C11.5874 13.3212 11.5612 13.2134 11.5408 13.1046C11.535 13.0573 11.5341 13.0095 11.5382 12.962Z" fill="#754A91"/>
<path d="M16.0546 11.5834C16.9402 11.5997 17.7919 11.9233 18.4613 12.498C19.1307 13.0726 19.5753 13.8618 19.7176 14.728C19.7749 15.0429 19.8056 15.362 19.8092 15.682C19.8092 15.7572 19.7896 15.8116 19.7085 15.8194C19.6274 15.8272 19.6064 15.7585 19.6064 15.6898C19.6186 15.0426 19.4845 14.4008 19.214 13.8116C18.9862 13.3274 18.6487 12.9019 18.2278 12.568C17.8069 12.2342 17.3139 12.001 16.7872 11.8867C16.5088 11.8228 16.224 11.7898 15.9382 11.7882C15.9104 11.7887 15.8826 11.7852 15.8558 11.7779C15.833 11.7715 15.8135 11.7566 15.8015 11.7363C15.7896 11.716 15.786 11.6918 15.7917 11.669C15.7919 11.6581 15.7942 11.6474 15.7986 11.6375C15.803 11.6276 15.8093 11.6186 15.8172 11.6111C15.8251 11.6036 15.8345 11.5978 15.8447 11.5939C15.8549 11.5901 15.8658 11.5883 15.8767 11.5886C15.9356 11.5808 15.9958 11.5834 16.0546 11.5834Z" fill="#754A91"/>
<path d="M18.5802 15.0987C18.5757 14.7386 18.4862 14.3845 18.3188 14.0649C18.1514 13.7452 17.9107 13.4689 17.616 13.2581C17.2721 13.0187 16.8723 12.8702 16.4543 12.8265C16.3837 12.8174 16.313 12.8135 16.2411 12.8057C16.1691 12.7979 16.126 12.7681 16.1325 12.6955C16.139 12.623 16.1848 12.597 16.2633 12.6022C17.4224 12.6722 18.4088 13.3216 18.7123 14.531C18.7678 14.7642 18.7955 15.003 18.7947 15.2426V15.3074C18.7947 15.3722 18.7528 15.415 18.6887 15.4137C18.6745 15.4132 18.6605 15.4099 18.6477 15.4038C18.6348 15.3979 18.6233 15.3893 18.6139 15.3788C18.6045 15.3682 18.5973 15.3558 18.5928 15.3425C18.5884 15.3291 18.5868 15.3149 18.588 15.3009C18.5775 15.24 18.5802 15.1778 18.5802 15.0987Z" fill="#754A91"/>
<path d="M16.5491 13.6539C17.1849 13.6967 17.6284 14.0052 17.75 14.6753C17.7648 14.7612 17.7753 14.8477 17.7814 14.9346C17.7814 15.0046 17.7657 15.0642 17.6886 15.0642C17.6114 15.0642 17.5852 15.0124 17.5826 14.9346C17.5819 14.6777 17.502 14.4272 17.3537 14.2165C17.1978 14.0257 16.9739 13.9014 16.7283 13.8691C16.6734 13.8589 16.6179 13.852 16.5622 13.8484C16.4706 13.8484 16.4196 13.803 16.4314 13.733C16.4431 13.663 16.4981 13.6501 16.5491 13.6539Z" fill="#754A91"/>
</g>
<defs>
<clipPath id="clip0_1644_7935">
<rect width="32" height="32.3478" fill="white"/>
</clipPath>
</defs>
</svg>
