<svg width="60" height="58" viewBox="0 0 60 58" fill="none" xmlns="http://www.w3.org/2000/svg">
<path d="M45.1727 12.6649V5.07476H43.2425V3.19671H54.2813V5.07476H52.4934V16.8196L59.2744 21.679V26.7852L54.2718 23.8467L54.2813 42.1755L54.2718 57.5469L29.6872 57.5469H5.10271V42.166L5.10271 23.8467L-7.62939e-06 26.7852V21.679L29.6872 -0.000293732L45.1727 12.6649Z" fill="#F3F3F3"/>
<path fill-rule="evenodd" clip-rule="evenodd" d="M38.47 38.8901L7.59126 16.027L17.4288 8.84415L43.1351 29.413C43.9125 33.1836 43.9125 35.9055 43.1351 37.5788C42.3576 39.2521 40.8026 39.6892 38.47 38.8901Z" fill="url(#paint0_linear_1647_9004)"/>
<path fill-rule="evenodd" clip-rule="evenodd" d="M38.4699 38.8899C39.2596 38.9574 39.7696 38.9839 39.9999 38.9693C43.0013 38.779 42.7763 36.519 39.325 32.1891L46.6664 23.5968C49.8196 26.0995 51.1507 28.1541 50.6596 29.7606C49.8465 32.4209 44.0071 40.2818 41.9805 40.0921C41.5712 40.0537 40.401 39.653 38.4699 38.8899Z" fill="url(#paint1_linear_1647_9004)"/>
<defs>
<linearGradient id="paint0_linear_1647_9004" x1="-2807.98" y1="-2767.1" x2="220.612" y2="-566.706" gradientUnits="userSpaceOnUse">
<stop stop-color="white"/>
<stop offset="1" stop-color="white"/>
</linearGradient>
<linearGradient id="paint1_linear_1647_9004" x1="-117.483" y1="-1121.93" x2="501.898" y2="-688.233" gradientUnits="userSpaceOnUse">
<stop stop-color="white"/>
<stop offset="1" stop-color="#F9F9F9"/>
</linearGradient>
</defs>
</svg>
