<svg width="32" height="32" viewBox="0 0 32 32" fill="none" xmlns="http://www.w3.org/2000/svg">
    <circle cx="16" cy="16" r="16" fill="white"/>
    <g clip-path="url(#clip0_427_5135)">
    <path d="M22.332 16.8224C22.0216 16.4304 22.1104 16.256 22.332 15.9056C22.336 15.9016 24.8984 12.3608 25.1624 11.16L25.164 11.1592C25.2952 10.7216 25.164 10.4 24.5296 10.4H22.4304C21.896 10.4 21.6496 10.676 21.5176 10.9848C21.5176 10.9848 20.4488 13.5432 18.9368 15.2016C18.4488 15.6808 18.2232 15.8344 17.9568 15.8344C17.8256 15.8344 17.6216 15.6808 17.6216 15.2432V11.1592C17.6216 10.6344 17.472 10.4 17.0296 10.4H13.7288C13.3936 10.4 13.1944 10.6448 13.1944 10.8728C13.1944 11.3704 13.9504 11.4848 14.0288 12.8848V15.9224C14.0288 16.588 13.908 16.7104 13.64 16.7104C12.9264 16.7104 11.1944 14.1416 10.168 11.2016C9.96082 10.6312 9.75842 10.4008 9.22002 10.4008H7.12002C6.52082 10.4008 6.40002 10.6768 6.40002 10.9856C6.40002 11.5312 7.11362 14.244 9.71842 17.828C11.4544 20.2744 13.8992 21.6 16.1232 21.6C17.46 21.6 17.6232 21.3056 17.6232 20.7992C17.6232 18.4616 17.5024 18.2408 18.172 18.2408C18.4824 18.2408 19.0168 18.3944 20.2648 19.5744C21.6912 20.9736 21.9256 21.6 22.724 21.6H24.8232C25.4216 21.6 25.7248 21.3056 25.5504 20.7248C25.1512 19.5032 22.4536 16.9904 22.332 16.8224Z" fill="#4B729F"/>
    </g>
    <defs>
    <clipPath id="clip0_427_5135">
    <rect width="19.2" height="19.2" fill="white" transform="translate(6.40002 6.40002)"/>
    </clipPath>
    </defs>
</svg>
    