<svg width="32" height="32" viewBox="0 0 32 32" fill="none" xmlns="http://www.w3.org/2000/svg">
    <circle cx="16" cy="16" r="16" fill="#57D163"/>
    <path d="M6.45758 25.3736L7.79213 20.5103C6.96766 19.0837 6.5346 17.4653 6.53659 15.8183C6.53876 10.6435 10.7581 6.43351 15.943 6.43351C18.459 6.43479 20.8207 7.41206 22.5968 9.18604C24.3729 10.96 25.3501 13.318 25.3492 15.8258C25.3469 21.0003 21.127 25.211 15.9428 25.211H15.9387C14.3646 25.2104 12.8179 24.8162 11.4439 24.0685L6.45758 25.3736Z" fill="white"/>
    <path d="M15.9458 8.0189C11.6333 8.0189 8.12618 11.518 8.12464 15.8189C8.12252 17.2876 8.53688 18.7268 9.31984 19.9703L9.50585 20.2653L8.71591 23.1438L11.6749 22.3694L11.9607 22.5384C13.1607 23.2492 14.5367 23.6252 15.9399 23.626H15.9428C20.252 23.626 23.7591 20.1265 23.7608 15.8253C23.764 14.8001 23.5635 13.7845 23.1708 12.8372C22.7781 11.8899 22.2011 11.0298 21.473 10.3066C20.7491 9.57943 19.8878 9.00282 18.939 8.61013C17.9902 8.21745 16.9729 8.01649 15.9458 8.0189Z" fill="#57D163"/>
    <path fill-rule="evenodd" clip-rule="evenodd" d="M13.592 11.8948C13.4158 11.5042 13.2304 11.4963 13.0631 11.4896L12.6126 11.4841C12.4558 11.4841 12.2012 11.5428 11.9859 11.7775C11.7706 12.0123 11.1632 12.5797 11.1632 13.7339C11.1632 14.888 12.0054 16.0032 12.1228 16.1599C12.2402 16.3166 13.7487 18.7604 16.1377 19.7007C18.1229 20.4821 18.5269 20.3267 18.958 20.2877C19.3891 20.2486 20.3485 19.7202 20.5443 19.1725C20.74 18.6247 20.7401 18.1554 20.6814 18.0573C20.6228 17.9591 20.466 17.9008 20.2308 17.7834C19.9956 17.666 18.8403 17.0986 18.6248 17.0203C18.4094 16.9419 18.2528 16.903 18.096 17.1378C17.9391 17.3726 17.4892 17.9007 17.352 18.0573C17.2149 18.2138 17.078 18.2335 16.8427 18.1162C16.6075 17.9989 15.8507 17.7512 14.9527 16.952C14.254 16.3302 13.7824 15.5623 13.6451 15.3277C13.5078 15.093 13.6306 14.966 13.7484 14.8491C13.8539 14.7439 13.9834 14.5751 14.1011 14.4382C14.2189 14.3013 14.2576 14.2034 14.3359 14.0471C14.4141 13.8908 14.3751 13.7535 14.3163 13.6363C14.2575 13.519 13.8008 12.3588 13.592 11.8948Z" fill="white"/>
</svg>
    