<svg width="32" height="32" viewBox="0 0 32 32" fill="none" xmlns="http://www.w3.org/2000/svg">
    <circle cx="16" cy="16" r="16" fill="white"/>
    <path d="M6.45764 25.3737L7.79219 20.5104C6.96772 19.0837 6.53466 17.4654 6.53665 15.8184C6.53882 10.6435 10.7581 6.43359 15.943 6.43359C18.4591 6.43487 20.8207 7.41214 22.5968 9.18613C24.3729 10.9601 25.3502 13.3181 25.3493 15.8259C25.347 21.0004 21.127 25.2111 15.9429 25.2111H15.9388C14.3647 25.2105 12.8179 24.8163 11.444 24.0686L6.45764 25.3737Z" fill="#57D163"/>
    <path d="M15.9459 8.01894C11.6334 8.01894 8.1263 11.518 8.12476 15.819C8.12264 17.2876 8.53701 18.7269 9.31996 19.9704L9.50597 20.2654L8.71603 23.1438L11.6751 22.3695L11.9608 22.5384C13.1609 23.2492 14.5368 23.6253 15.94 23.626H15.943C20.2521 23.626 23.7592 20.1265 23.7609 15.8254C23.7641 14.8002 23.5636 13.7846 23.1709 12.8373C22.7782 11.89 22.2012 11.0298 21.4732 10.3066C20.7492 9.57947 19.8879 9.00286 18.9391 8.61017C17.9904 8.21749 16.973 8.01653 15.9459 8.01894Z" fill="white"/>
    <path fill-rule="evenodd" clip-rule="evenodd" d="M13.592 11.8949C13.4158 11.5043 13.2304 11.4964 13.0631 11.4896L12.6126 11.4841C12.4558 11.4841 12.2012 11.5428 11.9859 11.7776C11.7706 12.0124 11.1632 12.5798 11.1632 13.7339C11.1632 14.8881 12.0054 16.0033 12.1228 16.1599C12.2402 16.3166 13.7487 18.7605 16.1377 19.7008C18.1229 20.4822 18.5269 20.3268 18.958 20.2877C19.3891 20.2487 20.3485 19.7203 20.5443 19.1725C20.74 18.6247 20.7401 18.1554 20.6814 18.0573C20.6228 17.9592 20.466 17.9009 20.2308 17.7835C19.9956 17.6661 18.8403 17.0987 18.6248 17.0203C18.4094 16.942 18.2528 16.9031 18.096 17.1378C17.9391 17.3726 17.4892 17.9008 17.352 18.0573C17.2149 18.2139 17.078 18.2335 16.8427 18.1163C16.6075 17.999 15.8507 17.7512 14.9527 16.9521C14.254 16.3303 13.7824 15.5624 13.6451 15.3278C13.5078 15.0931 13.6306 14.966 13.7484 14.8491C13.8539 14.744 13.9834 14.5752 14.1011 14.4383C14.2189 14.3014 14.2576 14.2035 14.3359 14.0472C14.4141 13.8909 14.3751 13.7536 14.3163 13.6363C14.2575 13.5191 13.8008 12.3588 13.592 11.8949Z" fill="#57D163"/>
</svg>
    