<svg width="34" height="35" viewBox="0 0 34 35" fill="none" xmlns="http://www.w3.org/2000/svg">
    <g clip-path="url(#clip0_427_1562)">
    <path d="M8.90198 0.745117V25.3196H29.817C31.6576 25.3196 33.1634 27.3302 33.1634 29.7877V0.745117H8.90198Z" fill="white"/>
    <g clip-path="url(#clip1_427_1562)">
    <rect width="26.9804" height="26.8333" transform="translate(8.27451)" fill="#00ADB5"/>
    <path d="M20.8235 14.5833H32.7451V23.3333H20.8235V14.5833Z" fill="#EBB313"/>
    <path d="M9.52942 17.5H20.8235V23.9167H9.52942V17.5Z" fill="#EBB313"/>
    <path d="M21.451 11.4723L32.7451 9.91675V11.4723V14.5834H21.451V11.4723Z" fill="#FF449F"/>
    <path d="M10.1569 14.3888L20.8235 12.8333V14.3888V17.4999H10.1569V14.3888Z" fill="#FF449F"/>
    <path d="M33.4784 25.1561C33.4784 25.619 33.1142 25.9947 32.6654 25.9947H9.9007C9.45191 25.9947 9.08768 25.619 9.08768 25.1561V23.9818L15.024 17.8591C15.3415 17.5317 15.8561 17.5317 16.1736 17.8591C16.1736 17.8591 18.6928 20.4578 19.0802 20.8569C19.4676 21.2565 19.8444 21.2552 20.2302 20.8569C20.616 20.4586 27.1608 14.006 27.1608 14.006C27.4783 13.6786 28.1923 13.6782 28.5098 14.0057L33.4784 20.0174V25.1561Z" fill="white"/>
    <path d="M32.6654 0.838135H9.9007C9.45191 0.838135 9.08768 1.2138 9.08768 1.67668V21.6394L13.4967 17.3114C14.1321 16.6561 15.3638 14.4921 15.9992 15.1474L19.5891 19.0426L26.1166 12.5777C26.752 11.9224 28.0922 11.5031 28.7276 12.1584L33.4784 17.7507V1.67668C33.4784 1.2138 33.1142 0.838135 32.6654 0.838135ZM20.0635 7.96658L18.8444 7.96616C18.8346 7.96616 18.8265 7.96113 18.8167 7.96029C18.7432 8.5762 18.5078 9.13928 18.1553 9.60551C18.1631 9.61222 18.1724 9.61431 18.1797 9.62186L19.0415 10.5107C19.2001 10.6755 19.2005 10.94 19.0411 11.1044C18.883 11.2683 18.6257 11.2692 18.4663 11.1044L17.6045 10.2151C17.5972 10.2076 17.5952 10.1979 17.5887 10.19C17.137 10.5535 16.5907 10.7962 15.9935 10.8721C15.9943 10.8822 15.9992 10.8906 15.9992 10.9011V12.1584C15.998 12.3903 15.8167 12.5777 15.5915 12.5777C15.3671 12.5786 15.185 12.3907 15.185 12.1584L15.1854 10.9015C15.1854 10.891 15.1902 10.8826 15.1911 10.8725C14.5935 10.7967 14.0479 10.5539 13.5959 10.1908C13.5894 10.1984 13.5874 10.208 13.58 10.2155L12.7182 11.1048C12.5581 11.2679 12.302 11.2688 12.1426 11.104C11.9833 10.9409 11.9833 10.6755 12.1426 10.5111L13.0048 9.62228C13.0121 9.61473 13.0211 9.61264 13.0288 9.60593C12.6764 9.14012 12.441 8.57662 12.3674 7.96029C12.3577 7.96071 12.3491 7.96574 12.3398 7.96574H11.1202C10.8954 7.96574 10.7137 7.77833 10.7137 7.54647C10.7137 7.31461 10.8954 7.1272 11.1202 7.1272H12.3398C12.3491 7.1272 12.3577 7.13223 12.367 7.13307C12.4406 6.51716 12.676 5.95366 13.0284 5.48743C13.0211 5.48072 13.0117 5.47862 13.0048 5.4715L12.143 4.58222C11.9837 4.41787 11.9841 4.15331 12.143 3.98896C12.302 3.82502 12.5589 3.8246 12.7178 3.98896L13.58 4.87823C13.5874 4.88536 13.589 4.895 13.5955 4.90255C14.0471 4.53946 14.5935 4.2967 15.1911 4.22081C15.1902 4.21117 15.1854 4.20194 15.1854 4.1923V2.93533C15.1858 2.70263 15.3675 2.51564 15.5927 2.51522C15.8167 2.51522 15.9992 2.70263 15.9992 2.93449L15.9988 4.1923C15.9988 4.20194 15.9939 4.21117 15.9931 4.22039C16.5907 4.29628 17.1362 4.53904 17.5883 4.90255C17.5948 4.89458 17.5968 4.88536 17.6041 4.87781L18.4659 3.98896C18.6257 3.82502 18.8822 3.82502 19.0415 3.98896C19.2005 4.15289 19.2009 4.41787 19.0415 4.5818L18.1793 5.47108C18.172 5.47862 18.1627 5.48072 18.1553 5.48743C18.5074 5.95324 18.7428 6.51674 18.8163 7.13265C18.8265 7.13223 18.8346 7.1272 18.8444 7.1272H20.0631C20.2883 7.12804 20.47 7.31503 20.47 7.54731C20.4704 7.77874 20.2887 7.96658 20.0635 7.96658Z" fill="white"/>
    <path d="M15.5916 10.063C16.9387 10.063 18.0307 8.93671 18.0307 7.54736C18.0307 6.15802 16.9387 5.03174 15.5916 5.03174C14.2445 5.03174 13.1525 6.15802 13.1525 7.54736C13.1525 8.93671 14.2445 10.063 15.5916 10.063Z" fill="white"/>
    </g>
    <path d="M26.4707 29.7872C26.4707 27.3298 27.9766 25.3191 29.8171 25.3191H5.55571C3.71515 25.3191 2.20929 27.3297 2.20929 29.7872C2.20929 32.2446 3.71515 34.2553 5.55571 34.2553H29.8171C27.9766 34.2552 26.4707 32.2446 26.4707 29.7872Z" fill="white"/>
    <path d="M33.1633 30.5319C32.6613 30.5319 32.3267 30.234 32.3267 29.7872C32.3267 27.7766 31.1555 26.0639 29.8169 26.0639H8.90183C8.39988 26.0639 8.06528 25.766 8.06528 25.3192V0.744641C8.06528 0.297839 8.39988 0 8.90183 0H33.1633C33.6652 0 33.9998 0.297839 33.9998 0.744641V29.7872C33.9999 30.234 33.6652 30.5319 33.1633 30.5319ZM9.73849 24.5745H29.8169C30.7372 24.5745 31.6575 24.9469 32.3267 25.6171V1.48937H9.73849V24.5745Z" fill="#00ADB5"/>
    <path d="M33.1635 29.7872C33.1635 32.2446 31.6576 34.2553 29.817 34.2553C27.9765 34.2553 26.4706 32.2447 26.4706 29.7872C26.4706 27.3298 27.9765 25.3191 29.817 25.3191C31.6576 25.3191 33.1635 27.3297 33.1635 29.7872Z" fill="white"/>
    <path d="M29.8169 34.9995C27.4743 34.9995 25.6339 32.6909 25.6339 29.7867C25.6339 26.8825 27.4744 24.574 29.8169 24.574C32.1594 24.574 33.9998 26.8825 33.9998 29.7867C33.9998 32.6909 32.1594 34.9995 29.8169 34.9995ZM29.8169 26.0633C28.4784 26.0633 27.3071 27.776 27.3071 29.7866C27.3071 31.7973 28.4784 33.51 29.8169 33.51C31.1555 33.51 32.3266 31.7973 32.3266 29.7866C32.3267 27.776 31.1555 26.0633 29.8169 26.0633Z" fill="#00ADB5"/>
    <path d="M29.817 34.9995H5.55554C3.21302 34.9995 1.37256 32.6909 1.37256 29.7867C1.37256 26.8825 3.21312 24.574 5.55554 24.574H29.817C30.3189 24.574 30.6535 24.8718 30.6535 25.3186C30.6535 25.7654 30.3189 26.0633 29.817 26.0633C28.4785 26.0633 27.3072 27.776 27.3072 29.7866C27.3072 31.7973 28.4785 33.51 29.817 33.51C30.3189 33.51 30.6535 33.8079 30.6535 34.2547C30.6536 34.7016 30.3189 34.9995 29.817 34.9995ZM5.55554 26.0633C4.21693 26.0633 3.04577 27.776 3.04577 29.7866C3.04577 31.7973 4.21703 33.51 5.55554 33.51H26.8889C26.1359 32.542 25.634 31.276 25.634 29.7866C25.634 28.2973 26.1359 27.0313 26.8889 26.0633H5.55554Z" fill="#00ADB5"/>
    </g>
    <defs>
    <clipPath id="clip0_427_1562">
    <rect width="33.2549" height="35" fill="white" transform="translate(0.745117)"/>
    </clipPath>
    <clipPath id="clip1_427_1562">
    <rect width="26.9804" height="26.8333" fill="white" transform="translate(8.27451)"/>
    </clipPath>
    </defs>
</svg>
    