<svg width="32" height="36" viewBox="0 0 32 36" fill="none" xmlns="http://www.w3.org/2000/svg">
    <g clip-path="url(#clip0_427_1620)">
    <path d="M7.38464 0.755371V25.6637H27.8974C29.7026 25.6637 31.1795 27.7016 31.1795 30.1925V0.755371H7.38464Z" fill="white"/>
    <g clip-path="url(#clip1_427_1620)">
    <path d="M20.7059 19.8333H10.6667V29.1666H20.7059V19.8333Z" fill="white"/>
    <path d="M20.7058 19.8331H10.0391L14.7812 8.74976H15.9637L20.7058 19.8331Z" fill="white"/>
    <path d="M20.8054 19.8391L15.7316 7.82092C15.6692 7.6704 15.5287 7.58325 15.3726 7.58325C15.2164 7.58325 15.0759 7.6704 15.0135 7.82092L9.93973 19.8391L9.90851 19.9896V29.7499H20.8366V19.9896L20.8054 19.8391ZM13.9597 12.3287H16.7854L19.7914 19.4588H10.9545L13.9597 12.3287ZM20.056 28.9656H17.7143V28.5695C17.7143 28.3477 17.5426 28.1734 17.324 28.1734C17.1054 28.1734 16.9337 28.3477 16.9337 28.5695V28.9656H15.3726V26.1928C15.3726 25.971 15.2008 25.7967 14.9823 25.7967C14.7637 25.7967 14.592 25.971 14.592 26.1928V28.9656H13.8114V22.2316C13.8114 22.0098 13.6397 21.8355 13.4211 21.8355C13.2026 21.8355 13.0308 22.0098 13.0308 22.2316V28.9656H10.6891V20.251H16.9337V26.1928C16.9337 26.4146 17.1054 26.5889 17.324 26.5889C17.5426 26.5889 17.7143 26.4146 17.7143 26.1928V20.251H20.056V28.9656Z" fill="#EBB313"/>
    <path d="M17.5686 12.2499H13.1765L15.1291 7.58325H15.616L17.5686 12.2499Z" fill="#FF449F"/>
    </g>
    <path d="M31.1794 30.9467C30.6871 30.9467 30.3589 30.6448 30.3589 30.1919C30.3589 28.154 29.2102 26.418 27.8974 26.418H7.38449C6.89219 26.418 6.56403 26.1161 6.56403 25.6632V0.754757C6.56403 0.301885 6.89219 0 7.38449 0H31.1794C31.6717 0 31.9998 0.301885 31.9998 0.754757V30.1918C31.9999 30.6448 31.6717 30.9467 31.1794 30.9467ZM8.20506 24.9083H27.8974C28.8 24.9083 29.7026 25.2858 30.3589 25.9651V1.5096H8.20506V24.9083Z" fill="#00ADB5"/>
    <path d="M24.6153 30.1921C24.6153 27.7013 26.0922 25.6633 27.8974 25.6633H4.10254C2.29737 25.6633 0.820465 27.7013 0.820465 30.1921C0.820465 32.6829 2.29737 34.721 4.10254 34.721H27.8974C26.0922 34.7209 24.6153 32.6829 24.6153 30.1921Z" fill="white"/>
    <path d="M27.8974 35.4761H4.10254C1.80507 35.4761 0 33.1362 0 30.1925C0 27.2488 1.80517 24.9089 4.10254 24.9089H27.8974C28.3897 24.9089 28.7179 25.2108 28.7179 25.6637C28.7179 26.1166 28.3897 26.4184 27.8974 26.4184C26.5846 26.4184 25.4359 28.1545 25.4359 30.1924C25.4359 32.2303 26.5846 33.9664 27.8974 33.9664C28.3897 33.9664 28.7179 34.2683 28.7179 34.7211C28.718 35.1741 28.3897 35.4761 27.8974 35.4761ZM4.10254 26.4184C2.78967 26.4184 1.64104 28.1545 1.64104 30.1924C1.64104 32.2303 2.78977 33.9664 4.10254 33.9664H25.0256C24.2872 32.9852 23.7949 31.702 23.7949 30.1924C23.7949 28.6828 24.2872 27.3996 25.0256 26.4184H4.10254Z" fill="#00ADB5"/>
    <path d="M31.1797 30.1921C31.1797 32.6829 29.7027 34.721 27.8976 34.721C26.0924 34.721 24.6155 32.683 24.6155 30.1921C24.6155 27.7013 26.0924 25.6633 27.8976 25.6633C29.7027 25.6633 31.1797 27.7013 31.1797 30.1921Z" fill="white"/>
    <path d="M27.8973 35.4761C25.5998 35.4761 23.7947 33.1362 23.7947 30.1925C23.7947 27.2488 25.5999 24.9089 27.8973 24.9089C30.1947 24.9089 31.9998 27.2488 31.9998 30.1925C31.9998 33.1362 30.1947 35.4761 27.8973 35.4761ZM27.8973 26.4184C26.5845 26.4184 25.4358 28.1545 25.4358 30.1924C25.4358 32.2303 26.5845 33.9664 27.8973 33.9664C29.2101 33.9664 30.3588 32.2303 30.3588 30.1924C30.3589 28.1545 29.2101 26.4184 27.8973 26.4184Z" fill="#00ADB5"/>
    <path d="M25.591 5.48005C25.8714 5.39406 26.1731 5.34728 26.4874 5.34728C26.7955 5.34728 27.0914 5.39223 27.3671 5.47499M27.3671 5.47499C28.4202 5.7912 29.1764 6.65926 29.1764 7.68059C29.1764 8.96926 27.9725 10.0139 26.4874 10.0139H21.7815C20.6676 10.0139 19.7647 9.23044 19.7647 8.26394C19.7647 7.29744 20.6676 6.51394 21.7815 6.51394C21.9152 6.51394 22.0459 6.52522 22.1723 6.54679M27.3671 5.47499C27.2174 4.30926 26.078 3.40283 24.6947 3.40283C23.2095 3.40283 22.0056 4.4475 22.0056 5.73617C22.0056 6.0212 22.0645 6.29428 22.1723 6.54679M22.1723 6.54679C22.4379 6.59203 22.6848 6.68252 22.9019 6.80863" stroke="#00ADB5" stroke-linecap="round"/>
    </g>
    <defs>
    <clipPath id="clip0_427_1620">
    <rect width="32" height="35.5833" fill="white"/>
    </clipPath>
    <clipPath id="clip1_427_1620">
    <rect width="11.9216" height="22.1667" fill="white" transform="translate(9.41177 7.58325)"/>
    </clipPath>
    </defs>
</svg>
    