<svg width="32" height="35" viewBox="0 0 32 35" fill="none" xmlns="http://www.w3.org/2000/svg">
    <g clip-path="url(#clip0_427_6456)">
    <path d="M7.38464 0.74292V25.2429H27.8974C29.7026 25.2429 31.1795 27.2475 31.1795 29.6975V0.74292H7.38464Z" fill="white"/>
    <g clip-path="url(#clip1_427_6456)">
    <rect x="12.549" y="0.583496" width="3.76471" height="25.6667" fill="#EBB313"/>
    <rect x="12.549" y="0.583496" width="3.76471" height="25.6667" stroke="#00ADB5"/>
    <rect x="21.3333" y="0.583496" width="3.76471" height="19.25" fill="#FF449F"/>
    <rect x="21.3333" y="0.583496" width="3.76471" height="19.25" stroke="#00ADB5"/>
    </g>
    <path d="M31.1796 29.6985C31.1796 32.1484 29.7027 34.153 27.8975 34.153C26.0924 34.153 24.6155 32.1485 24.6155 29.6985C24.6155 27.2485 26.0924 25.2439 27.8975 25.2439C29.7027 25.2439 31.1796 27.2484 31.1796 29.6985Z" fill="white"/>
    <path d="M31.1794 30.4394C30.6871 30.4394 30.3589 30.1424 30.3589 29.697C30.3589 27.6925 29.2102 25.9849 27.8974 25.9849H7.38449C6.89219 25.9849 6.56403 25.6879 6.56403 25.2425V0.742384C6.56403 0.296936 6.89219 0 7.38449 0H31.1794C31.6717 0 31.9998 0.296936 31.9998 0.742384V29.6969C31.9999 30.1424 31.6717 30.4394 31.1794 30.4394ZM8.20506 24.5H27.8974C28.8 24.5 29.7026 24.8713 30.3589 25.5394V1.48486H8.20506V24.5Z" fill="#00ADB5"/>
    <path d="M24.6154 29.6985C24.6154 27.2485 26.0923 25.2439 27.8974 25.2439H4.10257C2.2974 25.2439 0.820496 27.2484 0.820496 29.6985C0.820496 32.1484 2.2974 34.153 4.10257 34.153H27.8974C26.0923 34.153 24.6154 32.1484 24.6154 29.6985Z" fill="white"/>
    <path d="M27.8973 34.8951C25.5998 34.8951 23.7947 32.5936 23.7947 29.6982C23.7947 26.8028 25.5999 24.5012 27.8973 24.5012C30.1947 24.5012 31.9998 26.8028 31.9998 29.6982C31.9998 32.5936 30.1947 34.8951 27.8973 34.8951ZM27.8973 25.986C26.5845 25.986 25.4358 27.6936 25.4358 29.6981C25.4358 31.7026 26.5845 33.4102 27.8973 33.4102C29.2101 33.4102 30.3588 31.7026 30.3588 29.6981C30.3589 27.6936 29.2101 25.986 27.8973 25.986Z" fill="#00ADB5"/>
    <path d="M27.8974 34.8951H4.10254C1.80507 34.8951 0 32.5936 0 29.6982C0 26.8028 1.80517 24.5012 4.10254 24.5012H27.8974C28.3897 24.5012 28.7179 24.7982 28.7179 25.2436C28.7179 25.6891 28.3897 25.986 27.8974 25.986C26.5846 25.986 25.4359 27.6936 25.4359 29.6981C25.4359 31.7026 26.5846 33.4102 27.8974 33.4102C28.3897 33.4102 28.7179 33.7071 28.7179 34.1526C28.718 34.5981 28.3897 34.8951 27.8974 34.8951ZM4.10254 25.986C2.78967 25.986 1.64104 27.6936 1.64104 29.6981C1.64104 31.7026 2.78977 33.4102 4.10254 33.4102H25.0256C24.2872 32.4451 23.7949 31.1829 23.7949 29.6981C23.7949 28.2132 24.2872 26.9511 25.0256 25.986H4.10254Z" fill="#00ADB5"/>
    </g>
    <defs>
    <clipPath id="clip0_427_6456">
    <rect width="32" height="35" fill="white"/>
    </clipPath>
    <clipPath id="clip1_427_6456">
    <rect width="21.9608" height="25.0833" fill="white" transform="translate(8.15686 1.16675)"/>
    </clipPath>
    </defs>
</svg>
    