<svg width="32" height="35" viewBox="0 0 32 35" fill="none" xmlns="http://www.w3.org/2000/svg">
    <g clip-path="url(#clip0_427_6497)">
    <path d="M7.38461 0.74292V25.2429H27.8974C29.7026 25.2429 31.1795 27.2475 31.1795 29.6975V0.74292H7.38461Z" fill="white"/>
    <path d="M25.0869 23.332C24.4534 23.332 23.82 23.9153 23.82 24.4986C23.82 25.1986 24.3268 25.6652 25.0869 25.6652C25.8471 25.6652 26.3539 25.1986 26.3539 24.4986C26.3539 23.7986 25.8471 23.332 25.0869 23.332Z" fill="#FF449F"/>
    <path d="M17.4845 23.332C16.8511 23.332 16.2176 23.9153 16.2176 24.4986C16.2176 25.1986 16.7243 25.6652 17.4845 25.6652C18.2447 25.6652 18.7514 25.1986 18.7514 24.4986C18.7514 23.7986 18.2448 23.332 17.4845 23.332Z" fill="#00ADB5"/>
    <path d="M9.88231 23.332C9.24892 23.332 8.61539 23.9153 8.61539 24.4986C8.61539 25.1986 9.12213 25.6652 9.88231 25.6652C10.6425 25.6652 11.1492 25.1986 11.1492 24.4986C11.1492 23.7986 10.6425 23.332 9.88231 23.332Z" fill="#EBB313"/>
    <path d="M25.0869 16.3298C24.4534 16.3298 23.82 16.9132 23.82 17.4964C23.82 18.1964 24.3268 18.663 25.0869 18.663C25.8471 18.663 26.3539 18.1964 26.3539 17.4964C26.3539 16.7964 25.8471 16.3298 25.0869 16.3298Z" fill="#00ADB5"/>
    <path d="M28.8865 19.833C28.2531 19.8329 27.6196 20.4162 27.6196 20.9996C27.6196 21.6996 28.1263 22.1662 28.8865 22.1662C29.6467 22.1662 30.1534 21.6996 30.1534 20.9996C30.1534 20.2996 29.6467 19.833 28.8865 19.833Z" fill="#FF449F"/>
    <path d="M21.2855 19.833C20.6522 19.8329 20.0186 20.4162 20.0186 20.9996C20.0186 21.6996 20.5254 22.1662 21.2855 22.1662C22.0457 22.1662 22.5525 21.6996 22.5525 20.9996C22.5525 20.2996 22.0457 19.833 21.2855 19.833Z" fill="#00ADB5"/>
    <path d="M28.8871 12.8345C28.2537 12.8345 27.6202 13.4177 27.6202 14.0011C27.6202 14.701 28.1269 15.1676 28.8871 15.1676C29.6473 15.1676 30.154 14.701 30.154 14.0011C30.154 13.3011 29.6473 12.8345 28.8871 12.8345Z" fill="#00ADB5"/>
    <path d="M21.2853 12.8345C20.6519 12.8345 20.0183 13.4177 20.0183 14.0011C20.0183 14.701 20.5251 15.1676 21.2853 15.1676C22.0454 15.1676 22.5522 14.701 22.5522 14.0011C22.5522 13.3011 22.0454 12.8345 21.2853 12.8345Z" fill="#EBB313"/>
    <path d="M17.4845 16.3298C16.8511 16.3298 16.2176 16.9132 16.2176 17.4964C16.2176 18.1964 16.7243 18.663 17.4845 18.663C18.2447 18.663 18.7514 18.1964 18.7514 17.4964C18.7514 16.7964 18.2448 16.3298 17.4845 16.3298Z" fill="#EBB313"/>
    <path d="M9.88231 16.3298C9.24892 16.3298 8.61539 16.9132 8.61539 17.4964C8.61539 18.1964 9.12213 18.663 9.88231 18.663C10.6425 18.663 11.1492 18.1964 11.1492 17.4964C11.1492 16.7964 10.6425 16.3298 9.88231 16.3298Z" fill="#00ADB5"/>
    <path d="M13.6837 19.833C13.0502 19.8329 12.4168 20.4162 12.4168 20.9996C12.4168 21.6996 12.9235 22.1662 13.6837 22.1662C14.4439 22.1662 14.9506 21.6996 14.9506 20.9996C14.9506 20.2996 14.4439 19.833 13.6837 19.833Z" fill="#EBB313"/>
    <path d="M13.6837 12.8345C13.0502 12.8345 12.4168 13.4177 12.4168 14.0011C12.4168 14.701 12.9235 15.1676 13.6837 15.1676C14.4439 15.1676 14.9506 14.701 14.9506 14.0011C14.9506 13.3011 14.4439 12.8345 13.6837 12.8345Z" fill="#00ADB5"/>
    <path d="M25.0866 9.33301C24.4531 9.33287 23.8197 9.91623 23.8197 10.4996C23.8197 11.1996 24.3265 11.6662 25.0866 11.6662C25.8468 11.6662 26.3535 11.1996 26.3535 10.4996C26.3535 9.79962 25.8468 9.33301 25.0866 9.33301Z" fill="#EBB313"/>
    <path d="M25.0867 2.33325C24.4532 2.33325 23.8198 2.91648 23.8198 3.49984C23.8198 4.19982 24.3265 4.66643 25.0867 4.66643C25.8469 4.66643 26.3536 4.19982 26.3536 3.49984C26.3536 2.79986 25.8469 2.33325 25.0867 2.33325Z" fill="#00ADB5"/>
    <path d="M28.8871 5.83618C28.2537 5.83618 27.6202 6.41954 27.6202 7.00277C27.6202 7.70275 28.1269 8.16936 28.8871 8.16936C29.6473 8.16936 30.154 7.70275 30.154 7.00277C30.154 6.30279 29.6473 5.83618 28.8871 5.83618Z" fill="#EBB313"/>
    <path d="M21.2853 5.83618C20.6519 5.83618 20.0183 6.41954 20.0183 7.00277C20.0183 7.70275 20.5251 8.16936 21.2853 8.16936C22.0454 8.16936 22.5522 7.70275 22.5522 7.00277C22.5522 6.30279 22.0454 5.83618 21.2853 5.83618Z" fill="#00ADB5"/>
    <path d="M17.4845 9.33301C16.8511 9.33287 16.2176 9.91623 16.2176 10.4996C16.2176 11.1996 16.7243 11.6662 17.4845 11.6662C18.2447 11.6662 18.7514 11.1996 18.7514 10.4996C18.7514 9.79962 18.2448 9.33301 17.4845 9.33301Z" fill="#00ADB5"/>
    <path d="M9.88231 9.33301C9.24892 9.33287 8.61539 9.91623 8.61539 10.4996C8.61539 11.1996 9.12213 11.6662 9.88231 11.6662C10.6425 11.6662 11.1492 11.1996 11.1492 10.4996C11.1492 9.79962 10.6425 9.33301 9.88231 9.33301Z" fill="#FF449F"/>
    <path d="M17.4842 2.33325C16.8508 2.33325 16.2173 2.91648 16.2173 3.49984C16.2173 4.19982 16.724 4.66643 17.4842 4.66643C18.2444 4.66643 18.7511 4.19982 18.7511 3.49984C18.7513 2.79986 18.2445 2.33325 17.4842 2.33325Z" fill="#FF449F"/>
    <path d="M9.88231 2.33325C9.24892 2.33325 8.61539 2.91648 8.61539 3.49984C8.61539 4.19982 9.12213 4.66643 9.88231 4.66643C10.6425 4.66643 11.1492 4.19982 11.1492 3.49984C11.1492 2.79986 10.6425 2.33325 9.88231 2.33325Z" fill="#EBB313"/>
    <path d="M13.6837 5.83618C13.0502 5.83618 12.4168 6.41954 12.4168 7.00277C12.4168 7.70275 12.9235 8.16936 13.6837 8.16936C14.4439 8.16936 14.9506 7.70275 14.9506 7.00277C14.9506 6.30279 14.4439 5.83618 13.6837 5.83618Z" fill="#FF449F"/>
    <path d="M24.6155 29.6963C24.6155 27.2463 26.0924 25.2417 27.8975 25.2417H4.10268C2.29751 25.2417 0.82061 27.2462 0.82061 29.6963C0.82061 32.1462 2.29751 34.1508 4.10268 34.1508H27.8975C26.0924 34.1508 24.6155 32.1462 24.6155 29.6963Z" fill="white"/>
    <path d="M31.1793 30.4394C30.687 30.4394 30.3589 30.1424 30.3589 29.697C30.3589 27.6925 29.2101 25.9849 27.8974 25.9849H7.38447C6.89217 25.9849 6.564 25.6879 6.564 25.2425V0.742384C6.564 0.296936 6.89217 0 7.38447 0H31.1793C31.6716 0 31.9998 0.296936 31.9998 0.742384V29.6969C31.9999 30.1424 31.6716 30.4394 31.1793 30.4394ZM8.20504 24.5H27.8974C28.8 24.5 29.7025 24.8713 30.3589 25.5394V1.48486H8.20504V24.5Z" fill="#00ADB5"/>
    <path d="M31.1795 29.6963C31.1795 32.1462 29.7026 34.1508 27.8975 34.1508C26.0923 34.1508 24.6154 32.1463 24.6154 29.6963C24.6154 27.2463 26.0923 25.2417 27.8975 25.2417C29.7026 25.2417 31.1795 27.2462 31.1795 29.6963Z" fill="white"/>
    <path d="M27.8973 34.8951C25.5998 34.8951 23.7948 32.5936 23.7948 29.6982C23.7948 26.8028 25.5999 24.5012 27.8973 24.5012C30.1948 24.5012 31.9998 26.8028 31.9998 29.6982C31.9998 32.5936 30.1948 34.8951 27.8973 34.8951ZM27.8973 25.986C26.5845 25.986 25.4358 27.6936 25.4358 29.6981C25.4358 31.7026 26.5845 33.4102 27.8973 33.4102C29.2102 33.4102 30.3588 31.7026 30.3588 29.6981C30.3589 27.6936 29.2102 25.986 27.8973 25.986Z" fill="#00ADB5"/>
    <path d="M27.8974 34.8951H4.10254C1.80507 34.8951 0 32.5936 0 29.6982C0 26.8028 1.80517 24.5012 4.10254 24.5012H27.8974C28.3897 24.5012 28.7179 24.7982 28.7179 25.2436C28.7179 25.6891 28.3897 25.986 27.8974 25.986C26.5846 25.986 25.4359 27.6936 25.4359 29.6981C25.4359 31.7026 26.5846 33.4102 27.8974 33.4102C28.3897 33.4102 28.7179 33.7071 28.7179 34.1526C28.718 34.5981 28.3897 34.8951 27.8974 34.8951ZM4.10254 25.986C2.78967 25.986 1.64104 27.6936 1.64104 29.6981C1.64104 31.7026 2.78977 33.4102 4.10254 33.4102H25.0256C24.2872 32.4451 23.7949 31.1829 23.7949 29.6981C23.7949 28.2132 24.2872 26.9511 25.0256 25.986H4.10254Z" fill="#00ADB5"/>
    </g>
    <defs>
    <clipPath id="clip0_427_6497">
    <rect width="32" height="35" fill="white"/>
    </clipPath>
    </defs>
</svg>
    