<svg width="249" height="57" viewBox="0 0 249 57" fill="none" xmlns="http://www.w3.org/2000/svg">
<g clip-path="url(#clip0_1647_11443)">
<path d="M99.0431 29.432C99.0431 31.128 98.7605 32.7013 98.1951 34.152C97.6405 35.592 96.8511 36.84 95.8271 37.896C94.8031 38.952 93.5711 39.7787 92.1311 40.376C90.6911 40.9627 89.0911 41.256 87.3311 41.256C85.5818 41.256 83.9871 40.9627 82.5471 40.376C81.1071 39.7787 79.8698 38.952 78.8351 37.896C77.8111 36.84 77.0165 35.592 76.4511 34.152C75.8858 32.7013 75.6031 31.128 75.6031 29.432C75.6031 27.736 75.8858 26.168 76.4511 24.728C77.0165 23.2773 77.8111 22.024 78.8351 20.968C79.8698 19.912 81.1071 19.0907 82.5471 18.504C83.9871 17.9067 85.5818 17.608 87.3311 17.608C88.5045 17.608 89.6085 17.7467 90.6431 18.024C91.6778 18.2907 92.6271 18.6747 93.4911 19.176C94.3551 19.6667 95.1285 20.2693 95.8111 20.984C96.5045 21.688 97.0911 22.4773 97.5711 23.352C98.0511 24.2267 98.4138 25.176 98.6591 26.2C98.9151 27.224 99.0431 28.3013 99.0431 29.432ZM94.6431 29.432C94.6431 28.1627 94.4725 27.0267 94.1311 26.024C93.7898 25.0107 93.3045 24.152 92.6751 23.448C92.0458 22.744 91.2778 22.2053 90.3711 21.832C89.4751 21.4587 88.4618 21.272 87.3311 21.272C86.2005 21.272 85.1818 21.4587 84.2751 21.832C83.3791 22.2053 82.6111 22.744 81.9711 23.448C81.3418 24.152 80.8565 25.0107 80.5151 26.024C80.1738 27.0267 80.0031 28.1627 80.0031 29.432C80.0031 30.7013 80.1738 31.8427 80.5151 32.856C80.8565 33.8587 81.3418 34.712 81.9711 35.416C82.6111 36.1093 83.3791 36.6427 84.2751 37.016C85.1818 37.3893 86.2005 37.576 87.3311 37.576C88.4618 37.576 89.4751 37.3893 90.3711 37.016C91.2778 36.6427 92.0458 36.1093 92.6751 35.416C93.3045 34.712 93.7898 33.8587 94.1311 32.856C94.4725 31.8427 94.6431 30.7013 94.6431 29.432ZM112.487 37.64C113.287 37.64 113.954 37.5547 114.487 37.384C115.031 37.2027 115.468 36.9573 115.799 36.648C116.13 36.3387 116.364 35.976 116.503 35.56C116.642 35.144 116.711 34.696 116.711 34.216C116.711 33.6933 116.642 33.2187 116.503 32.792C116.364 32.3653 116.13 32.008 115.799 31.72C115.468 31.4213 115.036 31.192 114.503 31.032C113.97 30.872 113.303 30.792 112.503 30.792H108.727V37.64H112.487ZM112.503 27.432C114.007 27.432 115.292 27.5973 116.359 27.928C117.436 28.2587 118.311 28.712 118.983 29.288C119.666 29.8533 120.167 30.5253 120.487 31.304C120.807 32.072 120.967 32.8987 120.967 33.784C120.967 34.872 120.775 35.8587 120.391 36.744C120.018 37.6293 119.468 38.392 118.743 39.032C118.018 39.6613 117.127 40.1467 116.071 40.488C115.026 40.8293 113.831 41 112.487 41H104.423V17.864H120.119V21.192H108.727V27.432H112.503ZM148.243 29.432C148.243 31.128 147.96 32.7013 147.395 34.152C146.84 35.592 146.051 36.84 145.027 37.896C144.003 38.952 142.771 39.7787 141.331 40.376C139.891 40.9627 138.291 41.256 136.531 41.256C134.782 41.256 133.187 40.9627 131.747 40.376C130.307 39.7787 129.07 38.952 128.035 37.896C127.011 36.84 126.216 35.592 125.651 34.152C125.086 32.7013 124.803 31.128 124.803 29.432C124.803 27.736 125.086 26.168 125.651 24.728C126.216 23.2773 127.011 22.024 128.035 20.968C129.07 19.912 130.307 19.0907 131.747 18.504C133.187 17.9067 134.782 17.608 136.531 17.608C137.704 17.608 138.808 17.7467 139.843 18.024C140.878 18.2907 141.827 18.6747 142.691 19.176C143.555 19.6667 144.328 20.2693 145.011 20.984C145.704 21.688 146.291 22.4773 146.771 23.352C147.251 24.2267 147.614 25.176 147.859 26.2C148.115 27.224 148.243 28.3013 148.243 29.432ZM143.843 29.432C143.843 28.1627 143.672 27.0267 143.331 26.024C142.99 25.0107 142.504 24.152 141.875 23.448C141.246 22.744 140.478 22.2053 139.571 21.832C138.675 21.4587 137.662 21.272 136.531 21.272C135.4 21.272 134.382 21.4587 133.475 21.832C132.579 22.2053 131.811 22.744 131.171 23.448C130.542 24.152 130.056 25.0107 129.715 26.024C129.374 27.0267 129.203 28.1627 129.203 29.432C129.203 30.7013 129.374 31.8427 129.715 32.856C130.056 33.8587 130.542 34.712 131.171 35.416C131.811 36.1093 132.579 36.6427 133.475 37.016C134.382 37.3893 135.4 37.576 136.531 37.576C137.662 37.576 138.675 37.3893 139.571 37.016C140.478 36.6427 141.246 36.1093 141.875 35.416C142.504 34.712 142.99 33.8587 143.331 32.856C143.672 31.8427 143.843 30.7013 143.843 29.432ZM173.127 17.864V41H168.807V26.504C168.807 25.96 168.818 25.3893 168.839 24.792C168.871 24.1947 168.935 23.56 169.031 22.888C168.818 23.4853 168.583 24.04 168.327 24.552C168.082 25.0533 167.842 25.496 167.607 25.88L158.759 39.672C158.663 39.832 158.546 39.992 158.407 40.152C158.279 40.312 158.135 40.456 157.975 40.584C157.815 40.7013 157.639 40.8027 157.447 40.888C157.255 40.9627 157.058 41 156.855 41H153.623V17.864H157.943V32.36C157.943 32.904 157.927 33.48 157.895 34.088C157.874 34.6853 157.815 35.32 157.719 35.992C157.932 35.3947 158.162 34.84 158.407 34.328C158.663 33.816 158.914 33.368 159.159 32.984L167.991 19.192C168.087 19.032 168.199 18.872 168.327 18.712C168.466 18.552 168.615 18.4133 168.775 18.296C168.935 18.168 169.106 18.0667 169.287 17.992C169.479 17.9067 169.682 17.864 169.895 17.864H173.127ZM163.575 14.52C163.97 14.52 164.3 14.4827 164.567 14.408C164.834 14.3333 165.047 14.2053 165.207 14.024C165.367 13.832 165.479 13.576 165.543 13.256C165.607 12.936 165.639 12.5307 165.639 12.04H167.975C168.252 12.04 168.455 12.1573 168.583 12.392C168.722 12.6267 168.791 12.8827 168.791 13.16C168.791 13.704 168.668 14.184 168.423 14.6C168.178 15.016 167.826 15.3627 167.367 15.64C166.908 15.9173 166.359 16.1307 165.719 16.28C165.079 16.4187 164.364 16.488 163.575 16.488C162.786 16.488 162.071 16.4187 161.431 16.28C160.791 16.1307 160.242 15.9173 159.783 15.64C159.324 15.3627 158.972 15.016 158.727 14.6C158.482 14.184 158.359 13.704 158.359 13.16C158.359 12.8827 158.423 12.6267 158.551 12.392C158.69 12.1573 158.898 12.04 159.175 12.04H161.511C161.511 12.5307 161.543 12.936 161.607 13.256C161.671 13.576 161.783 13.832 161.943 14.024C162.103 14.2053 162.311 14.3333 162.567 14.408C162.834 14.4827 163.17 14.52 163.575 14.52ZM199.511 41H195.607C195.202 41 194.86 40.8933 194.583 40.68C194.316 40.4667 194.066 40.152 193.831 39.736L188.903 31.96C188.775 31.736 188.636 31.5547 188.487 31.416C188.348 31.2667 188.194 31.1493 188.023 31.064C187.863 30.968 187.676 30.904 187.463 30.872C187.26 30.84 187.026 30.824 186.759 30.824H184.183V41H179.879V17.864H184.183V27.56H186.359C186.796 27.56 187.175 27.4853 187.495 27.336C187.815 27.1867 188.114 26.9093 188.391 26.504L193.463 19.016C193.676 18.6747 193.927 18.3973 194.215 18.184C194.503 17.9707 194.85 17.864 195.255 17.864H198.935L192.647 27.144C192.38 27.5493 192.071 27.8853 191.719 28.152C191.367 28.4187 190.978 28.6267 190.551 28.776C191.191 28.9573 191.73 29.2453 192.167 29.64C192.615 30.024 193.042 30.5573 193.447 31.24L199.511 41ZM223.264 17.864V41H218.944V26.504C218.944 25.96 218.955 25.3893 218.976 24.792C219.008 24.1947 219.072 23.56 219.168 22.888C218.955 23.4853 218.72 24.04 218.464 24.552C218.219 25.0533 217.979 25.496 217.744 25.88L208.896 39.672C208.8 39.832 208.683 39.992 208.544 40.152C208.416 40.312 208.272 40.456 208.112 40.584C207.952 40.7013 207.776 40.8027 207.584 40.888C207.392 40.9627 207.195 41 206.992 41H203.76V17.864H208.08V32.36C208.08 32.904 208.064 33.48 208.032 34.088C208.011 34.6853 207.952 35.32 207.856 35.992C208.07 35.3947 208.299 34.84 208.544 34.328C208.8 33.816 209.051 33.368 209.296 32.984L218.128 19.192C218.224 19.032 218.336 18.872 218.464 18.712C218.603 18.552 218.752 18.4133 218.912 18.296C219.072 18.168 219.243 18.0667 219.424 17.992C219.616 17.9067 219.819 17.864 220.032 17.864H223.264ZM245.905 35.544C246.139 35.544 246.347 35.6347 246.529 35.816L248.225 37.656C247.286 38.8187 246.129 39.7093 244.753 40.328C243.387 40.9467 241.745 41.256 239.825 41.256C238.107 41.256 236.561 40.9627 235.185 40.376C233.819 39.7893 232.651 38.9733 231.681 37.928C230.71 36.8827 229.963 35.6347 229.441 34.184C228.929 32.7333 228.673 31.1493 228.673 29.432C228.673 27.6933 228.95 26.104 229.505 24.664C230.059 23.2133 230.838 21.9653 231.841 20.92C232.854 19.8747 234.059 19.064 235.457 18.488C236.854 17.9013 238.401 17.608 240.097 17.608C241.782 17.608 243.275 17.8853 244.577 18.44C245.889 18.9947 247.003 19.72 247.921 20.616L246.481 22.616C246.395 22.744 246.283 22.856 246.145 22.952C246.017 23.048 245.835 23.096 245.601 23.096C245.441 23.096 245.275 23.0533 245.105 22.968C244.934 22.872 244.747 22.76 244.545 22.632C244.342 22.4933 244.107 22.344 243.841 22.184C243.574 22.024 243.265 21.88 242.913 21.752C242.561 21.6133 242.15 21.5013 241.681 21.416C241.222 21.32 240.689 21.272 240.081 21.272C239.046 21.272 238.097 21.4587 237.233 21.832C236.379 22.1947 235.643 22.728 235.025 23.432C234.406 24.1253 233.926 24.9787 233.585 25.992C233.243 26.9947 233.073 28.1413 233.073 29.432C233.073 30.7333 233.254 31.8907 233.617 32.904C233.99 33.9173 234.491 34.7707 235.121 35.464C235.75 36.1573 236.491 36.6907 237.345 37.064C238.198 37.4267 239.115 37.608 240.097 37.608C240.683 37.608 241.211 37.576 241.681 37.512C242.161 37.448 242.598 37.3467 242.993 37.208C243.398 37.0693 243.777 36.8933 244.129 36.68C244.491 36.456 244.849 36.184 245.201 35.864C245.307 35.768 245.419 35.6933 245.537 35.64C245.654 35.576 245.777 35.544 245.905 35.544Z" fill="#00ADB5"/>
<path d="M44.9842 12.5585V4.96831H43.054V3.09026H54.0928V4.96831H52.3049V16.7132L59.0859 21.5725V26.6787L54.0833 23.7403L54.0928 42.0691L54.0833 57.4404L29.4988 57.4404H4.91423V42.0596L4.91423 23.7403L-0.188483 26.6787V21.5725L29.4988 -0.106739L44.9842 12.5585Z" fill="#00ADB5"/>
<path fill-rule="evenodd" clip-rule="evenodd" d="M38.2815 38.7836L7.40278 15.9205L17.2403 8.73771L42.9466 29.3066C43.7241 33.0771 43.7241 35.7991 42.9466 37.4724C42.1691 39.1457 40.6141 39.5828 38.2815 38.7836Z" fill="url(#paint0_linear_1647_11443)"/>
<path fill-rule="evenodd" clip-rule="evenodd" d="M38.2814 38.7835C39.0712 38.851 39.5812 38.8774 39.8114 38.8628C42.8128 38.6725 42.5878 36.4125 39.1365 32.0827L46.4779 23.4903C49.6311 25.993 50.9622 28.0476 50.4712 29.6542C49.658 32.3145 43.8187 40.1754 41.792 39.9856C41.3827 39.9473 40.2125 39.5466 38.2814 38.7835Z" fill="url(#paint1_linear_1647_11443)"/>
</g>
<defs>
<linearGradient id="paint0_linear_1647_11443" x1="-2808.17" y1="-2767.21" x2="220.423" y2="-566.812" gradientUnits="userSpaceOnUse">
<stop stop-color="#EBB313"/>
<stop offset="1" stop-color="#FF449F"/>
</linearGradient>
<linearGradient id="paint1_linear_1647_11443" x1="-117.672" y1="-1122.03" x2="501.709" y2="-688.339" gradientUnits="userSpaceOnUse">
<stop stop-color="#EBB313"/>
<stop offset="1" stop-color="#F57F55"/>
</linearGradient>
<clipPath id="clip0_1647_11443">
<rect width="249" height="57" fill="white"/>
</clipPath>
</defs>
</svg>
